FrauncesItalic-LightOpMax.ufo
<glyph name="exclam" format="1">
  <advance width="210"/>
  <unicode hex="0021"/>
  <outline>
    <contour>
      <point x="305" y="728" type="curve" smooth="yes"/>
      <point x="315" y="728"/>
      <point x="308" y="729"/>
      <point x="308" y="730" type="curve" smooth="yes"/>
      <point x="308" y="717"/>
      <point x="303" y="708"/>
      <point x="297" y="683" type="curve" smooth="yes"/>
      <point x="143" y="150" type="line" smooth="yes"/>
      <point x="148" y="159"/>
      <point x="151" y="159"/>
      <point x="154" y="159" type="curve" smooth="yes"/>
      <point x="156" y="159"/>
      <point x="159" y="154"/>
      <point x="159" y="152" type="curve" smooth="yes"/>
      <point x="283" y="685" type="line" smooth="yes"/>
      <point x="286" y="699"/>
      <point x="289" y="709"/>
      <point x="292" y="719" type="curve" smooth="yes"/>
      <point x="296" y="729"/>
      <point x="296" y="728"/>
    </contour>
    <component base="period" xScale="0.9329999999999999" yScale="0.9329999999999999" xOffset="2" yOffset="-1"/>
  </outline>
</glyph>
<glyph name="numbersign" format="1">
  <advance width="541"/>
  <unicode hex="0023"/>
  <outline>
    <contour>
      <point x="270" y="306" type="curve" smooth="yes"/>
      <point x="185" y="71"/>
      <point x="149" y="34"/>
      <point x="144" y="11" type="curve" smooth="yes"/>
      <point x="142" y="-4"/>
      <point x="145" y="-16"/>
      <point x="154" y="-16" type="curve" smooth="yes"/>
      <point x="165" y="-16"/>
      <point x="173" y="-9"/>
      <point x="180" y="9" type="curve" smooth="yes"/>
      <point x="192" y="30"/>
      <point x="193" y="69"/>
      <point x="280" y="306" type="curve" smooth="yes"/>
      <point x="363" y="537"/>
      <point x="400" y="576"/>
      <point x="405" y="600" type="curve" smooth="yes"/>
      <point x="408" y="616"/>
      <point x="405" y="627"/>
      <point x="395" y="627" type="curve" smooth="yes"/>
      <point x="384" y="627"/>
      <point x="376" y="620"/>
      <point x="365" y="598" type="curve" smooth="yes"/>
      <point x="353" y="572"/>
      <point x="363" y="563"/>
    </contour>
    <contour>
      <point x="431" y="306" type="curve" smooth="yes"/>
      <point x="347" y="72"/>
      <point x="309" y="34"/>
      <point x="304" y="11" type="curve" smooth="yes"/>
      <point x="302" y="-4"/>
      <point x="304" y="-16"/>
      <point x="314" y="-16" type="curve" smooth="yes"/>
      <point x="324" y="-16"/>
      <point x="333" y="-9"/>
      <point x="341" y="9" type="curve" smooth="yes"/>
      <point x="353" y="31"/>
      <point x="354" y="64"/>
      <point x="440" y="306" type="curve" smooth="yes"/>
      <point x="522" y="537"/>
      <point x="559" y="576"/>
      <point x="564" y="600" type="curve" smooth="yes"/>
      <point x="567" y="616"/>
      <point x="565" y="627"/>
      <point x="554" y="627" type="curve" smooth="yes"/>
      <point x="543" y="627"/>
      <point x="534" y="619"/>
      <point x="526" y="598" type="curve" smooth="yes"/>
      <point x="513" y="573"/>
      <point x="523" y="554"/>
    </contour>
    <contour>
      <point x="380" y="390" type="curve" smooth="yes"/>
      <point x="542" y="390"/>
      <point x="555" y="373"/>
      <point x="565" y="373" type="curve" smooth="yes"/>
      <point x="581" y="373"/>
      <point x="590" y="383"/>
      <point x="594" y="394" type="curve" smooth="yes"/>
      <point x="596" y="403"/>
      <point x="592" y="413"/>
      <point x="579" y="413" type="curve" smooth="yes"/>
      <point x="572" y="413"/>
      <point x="547" y="398"/>
      <point x="383" y="399" type="curve" smooth="yes"/>
      <point x="222" y="399"/>
      <point x="207" y="414"/>
      <point x="199" y="414" type="curve" smooth="yes"/>
      <point x="183" y="414"/>
      <point x="172" y="404"/>
      <point x="170" y="395" type="curve" smooth="yes"/>
      <point x="167" y="383"/>
      <point x="174" y="376"/>
      <point x="189" y="375" type="curve" smooth="yes"/>
      <point x="196" y="374"/>
      <point x="219" y="390"/>
    </contour>
    <contour>
      <point x="323" y="220" type="curve" smooth="yes"/>
      <point x="485" y="220"/>
      <point x="499" y="208"/>
      <point x="508" y="208" type="curve" smooth="yes"/>
      <point x="524" y="208"/>
      <point x="535" y="219"/>
      <point x="538" y="228" type="curve" smooth="yes"/>
      <point x="540" y="236"/>
      <point x="534" y="242"/>
      <point x="520" y="242" type="curve" smooth="yes"/>
      <point x="514" y="242"/>
      <point x="491" y="228"/>
      <point x="326" y="229" type="curve" smooth="yes"/>
      <point x="165" y="229"/>
      <point x="149" y="243"/>
      <point x="140" y="243" type="curve" smooth="yes"/>
      <point x="125" y="243"/>
      <point x="116" y="237"/>
      <point x="114" y="229" type="curve" smooth="yes"/>
      <point x="111" y="219"/>
      <point x="117" y="210"/>
      <point x="130" y="210" type="curve" smooth="yes"/>
      <point x="142" y="210"/>
      <point x="161" y="220"/>
    </contour>
  </outline>
</glyph>
<glyph name="dollar" format="1">
  <advance width="449"/>
  <unicode hex="0024"/>
  <outline>
    <contour>
      <point x="240" y="0" type="curve" smooth="yes"/>
      <point x="326" y="0"/>
      <point x="405" y="52"/>
      <point x="427" y="134" type="curve" smooth="yes"/>
      <point x="445" y="212"/>
      <point x="421" y="274"/>
      <point x="320" y="327" type="curve" smooth="yes"/>
      <point x="232" y="366"/>
      <point x="209" y="421"/>
      <point x="226" y="488" type="curve" smooth="yes"/>
      <point x="251" y="581"/>
      <point x="335" y="635"/>
      <point x="420" y="635" type="curve" smooth="yes"/>
      <point x="477" y="635"/>
      <point x="506" y="593"/>
      <point x="492" y="537" type="curve" smooth="yes"/>
      <point x="485" y="511" type="line" smooth="yes"/>
      <point x="480" y="496"/>
      <point x="489" y="485"/>
      <point x="500" y="485" type="curve" smooth="yes"/>
      <point x="510" y="485"/>
      <point x="520" y="492"/>
      <point x="526" y="510" type="curve" smooth="yes"/>
      <point x="543" y="571"/>
      <point x="489" y="629"/>
      <point x="413" y="629" type="curve" smooth="yes"/>
      <point x="309" y="629"/>
      <point x="215" y="571"/>
      <point x="191" y="477" type="curve" smooth="yes"/>
      <point x="171" y="400"/>
      <point x="201" y="336"/>
      <point x="310" y="290" type="curve" smooth="yes"/>
      <point x="399" y="251"/>
      <point x="424" y="195"/>
      <point x="405" y="129" type="curve" smooth="yes"/>
      <point x="383" y="47"/>
      <point x="316" y="-1"/>
      <point x="237" y="-1" type="curve" smooth="yes"/>
      <point x="160" y="-1"/>
      <point x="124" y="45"/>
      <point x="141" y="102" type="curve" smooth="yes"/>
      <point x="148" y="128" type="line" smooth="yes"/>
      <point x="152" y="146"/>
      <point x="145" y="159"/>
      <point x="134" y="159" type="curve" smooth="yes"/>
      <point x="121" y="159"/>
      <point x="107" y="150"/>
      <point x="101" y="129" type="curve" smooth="yes"/>
      <point x="84" y="69"/>
      <point x="138" y="0"/>
    </contour>
    <contour>
      <point x="314" y="318" type="line"/>
      <point x="240" y="44"/>
      <point x="215" y="-6"/>
      <point x="208" y="-34" type="curve" smooth="yes"/>
      <point x="202" y="-54"/>
      <point x="211" y="-62"/>
      <point x="220" y="-62" type="curve" smooth="yes"/>
      <point x="231" y="-62"/>
      <point x="240" y="-55"/>
      <point x="246" y="-40" type="curve" smooth="yes"/>
      <point x="254" y="-13"/>
      <point x="254" y="38"/>
      <point x="330" y="318" type="curve"/>
    </contour>
    <contour>
      <point x="329" y="320" type="line"/>
      <point x="402" y="596"/>
      <point x="424" y="640"/>
      <point x="433" y="670" type="curve" smooth="yes"/>
      <point x="440" y="689"/>
      <point x="429" y="696"/>
      <point x="422" y="696" type="curve" smooth="yes"/>
      <point x="412" y="696"/>
      <point x="403" y="689"/>
      <point x="399" y="672" type="curve" smooth="yes"/>
      <point x="391" y="649"/>
      <point x="389" y="600"/>
      <point x="314" y="320" type="curve"/>
    </contour>
  </outline>
</glyph>
<glyph name="ampersand" format="2">
  <advance width="1022"/>
  <unicode hex="0026"/>
  <outline>
    <contour>
      <point x="372.0" y="300.0" type="line" smooth="yes"/>
      <point x="128.0" y="84.0"/>
      <point x="-12.0" y="-118.0"/>
      <point x="-12.0" y="-360.0" type="curve" smooth="yes"/>
      <point x="-12.0" y="-440.0"/>
      <point x="16.0" y="-490.0"/>
      <point x="56.0" y="-490.0" type="curve" smooth="yes"/>
      <point x="68.0" y="-490.0"/>
      <point x="76.0" y="-476.0"/>
      <point x="76.0" y="-458.0" type="curve" smooth="yes"/>
      <point x="76.0" y="-378.0"/>
      <point x="-32.0" y="-346.0"/>
      <point x="-32.0" y="-262.0" type="curve" smooth="yes"/>
      <point x="-32.0" y="-102.0"/>
      <point x="64.0" y="34.0"/>
      <point x="356.0" y="280.0" type="curve" smooth="yes"/>
      <point x="928.0" y="774.0" type="line" smooth="yes"/>
      <point x="1128.0" y="948.0"/>
      <point x="1250.0" y="1058.0"/>
      <point x="1250.0" y="1264.0" type="curve" smooth="yes"/>
      <point x="1250.0" y="1370.0"/>
      <point x="1198.0" y="1430.0"/>
      <point x="1146.0" y="1430.0" type="curve" smooth="yes"/>
      <point x="1148.0" y="1430.0"/>
      <point x="1148.0" y="1416.0"/>
      <point x="1148.0" y="1400.0" type="curve" smooth="yes"/>
      <point x="1148.0" y="1332.0"/>
      <point x="1240.0" y="1294.0"/>
      <point x="1240.0" y="1208.0" type="curve" smooth="yes"/>
      <point x="1240.0" y="1058.0"/>
      <point x="1138.0" y="966.0"/>
      <point x="944.0" y="800.0" type="curve" smooth="yes"/>
    </contour>
    <contour>
      <point x="1040.0" y="400.0" type="curve" smooth="yes"/>
      <point x="1040.0" y="218.0"/>
      <point x="890.0" y="26.0"/>
      <point x="644.0" y="26.0" type="curve" smooth="yes"/>
      <point x="472.0" y="26.0"/>
      <point x="354.0" y="178.0"/>
      <point x="354.0" y="410.0" type="curve" smooth="yes"/>
      <point x="354.0" y="640.0"/>
      <point x="530.0" y="816.0"/>
      <point x="684.0" y="816.0" type="curve" smooth="yes"/>
      <point x="806.0" y="816.0"/>
      <point x="856.0" y="746.0"/>
      <point x="856.0" y="658.0" type="curve" smooth="yes"/>
      <point x="856.0" y="724.0"/>
      <point x="786.0" y="648.0"/>
      <point x="782.0" y="644.0" type="curve" smooth="yes"/>
      <point x="814.0" y="668.0"/>
      <point x="834.0" y="696.0"/>
      <point x="876.0" y="696.0" type="curve" smooth="yes"/>
      <point x="900.0" y="696.0"/>
      <point x="914.0" y="706.0"/>
      <point x="914.0" y="722.0" type="curve" smooth="yes"/>
      <point x="914.0" y="802.0"/>
      <point x="866.0" y="866.0"/>
      <point x="798.0" y="866.0" type="curve" smooth="yes"/>
      <point x="548.0" y="866.0"/>
      <point x="328.0" y="582.0"/>
      <point x="328.0" y="314.0" type="curve" smooth="yes"/>
      <point x="328.0" y="110.0"/>
      <point x="434.0" y="-20.0"/>
      <point x="590.0" y="-20.0" type="curve" smooth="yes"/>
      <point x="808.0" y="-20.0"/>
      <point x="1050.0" y="268.0"/>
      <point x="1050.0" y="516.0" type="curve" smooth="yes"/>
      <point x="1050.0" y="556.0"/>
      <point x="1058.0" y="582.0"/>
      <point x="1030.0" y="582.0" type="curve" smooth="yes"/>
      <point x="1006.0" y="582.0"/>
      <point x="988.0" y="552.0"/>
      <point x="988.0" y="510.0" type="curve" smooth="yes"/>
      <point x="988.0" y="480.0"/>
      <point x="1040.0" y="454.0"/>
    </contour>
  </outline>
</glyph>
<glyph name="parenleft" format="1">
  <advance width="326"/>
  <unicode hex="0028"/>
  <outline>
    <contour>
      <point x="162" y="303" type="curve" smooth="yes"/>
      <point x="99" y="72"/>
      <point x="184" y="-113"/>
      <point x="316" y="-168" type="curve" smooth="yes"/>
      <point x="309" y="-165"/>
      <point x="299" y="-163"/>
      <point x="297" y="-163" type="curve" smooth="yes"/>
      <point x="294" y="-163"/>
      <point x="294" y="-165"/>
      <point x="294" y="-165" type="curve" smooth="yes"/>
      <point x="294" y="-166"/>
      <point x="294" y="-163"/>
      <point x="296" y="-165" type="curve" smooth="yes"/>
      <point x="163" y="-95"/>
      <point x="129" y="84"/>
      <point x="189" y="303" type="curve" smooth="yes"/>
      <point x="250" y="526"/>
      <point x="384" y="674"/>
      <point x="530" y="744" type="curve" smooth="yes"/>
      <point x="526" y="742"/>
      <point x="529" y="743"/>
      <point x="529" y="743" type="curve" smooth="yes"/>
      <point x="527" y="743"/>
      <point x="528" y="743"/>
      <point x="528" y="743" type="curve" smooth="yes"/>
      <point x="531" y="743"/>
      <point x="538" y="747"/>
      <point x="551" y="751" type="curve" smooth="yes"/>
      <point x="413" y="696"/>
      <point x="226" y="540"/>
    </contour>
  </outline>
</glyph>
<glyph name="asterisk" format="1">
  <advance width="414"/>
  <unicode hex="002A"/>
  <outline>
    <contour>
      <point x="353" y="535" type="line"/>
      <point x="376" y="626"/>
      <point x="405" y="649"/>
      <point x="415" y="688" type="curve" smooth="yes"/>
      <point x="421" y="710"/>
      <point x="412" y="719"/>
      <point x="399" y="719" type="curve" smooth="yes"/>
      <point x="388" y="719"/>
      <point x="374" y="708"/>
      <point x="367" y="688" type="curve" smooth="yes"/>
      <point x="356" y="649"/>
      <point x="374" y="629"/>
      <point x="349" y="535" type="curve"/>
    </contour>
    <contour>
      <point x="351" y="538" type="line"/>
      <point x="270" y="565"/>
      <point x="264" y="594"/>
      <point x="230" y="606" type="curve" smooth="yes"/>
      <point x="211" y="612"/>
      <point x="196" y="603"/>
      <point x="189" y="592" type="curve" smooth="yes"/>
      <point x="183" y="580"/>
      <point x="185" y="566"/>
      <point x="203" y="560" type="curve" smooth="yes"/>
      <point x="236" y="547"/>
      <point x="267" y="563"/>
      <point x="348" y="534" type="curve"/>
    </contour>
    <contour>
      <point x="346" y="537" type="line"/>
      <point x="274" y="462"/>
      <point x="240" y="457"/>
      <point x="210" y="425" type="curve" smooth="yes"/>
      <point x="191" y="408"/>
      <point x="193" y="392"/>
      <point x="201" y="386" type="curve" smooth="yes"/>
      <point x="207" y="379"/>
      <point x="223" y="381"/>
      <point x="241" y="397" type="curve" smooth="yes"/>
      <point x="274" y="428"/>
      <point x="274" y="458"/>
      <point x="350" y="535" type="curve"/>
    </contour>
    <contour>
      <point x="345" y="532" type="line"/>
      <point x="377" y="457"/>
      <point x="363" y="426"/>
      <point x="376" y="394" type="curve" smooth="yes"/>
      <point x="383" y="376"/>
      <point x="399" y="374"/>
      <point x="412" y="382" type="curve" smooth="yes"/>
      <point x="423" y="388"/>
      <point x="430" y="402"/>
      <point x="425" y="420" type="curve" smooth="yes"/>
      <point x="412" y="453"/>
      <point x="383" y="457"/>
      <point x="349" y="535" type="curve"/>
    </contour>
    <contour>
      <point x="349" y="531" type="line"/>
      <point x="444" y="560"/>
      <point x="469" y="546"/>
      <point x="509" y="558" type="curve" smooth="yes"/>
      <point x="530" y="565"/>
      <point x="540" y="579"/>
      <point x="540" y="592" type="curve" smooth="yes"/>
      <point x="539" y="602"/>
      <point x="527" y="609"/>
      <point x="506" y="604" type="curve" smooth="yes"/>
      <point x="466" y="593"/>
      <point x="447" y="564"/>
      <point x="348" y="535" type="curve"/>
    </contour>
  </outline>
</glyph>
<glyph name="plus" format="1">
  <advance width="499"/>
  <unicode hex="002B"/>
  <outline>
    <contour>
      <point x="147" y="304" type="curve" smooth="yes"/>
      <point x="147" y="295"/>
      <point x="153" y="289"/>
      <point x="163" y="289" type="curve" smooth="yes"/>
      <point x="202" y="289"/>
      <point x="260" y="311"/>
      <point x="337" y="311" type="curve" smooth="yes"/>
      <point x="408" y="311"/>
      <point x="459" y="289"/>
      <point x="494" y="289" type="curve" smooth="yes"/>
      <point x="505" y="289"/>
      <point x="513" y="295"/>
      <point x="514" y="303" type="curve" smooth="yes"/>
      <point x="516" y="312"/>
      <point x="511" y="319"/>
      <point x="500" y="319" type="curve" smooth="yes"/>
      <point x="466" y="319"/>
      <point x="404" y="297"/>
      <point x="332" y="297" type="curve" smooth="yes"/>
      <point x="254" y="297"/>
      <point x="208" y="319"/>
      <point x="170" y="319" type="curve" smooth="yes"/>
      <point x="160" y="319"/>
      <point x="149" y="315"/>
    </contour>
    <contour>
      <point x="287" y="119" type="curve" smooth="yes"/>
      <point x="296" y="119"/>
      <point x="300" y="127"/>
      <point x="302" y="135" type="curve" smooth="yes"/>
      <point x="312" y="176"/>
      <point x="309" y="227"/>
      <point x="328" y="305" type="curve" smooth="yes"/>
      <point x="346" y="378"/>
      <point x="385" y="433"/>
      <point x="395" y="469" type="curve" smooth="yes"/>
      <point x="396" y="480"/>
      <point x="392" y="486"/>
      <point x="382" y="486" type="curve" smooth="yes"/>
      <point x="374" y="486"/>
      <point x="368" y="479"/>
      <point x="366" y="469" type="curve" smooth="yes"/>
      <point x="357" y="432"/>
      <point x="359" y="379"/>
      <point x="342" y="305" type="curve" smooth="yes"/>
      <point x="322" y="226"/>
      <point x="283" y="175"/>
      <point x="273" y="136" type="curve" smooth="yes"/>
      <point x="272" y="128"/>
      <point x="276" y="119"/>
    </contour>
  </outline>
</glyph>
<glyph name="comma" format="2">
  <advance width="346"/>
  <unicode hex="002C"/>
  <outline>
    <contour>
      <point x="127" y="52" type="curve" smooth="yes"/>
      <point x="138.35696737609695" y="36.857376831870745"/>
      <point x="160.0" y="14.0"/>
      <point x="160" y="-9" type="curve" smooth="yes"/>
      <point x="160.0" y="-112.0"/>
      <point x="95" y="-236"/>
      <point x="11" y="-290" type="curve" smooth="yes"/>
      <point x="5" y="-294"/>
      <point x="6.0" y="-296.0"/>
      <point x="8" y="-298" type="curve" smooth="yes"/>
      <point x="9.237436867076458" y="-299.23743686707644"/>
      <point x="12" y="-300"/>
      <point x="15" y="-298" type="curve" smooth="yes"/>
      <point x="100" y="-242"/>
      <point x="180" y="-104"/>
      <point x="180" y="52" type="curve" smooth="yes"/>
      <point x="180" y="127"/>
      <point x="165" y="160"/>
      <point x="140" y="160" type="curve" smooth="yes"/>
      <point x="117" y="160"/>
      <point x="104" y="140"/>
      <point x="104" y="113" type="curve" smooth="yes"/>
      <point x="104.0" y="92.38028169014085"/>
      <point x="113.26301386860615" y="69.40018243309888"/>
    </contour>
  </outline>
</glyph>
<glyph name="hyphen" format="2">
  <advance width="333"/>
  <unicode hex="002D"/>
  <outline>
    <contour>
      <point x="359" y="246" type="curve" smooth="yes"/>
      <point x="130" y="246" type="line" smooth="yes"/>
      <point x="131" y="246"/>
      <point x="132" y="247"/>
      <point x="132" y="248" type="curve" smooth="yes"/>
      <point x="118" y="223" type="line" smooth="yes"/>
      <point x="117" y="222"/>
      <point x="117" y="220"/>
      <point x="117" y="219" type="curve" smooth="yes"/>
      <point x="117" y="220"/>
      <point x="116" y="221"/>
      <point x="115" y="221" type="curve" smooth="yes"/>
      <point x="340" y="221" type="line" smooth="yes"/>
      <point x="340" y="221"/>
      <point x="340" y="220"/>
      <point x="341" y="221" type="curve" smooth="yes"/>
      <point x="356" y="246" type="line" smooth="yes"/>
      <point x="357" y="248"/>
      <point x="356" y="247"/>
      <point x="356" y="248" type="curve" smooth="yes"/>
      <point x="356" y="247"/>
      <point x="358" y="246"/>
    </contour>
  </outline>
</glyph>
<glyph name="period" format="1">
  <advance width="212"/>
  <unicode hex="002E"/>
  <outline>
    <contour>
      <point x="116" y="-10" type="curve" smooth="yes"/>
      <point x="122" y="-10"/>
      <point x="155" y="48"/>
      <point x="155" y="98" type="curve" smooth="yes"/>
      <point x="155" y="107"/>
      <point x="156" y="114"/>
      <point x="154" y="114" type="curve" smooth="yes"/>
      <point x="149" y="114"/>
      <point x="115" y="48"/>
      <point x="115" y="6" type="curve" smooth="yes"/>
      <point x="115" y="-3"/>
      <point x="113" y="-10"/>
    </contour>
  </outline>
</glyph>
<glyph name="slash" format="2">
  <advance width="634"/>
  <unicode hex="002F"/>
  <outline>
    <contour>
      <point x="396" y="604" type="curve" smooth="yes"/>
      <point x="508" y="781"/>
      <point x="782" y="1195"/>
      <point x="921" y="1414" type="curve" smooth="yes"/>
      <point x="930" y="1431"/>
      <point x="931" y="1443"/>
      <point x="919" y="1448" type="curve" smooth="yes"/>
      <point x="906" y="1453"/>
      <point x="894" y="1445"/>
      <point x="883" y="1430" type="curve" smooth="yes"/>
      <point x="766" y="1244"/>
      <point x="499" y="803"/>
      <point x="378" y="611" type="curve" smooth="yes"/>
      <point x="259" y="423"/>
      <point x="-22" y="-4"/>
      <point x="-138" y="-187" type="curve" smooth="yes"/>
      <point x="-148" y="-204"/>
      <point x="-148" y="-216"/>
      <point x="-136" y="-221" type="curve" smooth="yes"/>
      <point x="-124" y="-226"/>
      <point x="-111" y="-218"/>
      <point x="-100" y="-203" type="curve" smooth="yes"/>
      <point x="35" y="13"/>
      <point x="284" y="427"/>
    </contour>
  </outline>
</glyph>
<glyph name="zero" format="2">
  <advance width="1032"/>
  <unicode hex="0030"/>
  <outline>
    <contour>
      <point x="872.0" y="1286.0" type="curve" smooth="yes"/>
      <point x="614.0" y="1286.0"/>
      <point x="398.0" y="1030.0"/>
      <point x="290.0" y="628.0" type="curve" smooth="yes"/>
      <point x="180.0" y="214.0"/>
      <point x="280.0" y="-20.0"/>
      <point x="524.0" y="-20.0" type="curve" smooth="yes"/>
      <point x="778.0" y="-20.0"/>
      <point x="1010.0" y="218.0"/>
      <point x="1128.0" y="658.0" type="curve" smooth="yes"/>
      <point x="1232.0" y="1046.0"/>
      <point x="1114.0" y="1286.0"/>
    </contour>
    <contour>
      <point x="1032.0" y="596.0" type="curve" smooth="yes"/>
      <point x="916.0" y="162.0"/>
      <point x="732.0" y="-8.0"/>
      <point x="552.0" y="-8.0" type="curve" smooth="yes"/>
      <point x="284.0" y="-8.0"/>
      <point x="248.0" y="192.0"/>
      <point x="378.0" y="676.0" type="curve" smooth="yes"/>
      <point x="474.0" y="1040.0"/>
      <point x="642.0" y="1274.0"/>
      <point x="854.0" y="1274.0" type="curve" smooth="yes"/>
      <point x="1108.0" y="1274.0"/>
      <point x="1160.0" y="1070.0"/>
    </contour>
  </outline>
</glyph>
<glyph name="one" format="2">
  <advance width="365"/>
  <unicode hex="0031"/>
  <outline>
    <contour>
      <point x="229" y="577" type="line" smooth="yes"/>
      <point x="223" y="577"/>
      <point x="221" y="580"/>
      <point x="221" y="582" type="curve" smooth="yes"/>
      <point x="222" y="585"/>
      <point x="227" y="588"/>
      <point x="233" y="588" type="curve" smooth="yes"/>
      <point x="289" y="588" type="line" smooth="yes"/>
      <point x="323" y="588"/>
      <point x="341" y="604"/>
      <point x="373" y="635" type="curve" smooth="yes"/>
      <point x="376" y="642"/>
      <point x="380" y="644"/>
      <point x="384" y="644" type="curve" smooth="yes"/>
      <point x="387" y="644"/>
      <point x="387" y="641"/>
      <point x="386" y="636" type="curve" smooth="yes"/>
      <point x="226" y="39" type="line" smooth="yes"/>
      <point x="222" y="26"/>
      <point x="237" y="17"/>
      <point x="259" y="15" type="curve" smooth="yes"/>
      <point x="355" y="2" type="line" smooth="yes"/>
      <point x="358" y="2"/>
      <point x="358" y="1"/>
      <point x="358" y="1" type="curve" smooth="yes"/>
      <point x="359" y="0"/>
      <point x="357" y="0"/>
      <point x="354" y="0" type="curve" smooth="yes"/>
      <point x="40" y="0" type="line" smooth="yes"/>
      <point x="36" y="0"/>
      <point x="34" y="1"/>
      <point x="34" y="2" type="curve" smooth="yes"/>
      <point x="35" y="4"/>
      <point x="38" y="6"/>
      <point x="43" y="5" type="curve" smooth="yes"/>
      <point x="141" y="15" type="line" smooth="yes"/>
      <point x="168" y="17"/>
      <point x="192" y="24"/>
      <point x="197" y="39" type="curve" smooth="yes"/>
      <point x="325" y="520" type="line" smooth="yes"/>
      <point x="336" y="560"/>
      <point x="323" y="577"/>
      <point x="295" y="577" type="curve" smooth="yes"/>
    </contour>
  </outline>
</glyph>
<glyph name="two" format="2">
  <advance width="901"/>
  <unicode hex="0032"/>
  <outline>
    <contour>
      <point x="456" y="553" type="curve" smooth="yes"/>
      <point x="139" y="381"/>
      <point x="36" y="237"/>
      <point x="-15" y="47" type="curve" smooth="yes"/>
      <point x="-25" y="10"/>
      <point x="-18" y="-8"/>
      <point x="5" y="-8" type="curve" smooth="yes"/>
      <point x="23" y="-8"/>
      <point x="43" y="10"/>
      <point x="51" y="42" type="curve" smooth="yes"/>
      <point x="56" y="59"/>
      <point x="61" y="77"/>
      <point x="65" y="95" type="curve" smooth="yes"/>
      <point x="79" y="145"/>
      <point x="120" y="182"/>
      <point x="180" y="182" type="curve" smooth="yes"/>
      <point x="217" y="182"/>
      <point x="261" y="166"/>
      <point x="321" y="115" type="curve" smooth="yes"/>
      <point x="423" y="28"/>
      <point x="511" y="-13"/>
      <point x="583" y="-13" type="curve" smooth="yes"/>
      <point x="678" y="-13"/>
      <point x="754" y="34"/>
      <point x="843" y="191" type="curve" smooth="yes"/>
      <point x="845" y="193"/>
      <point x="845" y="195"/>
      <point x="843" y="196" type="curve" smooth="yes"/>
      <point x="841" y="197"/>
      <point x="840" y="197"/>
      <point x="836" y="192" type="curve" smooth="yes"/>
      <point x="771" y="75"/>
      <point x="715" y="43"/>
      <point x="624" y="43" type="curve" smooth="yes"/>
      <point x="478" y="43"/>
      <point x="325" y="192"/>
      <point x="183" y="192" type="curve" smooth="yes"/>
      <point x="87" y="192"/>
      <point x="19" y="139"/>
      <point x="-1" y="63" type="curve"/>
      <point x="2" y="64" type="line"/>
      <point x="59" y="242"/>
      <point x="156" y="381"/>
      <point x="460" y="542" type="curve" smooth="yes"/>
      <point x="798" y="721"/>
      <point x="928" y="853"/>
      <point x="986" y="1070" type="curve" smooth="yes"/>
      <point x="1037" y="1263"/>
      <point x="941" y="1412"/>
      <point x="720" y="1412" type="curve" smooth="yes"/>
      <point x="513" y="1412"/>
      <point x="323" y="1254"/>
      <point x="278" y="1087" type="curve" smooth="yes"/>
      <point x="268" y="1049"/>
      <point x="276" y="1029"/>
      <point x="298" y="1029" type="curve" smooth="yes"/>
      <point x="326" y="1029"/>
      <point x="346" y="1050"/>
      <point x="353" y="1074" type="curve" smooth="yes"/>
      <point x="374" y="1152" type="line" smooth="yes"/>
      <point x="409" y="1285"/>
      <point x="533" y="1400"/>
      <point x="714" y="1400" type="curve" smooth="yes"/>
      <point x="872" y="1400"/>
      <point x="981" y="1283"/>
      <point x="921" y="1061" type="curve" smooth="yes"/>
      <point x="864" y="847"/>
      <point x="757" y="717"/>
    </contour>
  </outline>
</glyph>
<glyph name="three" format="1">
  <advance width="435"/>
  <unicode hex="0033"/>
  <outline>
    <contour>
      <point x="249" y="324" type="line"/>
      <point x="550" y="614" type="line" smooth="yes"/>
      <point x="558" y="622"/>
      <point x="564" y="624"/>
      <point x="565" y="630" type="curve" smooth="yes"/>
      <point x="564" y="629"/>
      <point x="560" y="629"/>
      <point x="568" y="629" type="curve" smooth="yes"/>
      <point x="238" y="629" type="line" smooth="yes"/>
      <point x="244" y="629"/>
      <point x="247" y="626"/>
      <point x="245" y="623" type="curve" smooth="yes"/>
      <point x="201" y="525" type="line" smooth="yes"/>
      <point x="195" y="516"/>
      <point x="196" y="513"/>
      <point x="194" y="513" type="curve" smooth="yes"/>
      <point x="196" y="513"/>
      <point x="200" y="515"/>
      <point x="199" y="516" type="curve" smooth="yes"/>
      <point x="246" y="578" type="line" smooth="yes"/>
      <point x="257" y="593"/>
      <point x="266" y="599"/>
      <point x="277" y="599" type="curve" smooth="yes"/>
      <point x="509" y="599" type="line"/>
      <point x="509" y="586" type="line"/>
      <point x="244" y="326" type="line" smooth="yes"/>
      <point x="247" y="328"/>
      <point x="251" y="330"/>
      <point x="251" y="333" type="curve" smooth="yes"/>
      <point x="250" y="331"/>
      <point x="250" y="329"/>
      <point x="253" y="329" type="curve" smooth="yes"/>
      <point x="283" y="329" type="line" smooth="yes"/>
      <point x="388" y="329"/>
      <point x="441" y="269"/>
      <point x="408" y="143" type="curve" smooth="yes"/>
      <point x="386" y="61"/>
      <point x="312" y="-4"/>
      <point x="229" y="-5" type="curve" smooth="yes"/>
      <point x="151" y="-6"/>
      <point x="118" y="37"/>
      <point x="132" y="89" type="curve" smooth="yes"/>
      <point x="137" y="106" type="line" smooth="yes"/>
      <point x="143" y="127"/>
      <point x="132" y="143"/>
      <point x="112" y="143" type="curve" smooth="yes"/>
      <point x="98" y="143"/>
      <point x="82" y="130"/>
      <point x="77" y="113" type="curve" smooth="yes"/>
      <point x="59" y="45"/>
      <point x="93" y="-10"/>
      <point x="194" y="-10" type="curve" smooth="yes"/>
      <point x="297" y="-10"/>
      <point x="411" y="71"/>
      <point x="439" y="176" type="curve" smooth="yes"/>
      <point x="469" y="285"/>
      <point x="408" y="331"/>
      <point x="295" y="331" type="curve" smooth="yes"/>
      <point x="288" y="331"/>
      <point x="273" y="331"/>
      <point x="264" y="331" type="curve"/>
    </contour>
  </outline>
</glyph>
<glyph name="four" format="1">
  <advance width="428"/>
  <unicode hex="0034"/>
  <outline>
    <contour>
      <point x="354" y="359" type="curve" smooth="yes"/>
      <point x="272" y="49" type="line" smooth="yes"/>
      <point x="265" y="22"/>
      <point x="248" y="3"/>
      <point x="222" y="2" type="curve" smooth="yes"/>
      <point x="148" y="-4" type="line" smooth="yes"/>
      <point x="150" y="-1"/>
      <point x="152" y="-5"/>
      <point x="153" y="-4" type="curve" smooth="yes"/>
      <point x="154" y="-1"/>
      <point x="154" y="0"/>
      <point x="160" y="0" type="curve" smooth="yes"/>
      <point x="381" y="0" type="line" smooth="yes"/>
      <point x="387" y="0"/>
      <point x="388" y="-1"/>
      <point x="387" y="-4" type="curve" smooth="yes"/>
      <point x="386" y="-5"/>
      <point x="385" y="-7"/>
      <point x="382" y="-7" type="curve" smooth="yes"/>
      <point x="334" y="0" type="line" smooth="yes"/>
      <point x="310" y="2"/>
      <point x="301" y="19"/>
      <point x="309" y="46" type="curve" smooth="yes"/>
      <point x="413" y="435" type="line" smooth="yes"/>
      <point x="411" y="430"/>
      <point x="412" y="427"/>
      <point x="413" y="427" type="curve" smooth="yes"/>
      <point x="414" y="427"/>
      <point x="414" y="427"/>
      <point x="415" y="424" type="curve" smooth="yes"/>
      <point x="357" y="363" type="line" smooth="yes"/>
      <point x="356" y="359"/>
      <point x="354" y="356"/>
    </contour>
    <contour>
      <point x="325" y="450" type="curve" smooth="yes"/>
      <point x="42" y="163" type="line" smooth="yes"/>
      <point x="38" y="156"/>
      <point x="53" y="161"/>
      <point x="55" y="166" type="curve" smooth="yes"/>
      <point x="55" y="168"/>
      <point x="56" y="169"/>
      <point x="55" y="169" type="curve" smooth="yes"/>
      <point x="437" y="169" type="line" smooth="yes"/>
      <point x="437" y="169"/>
      <point x="441" y="172"/>
      <point x="440" y="173" type="curve" smooth="yes"/>
      <point x="438" y="171"/>
      <point x="444" y="170"/>
      <point x="447" y="170" type="curve" smooth="yes"/>
      <point x="46" y="170" type="line"/>
      <point x="57" y="161" type="line"/>
      <point x="391" y="512" type="line" smooth="yes"/>
      <point x="412" y="540"/>
      <point x="415" y="557"/>
      <point x="424" y="591" type="curve" smooth="yes"/>
      <point x="431" y="620"/>
      <point x="423" y="638"/>
      <point x="403" y="638" type="curve" smooth="yes"/>
      <point x="380" y="638"/>
      <point x="361" y="626"/>
      <point x="357" y="607" type="curve" smooth="yes"/>
      <point x="347" y="571"/>
      <point x="372" y="558"/>
      <point x="362" y="523" type="curve" smooth="yes"/>
      <point x="351" y="481"/>
      <point x="338" y="467"/>
    </contour>
  </outline>
</glyph>
<glyph name="five" format="2">
  <advance width="441"/>
  <unicode hex="0035"/>
  <outline>
    <contour>
      <point x="100" y="85" type="curve" smooth="yes"/>
      <point x="100" y="31"/>
      <point x="145" y="-11"/>
      <point x="219" y="-11" type="curve" smooth="yes"/>
      <point x="355" y="-11"/>
      <point x="470" y="118"/>
      <point x="474" y="258" type="curve" smooth="yes"/>
      <point x="473" y="334"/>
      <point x="429" y="379"/>
      <point x="362" y="379" type="curve" smooth="yes"/>
      <point x="294" y="379"/>
      <point x="219" y="342"/>
      <point x="158" y="274" type="curve"/>
      <point x="162" y="276" type="line"/>
      <point x="245" y="577" type="line"/>
      <point x="242" y="603" type="line"/>
      <point x="282" y="561"/>
      <point x="334" y="534"/>
      <point x="399" y="530" type="curve" smooth="yes"/>
      <point x="486" y="524"/>
      <point x="550" y="573"/>
      <point x="571" y="656" type="curve" smooth="yes"/>
      <point x="569" y="647"/>
      <point x="573" y="643"/>
      <point x="577" y="643" type="curve" smooth="yes"/>
      <point x="578" y="643"/>
      <point x="578" y="642"/>
      <point x="578" y="640" type="curve" smooth="yes"/>
      <point x="550" y="591"/>
      <point x="498" y="560"/>
      <point x="424" y="560" type="curve" smooth="yes"/>
      <point x="336" y="560"/>
      <point x="281" y="642"/>
      <point x="262" y="642" type="curve" smooth="yes"/>
      <point x="253" y="642"/>
      <point x="248" y="634"/>
      <point x="244" y="621" type="curve" smooth="yes"/>
      <point x="147" y="244" type="line" smooth="yes"/>
      <point x="149" y="251"/>
      <point x="144" y="255"/>
      <point x="143" y="255" type="curve" smooth="yes"/>
      <point x="145" y="255"/>
      <point x="145" y="258"/>
      <point x="148" y="263" type="curve" smooth="yes"/>
      <point x="228" y="340"/>
      <point x="289" y="366"/>
      <point x="343" y="366" type="curve" smooth="yes"/>
      <point x="401" y="366"/>
      <point x="433" y="325"/>
      <point x="430" y="242" type="curve" smooth="yes"/>
      <point x="427" y="112"/>
      <point x="333" y="3"/>
      <point x="232" y="3" type="curve" smooth="yes"/>
      <point x="166" y="3"/>
      <point x="146" y="32"/>
      <point x="156" y="84" type="curve" smooth="yes"/>
      <point x="163" y="115" type="line" smooth="yes"/>
      <point x="167" y="132"/>
      <point x="162" y="147"/>
      <point x="145" y="147" type="curve" smooth="yes"/>
      <point x="112" y="147"/>
      <point x="98" y="115"/>
    </contour>
  </outline>
</glyph>
<glyph name="six" format="2">
  <advance width="455"/>
  <unicode hex="0036"/>
  <outline>
    <contour>
      <point x="463" y="643" type="curve" smooth="yes"/>
      <point x="275" y="643"/>
      <point x="119" y="397"/>
      <point x="119" y="159" type="curve" smooth="yes"/>
      <point x="119" y="47"/>
      <point x="180" y="-10"/>
      <point x="254" y="-10" type="curve" smooth="yes"/>
      <point x="376" y="-10"/>
      <point x="496" y="128"/>
      <point x="496" y="258" type="curve" smooth="yes"/>
      <point x="496" y="345"/>
      <point x="450" y="387"/>
      <point x="371" y="387" type="curve" smooth="yes"/>
      <point x="269" y="387"/>
      <point x="169" y="311"/>
      <point x="144" y="178" type="curve"/>
      <point x="157" y="171" type="line"/>
      <point x="183" y="302"/>
      <point x="292" y="386"/>
      <point x="378" y="386" type="curve" smooth="yes"/>
      <point x="428" y="386"/>
      <point x="453" y="343"/>
      <point x="453" y="256" type="curve" smooth="yes"/>
      <point x="453" y="124"/>
      <point x="355" y="-5"/>
      <point x="259" y="-5" type="curve" smooth="yes"/>
      <point x="194" y="-5"/>
      <point x="157" y="44"/>
      <point x="157" y="151" type="curve" smooth="yes"/>
      <point x="157" y="365"/>
      <point x="297" y="645"/>
      <point x="444" y="645" type="curve" smooth="yes"/>
      <point x="510" y="645"/>
      <point x="527" y="614"/>
      <point x="514" y="554" type="curve" smooth="yes"/>
      <point x="507" y="524" type="line" smooth="yes"/>
      <point x="500" y="509"/>
      <point x="506" y="503"/>
      <point x="517" y="503" type="curve" smooth="yes"/>
      <point x="548" y="503"/>
      <point x="562" y="533"/>
      <point x="562" y="564" type="curve" smooth="yes"/>
      <point x="562" y="606"/>
      <point x="527" y="643"/>
    </contour>
  </outline>
</glyph>
<glyph name="eight" format="2">
  <advance width="899"/>
  <unicode hex="0038"/>
  <outline>
    <contour>
      <point x="353" y="-22" type="curve" smooth="yes"/>
      <point x="554" y="-22"/>
      <point x="745" y="112"/>
      <point x="799" y="315" type="curve" smooth="yes"/>
      <point x="834" y="446"/>
      <point x="771" y="583"/>
      <point x="549" y="683" type="curve" smooth="yes"/>
      <point x="344" y="776"/>
      <point x="273" y="906"/>
      <point x="323" y="1094" type="curve" smooth="yes"/>
      <point x="374" y="1283"/>
      <point x="555" y="1410"/>
      <point x="749" y="1410" type="curve" smooth="yes"/>
      <point x="952" y="1410"/>
      <point x="1036" y="1246"/>
      <point x="984" y="1051" type="curve" smooth="yes"/>
      <point x="926" y="836"/>
      <point x="759" y="692"/>
      <point x="593" y="645" type="curve"/>
      <point x="592" y="637" type="line"/>
      <point x="780" y="681"/>
      <point x="975" y="848"/>
      <point x="1029" y="1049" type="curve" smooth="yes"/>
      <point x="1089" y="1271"/>
      <point x="971" y="1420"/>
      <point x="751" y="1420" type="curve" smooth="yes"/>
      <point x="548" y="1420"/>
      <point x="332" y="1272"/>
      <point x="276" y="1063" type="curve" smooth="yes"/>
      <point x="222" y="862"/>
      <point x="295" y="728"/>
      <point x="511" y="629" type="curve" smooth="yes"/>
      <point x="723" y="531"/>
      <point x="780" y="412"/>
      <point x="746" y="287" type="curve" smooth="yes"/>
      <point x="692" y="86"/>
      <point x="541" y="-13"/>
      <point x="356" y="-13" type="curve" smooth="yes"/>
      <point x="167" y="-13"/>
      <point x="70" y="101"/>
      <point x="128" y="316" type="curve" smooth="yes"/>
      <point x="165" y="457"/>
      <point x="295" y="594"/>
      <point x="488" y="650" type="curve"/>
      <point x="489" y="659" type="line"/>
      <point x="238" y="584"/>
      <point x="108" y="437"/>
      <point x="74" y="311" type="curve" smooth="yes"/>
      <point x="22" y="114"/>
      <point x="140" y="-22"/>
    </contour>
  </outline>
</glyph>
<glyph name="question" format="1">
  <advance width="347"/>
  <unicode hex="003F"/>
  <outline>
    <contour>
      <point x="292" y="340" type="curve" smooth="yes"/>
      <point x="382" y="396"/>
      <point x="432" y="462"/>
      <point x="441" y="563" type="curve" smooth="yes"/>
      <point x="451" y="655"/>
      <point x="420" y="710"/>
      <point x="350" y="710" type="curve" smooth="yes"/>
      <point x="289" y="710"/>
      <point x="254" y="677"/>
      <point x="238" y="621" type="curve" smooth="yes"/>
      <point x="228" y="592" type="line" smooth="yes"/>
      <point x="221" y="574"/>
      <point x="208" y="561"/>
      <point x="192" y="561" type="curve" smooth="yes"/>
      <point x="181" y="561"/>
      <point x="174" y="566"/>
      <point x="174" y="578" type="curve" smooth="yes"/>
      <point x="174" y="626"/>
      <point x="280" y="710"/>
      <point x="368" y="710" type="curve" smooth="yes"/>
      <point x="457" y="710"/>
      <point x="496" y="661"/>
      <point x="485" y="565" type="curve" smooth="yes"/>
      <point x="473" y="474"/>
      <point x="419" y="419"/>
      <point x="324" y="361" type="curve" smooth="yes"/>
      <point x="211" y="294"/>
      <point x="186" y="238"/>
      <point x="177" y="168" type="curve" smooth="yes"/>
      <point x="178" y="170"/>
      <point x="179" y="174"/>
      <point x="185" y="174" type="curve" smooth="yes"/>
      <point x="187" y="174"/>
      <point x="188" y="180"/>
      <point x="188" y="194" type="curve" smooth="yes"/>
      <point x="188" y="242"/>
      <point x="218" y="292"/>
    </contour>
    <component base="period" xScale="0.9329999999999999" yScale="0.9329999999999999" xOffset="15" yOffset="2"/>
  </outline>
</glyph>
<glyph name="at" format="1">
  <advance width="707"/>
  <unicode hex="0040"/>
  <outline>
    <contour>
      <point x="311" y="176" type="curve" smooth="yes"/>
      <point x="315" y="343"/>
      <point x="403" y="463"/>
      <point x="515" y="463" type="curve" smooth="yes"/>
      <point x="534" y="463"/>
      <point x="553" y="456"/>
      <point x="552" y="426" type="curve" smooth="yes"/>
      <point x="553" y="324"/>
      <point x="447" y="101"/>
      <point x="360" y="101" type="curve" smooth="yes"/>
      <point x="326" y="101"/>
      <point x="309" y="132"/>
    </contour>
    <contour>
      <point x="535" y="95" type="curve" smooth="yes"/>
      <point x="521" y="95"/>
      <point x="517" y="108"/>
      <point x="517" y="127" type="curve" smooth="yes"/>
      <point x="517" y="169"/>
      <point x="546" y="318"/>
      <point x="562" y="420" type="curve" smooth="yes"/>
      <point x="563" y="428"/>
      <point x="579" y="449"/>
      <point x="579" y="452" type="curve" smooth="yes"/>
      <point x="579" y="460"/>
      <point x="565" y="470"/>
      <point x="537" y="470" type="curve" smooth="yes"/>
      <point x="407" y="470"/>
      <point x="290" y="327"/>
      <point x="284" y="181" type="curve" smooth="yes"/>
      <point x="281" y="113"/>
      <point x="309" y="84"/>
      <point x="343" y="84" type="curve" smooth="yes"/>
      <point x="386" y="84"/>
      <point x="461" y="143"/>
      <point x="527" y="296" type="curve"/>
      <point x="505" y="241" type="line"/>
      <point x="507" y="221"/>
      <point x="489" y="147"/>
      <point x="488" y="125" type="curve" smooth="yes"/>
      <point x="486" y="98"/>
      <point x="507" y="84"/>
      <point x="516" y="84" type="curve" smooth="yes"/>
      <point x="628" y="84"/>
      <point x="734" y="212"/>
      <point x="734" y="418" type="curve" smooth="yes"/>
      <point x="734" y="559"/>
      <point x="682" y="651"/>
      <point x="573" y="651" type="curve" smooth="yes"/>
      <point x="334" y="651"/>
      <point x="124" y="369"/>
      <point x="124" y="132" type="curve" smooth="yes"/>
      <point x="124" y="-20"/>
      <point x="193" y="-106"/>
      <point x="332" y="-106" type="curve" smooth="yes"/>
      <point x="449" y="-106"/>
      <point x="553" y="-63"/>
      <point x="653" y="35" type="curve" smooth="yes"/>
      <point x="674" y="55"/>
      <point x="657" y="65"/>
      <point x="637" y="45" type="curve" smooth="yes"/>
      <point x="550" y="-41"/>
      <point x="452" y="-96"/>
      <point x="341" y="-96" type="curve" smooth="yes"/>
      <point x="209" y="-96"/>
      <point x="139" y="-17"/>
      <point x="139" y="138" type="curve" smooth="yes"/>
      <point x="139" y="351"/>
      <point x="344" y="639"/>
      <point x="568" y="639" type="curve" smooth="yes"/>
      <point x="668" y="639"/>
      <point x="720" y="550"/>
      <point x="720" y="413" type="curve" smooth="yes"/>
      <point x="720" y="207"/>
      <point x="596" y="95"/>
    </contour>
  </outline>
</glyph>
<glyph name="A" format="1">
  <advance width="544"/>
  <unicode hex="0041"/>
  <outline>
    <contour>
      <point x="208" y="230" type="line"/>
      <point x="192" y="227" type="line"/>
      <point x="482" y="227" type="line"/>
      <point x="487" y="230" type="line"/>
    </contour>
    <contour>
      <point x="87" y="34" type="line" smooth="yes"/>
      <point x="78" y="15"/>
      <point x="54" y="-1"/>
      <point x="10" y="-8" type="curve" smooth="yes"/>
      <point x="5" y="1"/>
      <point x="2" y="-1"/>
      <point x="2" y="1" type="curve" smooth="yes"/>
      <point x="2" y="-1"/>
      <point x="6" y="0"/>
      <point x="16" y="0" type="curve" smooth="yes"/>
      <point x="152" y="0" type="line" smooth="yes"/>
      <point x="166" y="0"/>
      <point x="173" y="2"/>
      <point x="173" y="3" type="curve" smooth="yes"/>
      <point x="173" y="7"/>
      <point x="167" y="3"/>
      <point x="156" y="-1" type="curve" smooth="yes"/>
      <point x="114" y="8"/>
      <point x="107" y="15"/>
      <point x="107" y="32" type="curve" smooth="yes"/>
      <point x="107" y="49"/>
      <point x="111" y="62"/>
      <point x="129" y="92" type="curve" smooth="yes"/>
      <point x="328" y="411" type="line" smooth="yes"/>
      <point x="427" y="578"/>
      <point x="443" y="599"/>
      <point x="469" y="637" type="curve"/>
      <point x="474" y="637" type="line"/>
      <point x="467" y="402"/>
      <point x="460" y="216"/>
      <point x="442" y="34" type="curve" smooth="yes"/>
      <point x="440" y="17"/>
      <point x="420" y="7"/>
      <point x="399" y="4" type="curve" smooth="yes"/>
      <point x="344" y="-8" type="line" smooth="yes"/>
      <point x="346" y="-6"/>
      <point x="338" y="-4"/>
      <point x="338" y="-1" type="curve" smooth="yes"/>
      <point x="338" y="-4"/>
      <point x="339" y="0"/>
      <point x="347" y="0" type="curve" smooth="yes"/>
      <point x="528" y="0" type="line" smooth="yes"/>
      <point x="536" y="0"/>
      <point x="538" y="-2"/>
      <point x="538" y="-7" type="curve" smooth="yes"/>
      <point x="538" y="-4"/>
      <point x="540" y="-10"/>
      <point x="528" y="-9" type="curve" smooth="yes"/>
      <point x="495" y="3"/>
      <point x="482" y="3"/>
      <point x="482" y="7" type="curve" smooth="yes"/>
      <point x="484" y="217"/>
      <point x="487" y="400"/>
      <point x="507" y="688" type="curve" smooth="yes"/>
      <point x="509" y="710"/>
      <point x="520" y="721"/>
      <point x="545" y="728" type="curve" smooth="yes"/>
      <point x="548" y="726"/>
      <point x="552" y="726"/>
      <point x="552" y="722" type="curve" smooth="yes"/>
      <point x="552" y="717"/>
      <point x="557" y="712"/>
      <point x="571" y="712" type="curve" smooth="yes"/>
      <point x="511" y="712"/>
      <point x="457" y="640"/>
      <point x="334" y="429" type="curve" smooth="yes"/>
    </contour>
    <contour>
      <point x="631" y="766" type="move" name="center"/>
    </contour>
  </outline>
</glyph>
<glyph name="B" format="2">
  <advance width="497"/>
  <unicode hex="0042"/>
  <outline>
    <contour>
      <point x="248" y="663" type="curve" smooth="yes"/>
      <point x="253" y="683"/>
      <point x="261" y="696"/>
      <point x="318" y="696" type="curve" smooth="yes"/>
      <point x="419" y="696"/>
      <point x="474" y="634"/>
      <point x="474" y="556" type="curve" smooth="yes"/>
      <point x="474" y="438"/>
      <point x="391" y="335"/>
      <point x="249" y="335" type="curve" smooth="yes"/>
      <point x="158" y="335" type="line"/>
      <point x="158" y="331" type="line"/>
      <point x="248" y="331" type="line" smooth="yes"/>
      <point x="369" y="331"/>
      <point x="423" y="268"/>
      <point x="423" y="196" type="curve" smooth="yes"/>
      <point x="423" y="101"/>
      <point x="359" y="5"/>
      <point x="195" y="5" type="curve" smooth="yes"/>
      <point x="125" y="5"/>
      <point x="91" y="14"/>
      <point x="96" y="38" type="curve" smooth="yes"/>
      <point x="135" y="219"/>
      <point x="194" y="453"/>
    </contour>
    <contour>
      <point x="139" y="697" type="curve" smooth="yes"/>
      <point x="139" y="695"/>
      <point x="140" y="694"/>
      <point x="146" y="693" type="curve" smooth="yes"/>
      <point x="208" y="685" type="line" smooth="yes"/>
      <point x="215" y="684"/>
      <point x="222" y="679"/>
      <point x="220" y="668" type="curve" smooth="yes"/>
      <point x="179" y="482"/>
      <point x="113" y="214"/>
      <point x="66" y="36" type="curve" smooth="yes"/>
      <point x="62" y="21"/>
      <point x="56" y="14"/>
      <point x="43" y="13" type="curve" smooth="yes"/>
      <point x="-14" y="7" type="line" smooth="yes"/>
      <point x="-17" y="7"/>
      <point x="-20" y="6"/>
      <point x="-20" y="3" type="curve" smooth="yes"/>
      <point x="-20" y="1"/>
      <point x="-18" y="0"/>
      <point x="-15" y="0" type="curve" smooth="yes"/>
      <point x="179" y="0" type="line" smooth="yes"/>
      <point x="354" y="0"/>
      <point x="454" y="78"/>
      <point x="454" y="191" type="curve" smooth="yes"/>
      <point x="454" y="273"/>
      <point x="376" y="334"/>
      <point x="251" y="334" type="curve"/>
      <point x="262" y="333" type="line"/>
      <point x="373" y="333"/>
      <point x="503" y="414"/>
      <point x="503" y="550" type="curve" smooth="yes"/>
      <point x="503" y="635"/>
      <point x="441" y="700"/>
      <point x="327" y="700" type="curve" smooth="yes"/>
      <point x="143" y="700" type="line" smooth="yes"/>
      <point x="141" y="700"/>
      <point x="139" y="699"/>
    </contour>
  </outline>
</glyph>
<glyph name="C" format="1">
  <advance width="561"/>
  <unicode hex="0043"/>
  <outline>
    <contour>
      <point x="585" y="196" type="curve" smooth="yes"/>
      <point x="585" y="194"/>
      <point x="586" y="194"/>
      <point x="588" y="194" type="curve" smooth="yes"/>
      <point x="590" y="194"/>
      <point x="595" y="191"/>
      <point x="593" y="187" type="curve" smooth="yes"/>
      <point x="511" y="56"/>
      <point x="434" y="12"/>
      <point x="332" y="12" type="curve" smooth="yes"/>
      <point x="220" y="12"/>
      <point x="142" y="111"/>
      <point x="142" y="280" type="curve" smooth="yes"/>
      <point x="142" y="497"/>
      <point x="293" y="710"/>
      <point x="466" y="710" type="curve" smooth="yes"/>
      <point x="560" y="710"/>
      <point x="609" y="673"/>
      <point x="640" y="594" type="curve" smooth="yes"/>
      <point x="663" y="543" type="line" smooth="yes"/>
      <point x="664" y="545"/>
      <point x="661" y="544"/>
      <point x="657" y="544" type="curve" smooth="yes"/>
      <point x="656" y="544"/>
      <point x="654" y="541"/>
      <point x="655" y="534" type="curve" smooth="yes"/>
      <point x="658" y="713" type="line" smooth="yes"/>
      <point x="659" y="709"/>
      <point x="655" y="708"/>
      <point x="651" y="708" type="curve" smooth="yes"/>
      <point x="638" y="708"/>
      <point x="628" y="672"/>
      <point x="614" y="672" type="curve" smooth="yes"/>
      <point x="592" y="672"/>
      <point x="560" y="711"/>
      <point x="473" y="711" type="curve" smooth="yes"/>
      <point x="302" y="711"/>
      <point x="120" y="460"/>
      <point x="120" y="233" type="curve" smooth="yes"/>
      <point x="120" y="88"/>
      <point x="190" y="-10"/>
      <point x="296" y="-10" type="curve" smooth="yes"/>
      <point x="429" y="-10"/>
      <point x="523" y="80"/>
      <point x="581" y="184" type="curve" smooth="yes"/>
      <point x="585" y="189"/>
      <point x="585" y="193"/>
    </contour>
  </outline>
</glyph>
<glyph name="D" format="2">
  <advance width="1179"/>
  <unicode hex="0044"/>
  <outline>
    <contour>
      <point x="507" y="1355" type="line" smooth="yes"/>
      <point x="513.8670116568173" y="1383.0182879459246"/>
      <point x="526" y="1390"/>
      <point x="543" y="1390" type="curve" smooth="yes"/>
      <point x="696" y="1390" type="line" smooth="yes"/>
      <point x="964.8179871520342" y="1390"/>
      <point x="1177" y="1191"/>
      <point x="1123" y="768" type="curve" smooth="yes"/>
      <point x="1067" y="329"/>
      <point x="744" y="10.0"/>
      <point x="352" y="10" type="curve" smooth="yes"/>
      <point x="247" y="10" type="line" smooth="yes"/>
      <point x="202" y="10"/>
      <point x="183.5870648347348" y="35.433761328901895"/>
      <point x="195" y="82" type="curve" smooth="yes"/>
    </contour>
    <contour>
      <point x="139" y="80" type="line" smooth="yes"/>
      <point x="129" y="40"/>
      <point x="114" y="27"/>
      <point x="69" y="23" type="curve" smooth="yes"/>
      <point x="-23" y="14" type="line" smooth="yes"/>
      <point x="-32" y="13"/>
      <point x="-36" y="11"/>
      <point x="-36" y="7" type="curve" smooth="yes"/>
      <point x="-36" y="3"/>
      <point x="-33" y="0"/>
      <point x="-25" y="0" type="curve" smooth="yes"/>
      <point x="352" y="0" type="line" smooth="yes"/>
      <point x="795" y="0.0"/>
      <point x="1132" y="330"/>
      <point x="1184" y="764" type="curve" smooth="yes"/>
      <point x="1235" y="1185"/>
      <point x="1002.820415879017" y="1400"/>
      <point x="695" y="1400" type="curve" smooth="yes"/>
      <point x="291" y="1400" type="line" smooth="yes"/>
      <point x="284" y="1400"/>
      <point x="282" y="1398"/>
      <point x="282" y="1394" type="curve" smooth="yes"/>
      <point x="282" y="1389"/>
      <point x="286" y="1387"/>
      <point x="304" y="1385" type="curve" smooth="yes"/>
      <point x="407" y="1372" type="line" smooth="yes"/>
      <point x="443" y="1367"/>
      <point x="450" y="1357"/>
      <point x="442" y="1325" type="curve" smooth="yes"/>
    </contour>
  </outline>
</glyph>
<glyph name="E" format="1">
  <advance width="487"/>
  <unicode hex="0045"/>
  <outline>
    <contour>
      <point x="236" y="344" type="line"/>
      <point x="222" y="341" type="line"/>
      <point x="405" y="341" type="line" smooth="yes"/>
      <point x="434" y="341"/>
      <point x="463" y="320"/>
      <point x="476" y="276" type="curve" smooth="yes"/>
      <point x="471" y="270"/>
      <point x="472" y="269"/>
      <point x="468" y="269" type="curve" smooth="yes"/>
      <point x="470" y="269"/>
      <point x="470" y="271"/>
      <point x="469" y="277" type="curve" smooth="yes"/>
      <point x="437" y="427" type="line" smooth="yes"/>
      <point x="438" y="421"/>
      <point x="443" y="419"/>
      <point x="446" y="419" type="curve" smooth="yes"/>
      <point x="447" y="419"/>
      <point x="445" y="417"/>
      <point x="445" y="409" type="curve" smooth="yes"/>
      <point x="439" y="354"/>
      <point x="411" y="344"/>
      <point x="381" y="344" type="curve" smooth="yes"/>
    </contour>
    <contour>
      <point x="358" y="0" type="line" smooth="yes"/>
      <point x="378" y="0"/>
      <point x="387" y="-7"/>
      <point x="401" y="-7" type="curve" smooth="yes"/>
      <point x="439" y="-7"/>
      <point x="495" y="78"/>
      <point x="495" y="160" type="curve" smooth="yes"/>
      <point x="495" y="154"/>
      <point x="496" y="152"/>
      <point x="498" y="152" type="curve" smooth="yes"/>
      <point x="502" y="152"/>
      <point x="502" y="152"/>
      <point x="505" y="154" type="curve" smooth="yes"/>
      <point x="477" y="100" type="line" smooth="yes"/>
      <point x="451" y="34"/>
      <point x="403" y="3"/>
      <point x="297" y="3" type="curve" smooth="yes"/>
      <point x="208" y="3" type="line" smooth="yes"/>
      <point x="170" y="3"/>
      <point x="158" y="28"/>
      <point x="168" y="65" type="curve" smooth="yes"/>
      <point x="211" y="284"/>
      <point x="260" y="462"/>
      <point x="325" y="699" type="curve"/>
      <point x="494" y="699" type="line" smooth="yes"/>
      <point x="552" y="699"/>
      <point x="586" y="669"/>
      <point x="606" y="628" type="curve" smooth="yes"/>
      <point x="633" y="566" type="line" smooth="yes"/>
      <point x="635" y="564"/>
      <point x="631" y="570"/>
      <point x="629" y="570" type="curve" smooth="yes"/>
      <point x="628" y="570"/>
      <point x="626" y="569"/>
      <point x="626" y="571" type="curve" smooth="yes"/>
      <point x="618" y="713" type="line" smooth="yes"/>
      <point x="618" y="712"/>
      <point x="621" y="711"/>
      <point x="618" y="711" type="curve" smooth="yes"/>
      <point x="616" y="711"/>
      <point x="614" y="711"/>
      <point x="613" y="710" type="curve" smooth="yes"/>
      <point x="600" y="703"/>
      <point x="588" y="700"/>
      <point x="566" y="700" type="curve" smooth="yes"/>
      <point x="221" y="700" type="line" smooth="yes"/>
      <point x="217" y="700"/>
      <point x="210" y="703"/>
      <point x="210" y="704" type="curve" smooth="yes"/>
      <point x="210" y="704"/>
      <point x="211" y="708"/>
      <point x="221" y="705" type="curve" smooth="yes"/>
      <point x="264" y="696" type="line" smooth="yes"/>
      <point x="280" y="692"/>
      <point x="284" y="679"/>
      <point x="278" y="653" type="curve" smooth="yes"/>
      <point x="222" y="372"/>
      <point x="178" y="211"/>
      <point x="124" y="47" type="curve"/>
      <point x="118" y="25"/>
      <point x="104" y="13"/>
      <point x="81" y="9" type="curve" smooth="yes"/>
      <point x="42" y="3" type="line" smooth="yes"/>
      <point x="31" y="0"/>
      <point x="24" y="7"/>
      <point x="21" y="2" type="curve" smooth="yes"/>
      <point x="16" y="-2"/>
      <point x="17" y="0"/>
      <point x="26" y="0" type="curve" smooth="yes"/>
    </contour>
    <contour>
      <point x="483" y="734" type="move" name="center"/>
    </contour>
  </outline>
</glyph>
<glyph name="F" format="1">
  <advance width="472"/>
  <unicode hex="0046"/>
  <outline>
    <contour>
      <point x="213" y="704" type="curve" smooth="yes"/>
      <point x="208" y="701"/>
      <point x="219" y="704"/>
      <point x="233" y="704" type="curve" smooth="yes"/>
      <point x="274" y="698" type="line" smooth="yes"/>
      <point x="279" y="700"/>
      <point x="283" y="683"/>
      <point x="279" y="669" type="curve"/>
      <point x="240" y="455"/>
      <point x="187" y="246"/>
      <point x="122" y="50" type="curve"/>
      <point x="114" y="24"/>
      <point x="101" y="11"/>
      <point x="78" y="6" type="curve" smooth="yes"/>
      <point x="34" y="-2" type="line" smooth="yes"/>
      <point x="26" y="-4"/>
      <point x="26" y="-2"/>
      <point x="22" y="0" type="curve" smooth="yes"/>
      <point x="17" y="-1"/>
      <point x="22" y="0"/>
      <point x="27" y="0" type="curve" smooth="yes"/>
      <point x="221" y="0" type="line" smooth="yes"/>
      <point x="231" y="0"/>
      <point x="234" y="-1"/>
      <point x="234" y="-2" type="curve" smooth="yes"/>
      <point x="234" y="-1"/>
      <point x="229" y="-2"/>
      <point x="222" y="-2" type="curve" smooth="yes"/>
      <point x="171" y="2"/>
      <point x="159" y="17"/>
      <point x="167" y="54" type="curve"/>
      <point x="200" y="236"/>
      <point x="254" y="450"/>
      <point x="329" y="695" type="curve"/>
      <point x="482" y="695" type="line" smooth="yes"/>
      <point x="538" y="695"/>
      <point x="561" y="669"/>
      <point x="585" y="618" type="curve" smooth="yes"/>
      <point x="611" y="564" type="line" smooth="yes"/>
      <point x="613" y="569"/>
      <point x="610" y="569"/>
      <point x="609" y="569" type="curve" smooth="yes"/>
      <point x="608" y="569"/>
      <point x="604" y="568"/>
      <point x="605" y="567" type="curve" smooth="yes"/>
      <point x="597" y="719" type="line" smooth="yes"/>
      <point x="598" y="713"/>
      <point x="596" y="711"/>
      <point x="596" y="711" type="curve" smooth="yes"/>
      <point x="594" y="711"/>
      <point x="593" y="710"/>
      <point x="592" y="710" type="curve" smooth="yes"/>
      <point x="585" y="705"/>
      <point x="574" y="700"/>
      <point x="567" y="700" type="curve" smooth="yes"/>
      <point x="246" y="700" type="line" smooth="yes"/>
      <point x="227" y="700"/>
      <point x="218" y="702"/>
    </contour>
    <contour>
      <point x="254" y="325" type="line"/>
      <point x="246" y="323" type="line"/>
      <point x="412" y="323" type="line" smooth="yes"/>
      <point x="452" y="323"/>
      <point x="472" y="300"/>
      <point x="486" y="262" type="curve" smooth="yes"/>
      <point x="484" y="261"/>
      <point x="486" y="258"/>
      <point x="485" y="258" type="curve" smooth="yes"/>
      <point x="486" y="258"/>
      <point x="484" y="256"/>
      <point x="484" y="255" type="curve" smooth="yes"/>
      <point x="456" y="395" type="line" smooth="yes"/>
      <point x="455" y="396"/>
      <point x="456" y="397"/>
      <point x="458" y="397" type="curve" smooth="yes"/>
      <point x="458" y="397"/>
      <point x="459" y="396"/>
      <point x="460" y="394" type="curve" smooth="yes"/>
      <point x="449" y="346"/>
      <point x="436" y="325"/>
      <point x="397" y="325" type="curve" smooth="yes"/>
    </contour>
  </outline>
</glyph>
<glyph name="G" format="2">
  <advance width="615"/>
  <unicode hex="0047"/>
  <guideline x="493" y="-10" angle="0" identifier="8TRrO7yt0a"/>
  <anchor x="484" y="783" name="center"/>
  <outline>
    <contour>
      <point x="456" y="714" type="curve" smooth="yes"/>
      <point x="242" y="714"/>
      <point x="55" y="474"/>
      <point x="55" y="237" type="curve" smooth="yes"/>
      <point x="55" y="89"/>
      <point x="142" y="-10"/>
      <point x="277" y="-10" type="curve" smooth="yes"/>
      <point x="379" y="-10"/>
      <point x="428" y="50"/>
      <point x="448" y="50" type="curve" smooth="yes"/>
      <point x="454" y="50"/>
      <point x="460" y="-9"/>
      <point x="464" y="-9" type="curve" smooth="yes"/>
      <point x="466" y="-9"/>
      <point x="467" y="-8"/>
      <point x="468" y="-3" type="curve" smooth="yes"/>
      <point x="481" y="47"/>
      <point x="493" y="86"/>
      <point x="539" y="261" type="curve" smooth="yes"/>
      <point x="542" y="273"/>
      <point x="547" y="278"/>
      <point x="556" y="280" type="curve" smooth="yes"/>
      <point x="606" y="291" type="line" smooth="yes"/>
      <point x="611" y="292"/>
      <point x="612" y="293"/>
      <point x="612" y="295" type="curve" smooth="yes"/>
      <point x="612" y="296"/>
      <point x="611" y="297"/>
      <point x="609" y="297" type="curve" smooth="yes"/>
      <point x="434" y="297" type="line" smooth="yes"/>
      <point x="432" y="297"/>
      <point x="430" y="296"/>
      <point x="430" y="294" type="curve" smooth="yes"/>
      <point x="430" y="292"/>
      <point x="431" y="291"/>
      <point x="437" y="290" type="curve" smooth="yes"/>
      <point x="498" y="282" type="line" smooth="yes"/>
      <point x="515" y="280"/>
      <point x="511" y="267"/>
      <point x="498" y="206" type="curve" smooth="yes"/>
      <point x="467" y="61"/>
      <point x="391" y="-6"/>
      <point x="277" y="-6" type="curve" smooth="yes"/>
      <point x="149" y="-6"/>
      <point x="84" y="84"/>
      <point x="84" y="224" type="curve" smooth="yes"/>
      <point x="84" y="461"/>
      <point x="263" y="710"/>
      <point x="456" y="710" type="curve" smooth="yes"/>
      <point x="543" y="710"/>
      <point x="592" y="665"/>
      <point x="612" y="601" type="curve" smooth="yes"/>
      <point x="628" y="548" type="line" smooth="yes"/>
      <point x="629" y="544"/>
      <point x="630" y="543"/>
      <point x="631" y="543" type="curve" smooth="yes"/>
      <point x="632" y="543"/>
      <point x="632" y="544"/>
      <point x="632" y="546" type="curve" smooth="yes"/>
      <point x="637" y="694" type="line" smooth="yes"/>
      <point x="637" y="700"/>
      <point x="635" y="702"/>
      <point x="632" y="702" type="curve" smooth="yes"/>
      <point x="623" y="702"/>
      <point x="611" y="669"/>
      <point x="604" y="669" type="curve" smooth="yes"/>
      <point x="583" y="669"/>
      <point x="549" y="714"/>
    </contour>
  </outline>
</glyph>
<glyph name="H" format="2">
  <advance width="1218"/>
  <unicode hex="0048"/>
  <outline>
    <contour>
      <point x="320.0" y="674.0" type="line"/>
      <point x="318.0" y="666.0" type="line"/>
      <point x="1002.0" y="666.0" type="line"/>
      <point x="1006.0" y="674.0" type="line"/>
    </contour>
    <contour>
      <point x="192.0" y="78.0" type="curve" smooth="yes"/>
      <point x="268.0" y="420.0"/>
      <point x="402.0" y="960.0"/>
      <point x="496.0" y="1328.0" type="curve" smooth="yes"/>
      <point x="502.0" y="1354.0"/>
      <point x="514.0" y="1364.0"/>
      <point x="530.0" y="1366.0" type="curve" smooth="yes"/>
      <point x="660.0" y="1388.0" type="line" smooth="yes"/>
      <point x="670.0" y="1390.0"/>
      <point x="672.0" y="1392.0"/>
      <point x="672.0" y="1396.0" type="curve" smooth="yes"/>
      <point x="672.0" y="1398.0"/>
      <point x="670.0" y="1400.0"/>
      <point x="666.0" y="1400.0" type="curve" smooth="yes"/>
      <point x="286.0" y="1400.0" type="line" smooth="yes"/>
      <point x="282.0" y="1400.0"/>
      <point x="278.0" y="1398.0"/>
      <point x="278.0" y="1394.0" type="curve" smooth="yes"/>
      <point x="278.0" y="1390.0"/>
      <point x="280.0" y="1388.0"/>
      <point x="292.0" y="1386.0" type="curve" smooth="yes"/>
      <point x="416.0" y="1370.0" type="line" smooth="yes"/>
      <point x="430.0" y="1368.0"/>
      <point x="444.0" y="1358.0"/>
      <point x="440.0" y="1336.0" type="curve" smooth="yes"/>
      <point x="360.0" y="970.0"/>
      <point x="228.0" y="436.0"/>
      <point x="132.0" y="72.0" type="curve" smooth="yes"/>
      <point x="124.0" y="42.0"/>
      <point x="112.0" y="28.0"/>
      <point x="86.0" y="26.0" type="curve" smooth="yes"/>
      <point x="-28.0" y="14.0" type="line" smooth="yes"/>
      <point x="-34.0" y="14.0"/>
      <point x="-40.0" y="12.0"/>
      <point x="-40.0" y="6.0" type="curve" smooth="yes"/>
      <point x="-40.0" y="4.0"/>
      <point x="-36.0" y="0.0"/>
      <point x="-30.0" y="0.0" type="curve" smooth="yes"/>
      <point x="348.0" y="0.0" type="line" smooth="yes"/>
      <point x="352.0" y="0.0"/>
      <point x="354.0" y="2.0"/>
      <point x="354.0" y="6.0" type="curve" smooth="yes"/>
      <point x="354.0" y="10.0"/>
      <point x="350.0" y="12.0"/>
      <point x="346.0" y="12.0" type="curve" smooth="yes"/>
      <point x="214.0" y="24.0" type="line" smooth="yes"/>
      <point x="194.0" y="26.0"/>
      <point x="186.0" y="50.0"/>
    </contour>
    <contour>
      <point x="898.0" y="78.0" type="curve" smooth="yes"/>
      <point x="974.0" y="420.0"/>
      <point x="1108.0" y="960.0"/>
      <point x="1202.0" y="1328.0" type="curve" smooth="yes"/>
      <point x="1208.0" y="1354.0"/>
      <point x="1220.0" y="1364.0"/>
      <point x="1236.0" y="1366.0" type="curve" smooth="yes"/>
      <point x="1366.0" y="1388.0" type="line" smooth="yes"/>
      <point x="1376.0" y="1390.0"/>
      <point x="1378.0" y="1392.0"/>
      <point x="1378.0" y="1396.0" type="curve" smooth="yes"/>
      <point x="1378.0" y="1398.0"/>
      <point x="1376.0" y="1400.0"/>
      <point x="1372.0" y="1400.0" type="curve" smooth="yes"/>
      <point x="992.0" y="1400.0" type="line" smooth="yes"/>
      <point x="988.0" y="1400.0"/>
      <point x="984.0" y="1398.0"/>
      <point x="984.0" y="1394.0" type="curve" smooth="yes"/>
      <point x="984.0" y="1390.0"/>
      <point x="986.0" y="1388.0"/>
      <point x="998.0" y="1386.0" type="curve" smooth="yes"/>
      <point x="1122.0" y="1370.0" type="line" smooth="yes"/>
      <point x="1136.0" y="1368.0"/>
      <point x="1150.0" y="1358.0"/>
      <point x="1146.0" y="1336.0" type="curve" smooth="yes"/>
      <point x="1066.0" y="970.0"/>
      <point x="934.0" y="436.0"/>
      <point x="838.0" y="72.0" type="curve" smooth="yes"/>
      <point x="830.0" y="42.0"/>
      <point x="818.0" y="28.0"/>
      <point x="792.0" y="26.0" type="curve" smooth="yes"/>
      <point x="678.0" y="14.0" type="line" smooth="yes"/>
      <point x="672.0" y="14.0"/>
      <point x="666.0" y="12.0"/>
      <point x="666.0" y="6.0" type="curve" smooth="yes"/>
      <point x="666.0" y="4.0"/>
      <point x="670.0" y="0.0"/>
      <point x="676.0" y="0.0" type="curve" smooth="yes"/>
      <point x="1054.0" y="0.0" type="line" smooth="yes"/>
      <point x="1058.0" y="0.0"/>
      <point x="1060.0" y="2.0"/>
      <point x="1060.0" y="6.0" type="curve" smooth="yes"/>
      <point x="1060.0" y="10.0"/>
      <point x="1056.0" y="12.0"/>
      <point x="1052.0" y="12.0" type="curve" smooth="yes"/>
      <point x="920.0" y="24.0" type="line" smooth="yes"/>
      <point x="900.0" y="26.0"/>
      <point x="892.0" y="50.0"/>
    </contour>
  </outline>
</glyph>
<glyph name="I" format="2">
  <advance width="276"/>
  <unicode hex="0049"/>
  <outline>
    <contour>
      <point x="106" y="39" type="curve" smooth="yes"/>
      <point x="144" y="210"/>
      <point x="211" y="480"/>
      <point x="258" y="664" type="curve" smooth="yes"/>
      <point x="261" y="677"/>
      <point x="267" y="682"/>
      <point x="275" y="683" type="curve" smooth="yes"/>
      <point x="340" y="694" type="line" smooth="yes"/>
      <point x="345" y="695"/>
      <point x="346" y="696"/>
      <point x="346" y="698" type="curve" smooth="yes"/>
      <point x="346" y="699"/>
      <point x="345" y="700"/>
      <point x="343" y="700" type="curve" smooth="yes"/>
      <point x="153" y="700" type="line" smooth="yes"/>
      <point x="151" y="700"/>
      <point x="149" y="699"/>
      <point x="149" y="697" type="curve" smooth="yes"/>
      <point x="149" y="695"/>
      <point x="150" y="694"/>
      <point x="156" y="693" type="curve" smooth="yes"/>
      <point x="218" y="685" type="line" smooth="yes"/>
      <point x="225" y="684"/>
      <point x="232" y="679"/>
      <point x="230" y="668" type="curve" smooth="yes"/>
      <point x="190" y="485"/>
      <point x="124" y="218"/>
      <point x="76" y="36" type="curve" smooth="yes"/>
      <point x="72" y="21"/>
      <point x="66" y="14"/>
      <point x="53" y="13" type="curve" smooth="yes"/>
      <point x="-4" y="7" type="line" smooth="yes"/>
      <point x="-7" y="7"/>
      <point x="-10" y="6"/>
      <point x="-10" y="3" type="curve" smooth="yes"/>
      <point x="-10" y="2"/>
      <point x="-8" y="0"/>
      <point x="-5" y="0" type="curve" smooth="yes"/>
      <point x="184" y="0" type="line" smooth="yes"/>
      <point x="186" y="0"/>
      <point x="187" y="1"/>
      <point x="187" y="3" type="curve" smooth="yes"/>
      <point x="187" y="5"/>
      <point x="185" y="6"/>
      <point x="183" y="6" type="curve" smooth="yes"/>
      <point x="117" y="12" type="line" smooth="yes"/>
      <point x="107" y="13"/>
      <point x="103" y="25"/>
    </contour>
  </outline>
</glyph>
<glyph name="J" format="2">
  <advance width="536"/>
  <unicode hex="004A"/>
  <outline>
    <contour>
      <point x="538" y="1335" type="curve" smooth="yes"/>
      <point x="544" y="1360"/>
      <point x="551" y="1362"/>
      <point x="578" y="1367" type="curve" smooth="yes"/>
      <point x="700" y="1388" type="line" smooth="yes"/>
      <point x="708" y="1389"/>
      <point x="712" y="1392"/>
      <point x="712" y="1395" type="curve" smooth="yes"/>
      <point x="712" y="1399"/>
      <point x="710" y="1400"/>
      <point x="706" y="1400" type="curve" smooth="yes"/>
      <point x="328" y="1400" type="line" smooth="yes"/>
      <point x="323" y="1400"/>
      <point x="318" y="1398"/>
      <point x="318" y="1394" type="curve" smooth="yes"/>
      <point x="318" y="1388"/>
      <point x="324" y="1387"/>
      <point x="334" y="1386" type="curve" smooth="yes"/>
      <point x="446" y="1372" type="line" smooth="yes"/>
      <point x="474" y="1369"/>
      <point x="485" y="1356"/>
      <point x="480" y="1331" type="curve" smooth="yes"/>
      <point x="465" y="1255"/>
      <point x="172" y="58"/>
      <point x="151" y="-2" type="curve" smooth="yes"/>
      <point x="145" y="-18"/>
      <point x="139" y="-53"/>
      <point x="139" y="-76" type="curve" smooth="yes"/>
      <point x="139" y="-217"/>
      <point x="105" y="-254"/>
      <point x="63" y="-254" type="curve" smooth="yes"/>
      <point x="22" y="-254"/>
      <point x="-15" y="-221"/>
      <point x="-62" y="-221" type="curve" smooth="yes"/>
      <point x="-87" y="-221"/>
      <point x="-103" y="-235"/>
      <point x="-103" y="-258" type="curve" smooth="yes"/>
      <point x="-103" y="-284"/>
      <point x="-78" y="-304"/>
      <point x="-31" y="-304" type="curve" smooth="yes"/>
      <point x="81" y="-304"/>
      <point x="162" y="-236"/>
      <point x="201" y="-51" type="curve" smooth="yes"/>
      <point x="213" y="7"/>
      <point x="517" y="1249"/>
    </contour>
  </outline>
</glyph>
<glyph name="K" format="2">
  <advance width="1141"/>
  <unicode hex="004B"/>
  <outline>
    <contour>
      <point x="583" y="769" type="line"/>
      <point x="806" y="146" type="line" smooth="yes"/>
      <point x="850" y="22"/>
      <point x="900" y="-20"/>
      <point x="969" y="-20" type="curve" smooth="yes"/>
      <point x="1020" y="-20"/>
      <point x="1062" y="12"/>
      <point x="1080" y="75" type="curve" smooth="yes"/>
      <point x="1082" y="84"/>
      <point x="1082" y="86"/>
      <point x="1078" y="87" type="curve" smooth="yes"/>
      <point x="1075" y="88"/>
      <point x="1072" y="86"/>
      <point x="1069" y="80" type="curve" smooth="yes"/>
      <point x="1053" y="43"/>
      <point x="1032" y="20"/>
      <point x="990" y="20" type="curve" smooth="yes"/>
      <point x="937" y="20"/>
      <point x="894" y="60"/>
      <point x="850" y="178" type="curve" smooth="yes"/>
      <point x="615" y="802" type="line"/>
    </contour>
    <contour>
      <point x="304" y="446" type="line"/>
      <point x="1041" y="1270" type="line" smooth="yes"/>
      <point x="1113" y="1351"/>
      <point x="1154" y="1372"/>
      <point x="1189" y="1372" type="curve" smooth="yes"/>
      <point x="1232" y="1372"/>
      <point x="1258" y="1341"/>
      <point x="1299" y="1341" type="curve" smooth="yes"/>
      <point x="1337" y="1341"/>
      <point x="1356" y="1356"/>
      <point x="1356" y="1377" type="curve" smooth="yes"/>
      <point x="1356" y="1399"/>
      <point x="1333" y="1420"/>
      <point x="1288" y="1420" type="curve" smooth="yes"/>
      <point x="1190" y="1420"/>
      <point x="1119" y="1377"/>
      <point x="1026" y="1273" type="curve" smooth="yes"/>
      <point x="297" y="459" type="line"/>
    </contour>
    <contour>
      <point x="232" y="78" type="curve" smooth="yes"/>
      <point x="308" y="420"/>
      <point x="442" y="960"/>
      <point x="536" y="1328" type="curve" smooth="yes"/>
      <point x="542" y="1354"/>
      <point x="554" y="1364"/>
      <point x="570" y="1366" type="curve" smooth="yes"/>
      <point x="700" y="1388" type="line" smooth="yes"/>
      <point x="710" y="1390"/>
      <point x="712" y="1392"/>
      <point x="712" y="1396" type="curve" smooth="yes"/>
      <point x="712" y="1398"/>
      <point x="710" y="1400"/>
      <point x="706" y="1400" type="curve" smooth="yes"/>
      <point x="326" y="1400" type="line" smooth="yes"/>
      <point x="322" y="1400"/>
      <point x="318" y="1398"/>
      <point x="318" y="1394" type="curve" smooth="yes"/>
      <point x="318" y="1390"/>
      <point x="320" y="1388"/>
      <point x="332" y="1386" type="curve" smooth="yes"/>
      <point x="456" y="1370" type="line" smooth="yes"/>
      <point x="470" y="1368"/>
      <point x="484" y="1358"/>
      <point x="480" y="1336" type="curve" smooth="yes"/>
      <point x="400" y="970"/>
      <point x="268" y="436"/>
      <point x="172" y="72" type="curve" smooth="yes"/>
      <point x="164" y="42"/>
      <point x="152" y="28"/>
      <point x="126" y="26" type="curve" smooth="yes"/>
      <point x="12" y="14" type="line" smooth="yes"/>
      <point x="6" y="14"/>
      <point x="0" y="12"/>
      <point x="0" y="6" type="curve" smooth="yes"/>
      <point x="0" y="4"/>
      <point x="4" y="0"/>
      <point x="10" y="0" type="curve" smooth="yes"/>
      <point x="388" y="0" type="line" smooth="yes"/>
      <point x="392" y="0"/>
      <point x="394" y="2"/>
      <point x="394" y="6" type="curve" smooth="yes"/>
      <point x="394" y="10"/>
      <point x="390" y="12"/>
      <point x="386" y="12" type="curve" smooth="yes"/>
      <point x="254" y="24" type="line" smooth="yes"/>
      <point x="234" y="26"/>
      <point x="226" y="50"/>
    </contour>
  </outline>
</glyph>
<glyph name="L" format="2">
  <advance width="888"/>
  <unicode hex="004C"/>
  <outline>
    <contour>
      <point x="572" y="0" type="line" smooth="yes"/>
      <point x="600" y="0"/>
      <point x="607" y="-18"/>
      <point x="632" y="-18" type="curve" smooth="yes"/>
      <point x="701" y="-18"/>
      <point x="840" y="150"/>
      <point x="840" y="298" type="curve" smooth="yes"/>
      <point x="840" y="304"/>
      <point x="840" y="308"/>
      <point x="836" y="308" type="curve" smooth="yes"/>
      <point x="834" y="308"/>
      <point x="832" y="306"/>
      <point x="826" y="292" type="curve" smooth="yes"/>
      <point x="742" y="108"/>
      <point x="669" y="10"/>
      <point x="486" y="10" type="curve" smooth="yes"/>
      <point x="341" y="10" type="line" smooth="yes"/>
      <point x="247" y="10"/>
      <point x="223" y="31"/>
      <point x="232" y="78" type="curve" smooth="yes"/>
      <point x="308" y="420"/>
      <point x="442" y="960"/>
      <point x="536" y="1328" type="curve" smooth="yes"/>
      <point x="542" y="1354"/>
      <point x="554" y="1364"/>
      <point x="570" y="1366" type="curve" smooth="yes"/>
      <point x="700" y="1388" type="line" smooth="yes"/>
      <point x="710" y="1390"/>
      <point x="712" y="1392"/>
      <point x="712" y="1396" type="curve" smooth="yes"/>
      <point x="712" y="1398"/>
      <point x="710" y="1400"/>
      <point x="706" y="1400" type="curve" smooth="yes"/>
      <point x="326" y="1400" type="line" smooth="yes"/>
      <point x="322" y="1400"/>
      <point x="318" y="1398"/>
      <point x="318" y="1394" type="curve"/>
      <point x="318" y="1390"/>
      <point x="320" y="1388"/>
      <point x="332" y="1386" type="curve" smooth="yes"/>
      <point x="456" y="1370" type="line" smooth="yes"/>
      <point x="470" y="1368"/>
      <point x="484" y="1358"/>
      <point x="480" y="1336" type="curve" smooth="yes"/>
      <point x="400" y="970"/>
      <point x="268" y="436"/>
      <point x="172" y="72" type="curve" smooth="yes"/>
      <point x="164" y="42"/>
      <point x="152" y="28"/>
      <point x="126" y="26" type="curve" smooth="yes"/>
      <point x="12" y="14" type="line" smooth="yes"/>
      <point x="6" y="14"/>
      <point x="0" y="12"/>
      <point x="0" y="6" type="curve" smooth="yes"/>
      <point x="0" y="2"/>
      <point x="4" y="0"/>
      <point x="10" y="0" type="curve" smooth="yes"/>
    </contour>
  </outline>
</glyph>
<glyph name="M" format="1">
  <advance width="689"/>
  <unicode hex="004D"/>
  <outline>
    <contour>
      <point x="409" y="159" type="line"/>
      <point x="383" y="325"/>
      <point x="362" y="500"/>
      <point x="337" y="696" type="curve" smooth="yes"/>
      <point x="339" y="694"/>
      <point x="341" y="700"/>
      <point x="338" y="700" type="curve" smooth="yes"/>
      <point x="249" y="700" type="line" smooth="yes"/>
      <point x="243" y="700"/>
      <point x="242" y="700"/>
      <point x="238" y="700" type="curve" smooth="yes"/>
      <point x="234" y="702"/>
      <point x="234" y="698"/>
      <point x="242" y="697" type="curve" smooth="yes"/>
      <point x="293" y="673" type="line" smooth="yes"/>
      <point x="301" y="671"/>
      <point x="306" y="662"/>
      <point x="302" y="649" type="curve" smooth="yes"/>
      <point x="106" y="32" type="line" smooth="yes"/>
      <point x="105" y="31"/>
      <point x="93" y="22"/>
      <point x="66" y="13" type="curve" smooth="yes"/>
      <point x="18" y="-1" type="line" smooth="yes"/>
      <point x="15" y="0"/>
      <point x="15" y="0"/>
      <point x="12" y="-1" type="curve" smooth="yes"/>
      <point x="7" y="-1"/>
      <point x="13" y="0"/>
      <point x="15" y="0" type="curve" smooth="yes"/>
      <point x="178" y="0" type="line" smooth="yes"/>
      <point x="181" y="0"/>
      <point x="180" y="0"/>
      <point x="183" y="-2" type="curve" smooth="yes"/>
      <point x="187" y="-2"/>
      <point x="182" y="2"/>
      <point x="189" y="-5" type="curve" smooth="yes"/>
      <point x="129" y="16" type="line" smooth="yes"/>
      <point x="107" y="22"/>
      <point x="106" y="33"/>
      <point x="106" y="30" type="curve" smooth="yes"/>
      <point x="308" y="664" type="line"/>
      <point x="305" y="659" type="line"/>
      <point x="334" y="489"/>
      <point x="361" y="289"/>
      <point x="387" y="64" type="curve" smooth="yes"/>
      <point x="383" y="84"/>
      <point x="375" y="81"/>
      <point x="368" y="81" type="curve" smooth="yes"/>
      <point x="370" y="81"/>
      <point x="372" y="85"/>
      <point x="372" y="88" type="curve" smooth="yes"/>
      <point x="730" y="681" type="line"/>
      <point x="707" y="683" type="line"/>
      <point x="672" y="457"/>
      <point x="637" y="244"/>
      <point x="595" y="48" type="curve" smooth="yes"/>
      <point x="590" y="25"/>
      <point x="575" y="14"/>
      <point x="558" y="9" type="curve" smooth="yes"/>
      <point x="511" y="-5" type="line" smooth="yes"/>
      <point x="508" y="-5"/>
      <point x="509" y="-1"/>
      <point x="505" y="-3" type="curve" smooth="yes"/>
      <point x="501" y="-5"/>
      <point x="506" y="0"/>
      <point x="507" y="0" type="curve" smooth="yes"/>
      <point x="676" y="0" type="line" smooth="yes"/>
      <point x="682" y="0"/>
      <point x="681" y="-3"/>
      <point x="684" y="-4" type="curve" smooth="yes"/>
      <point x="688" y="-4"/>
      <point x="686" y="-6"/>
      <point x="682" y="-5" type="curve" smooth="yes"/>
      <point x="658" y="4" type="line" smooth="yes"/>
      <point x="637" y="11"/>
      <point x="630" y="22"/>
      <point x="634" y="48" type="curve" smooth="yes"/>
      <point x="665" y="246"/>
      <point x="697" y="450"/>
      <point x="740" y="658" type="curve" smooth="yes"/>
      <point x="743" y="672"/>
      <point x="752" y="680"/>
      <point x="763" y="683" type="curve" smooth="yes"/>
      <point x="822" y="700" type="line" smooth="yes"/>
      <point x="829" y="702"/>
      <point x="832" y="696"/>
      <point x="837" y="701" type="curve" smooth="yes"/>
      <point x="841" y="700"/>
      <point x="844" y="700"/>
      <point x="833" y="700" type="curve" smooth="yes"/>
      <point x="833" y="700"/>
      <point x="771" y="700"/>
      <point x="760" y="700" type="curve" smooth="yes"/>
      <point x="749" y="700"/>
      <point x="741" y="694"/>
      <point x="742" y="695" type="curve" smooth="yes"/>
      <point x="424" y="162" type="line"/>
    </contour>
  </outline>
</glyph>
<glyph name="N" format="2">
  <advance width="579"/>
  <unicode hex="004E"/>
  <outline>
    <contour>
      <point x="66" y="44" type="line" smooth="yes"/>
      <point x="61" y="25"/>
      <point x="66" y="13"/>
      <point x="76" y="12" type="curve" smooth="yes"/>
      <point x="142" y="6" type="line" smooth="yes"/>
      <point x="144" y="6"/>
      <point x="146" y="5"/>
      <point x="146" y="3" type="curve" smooth="yes"/>
      <point x="146" y="1"/>
      <point x="145" y="0"/>
      <point x="143" y="0" type="curve" smooth="yes"/>
      <point x="-16" y="0" type="line" smooth="yes"/>
      <point x="-23" y="0"/>
      <point x="-26" y="0"/>
      <point x="-26" y="3" type="curve"/>
      <point x="-26" y="5"/>
      <point x="-24" y="7"/>
      <point x="-20" y="7" type="curve" smooth="yes"/>
      <point x="37" y="13" type="line" smooth="yes"/>
      <point x="51" y="14"/>
      <point x="55" y="21"/>
      <point x="60" y="38" type="curve" smooth="yes"/>
      <point x="205" y="569" type="line" smooth="yes"/>
      <point x="209" y="584"/>
      <point x="208" y="593"/>
      <point x="203" y="604" type="curve" smooth="yes"/>
      <point x="163" y="694" type="line" smooth="yes"/>
      <point x="162" y="697"/>
      <point x="163" y="700"/>
      <point x="167" y="700" type="curve" smooth="yes"/>
      <point x="180" y="700" type="line" smooth="yes"/>
      <point x="189" y="700"/>
      <point x="194" y="695"/>
      <point x="199" y="682" type="curve" smooth="yes"/>
      <point x="306" y="422"/>
      <point x="368" y="270"/>
      <point x="432" y="110" type="curve"/>
      <point x="421" y="91" type="line"/>
      <point x="562" y="619" type="line" smooth="yes"/>
      <point x="581" y="689"/>
      <point x="607" y="714"/>
      <point x="633" y="714" type="curve" smooth="yes"/>
      <point x="645" y="714"/>
      <point x="654" y="706"/>
      <point x="654" y="696" type="curve" smooth="yes"/>
      <point x="654" y="682"/>
      <point x="642" y="671"/>
      <point x="613" y="660" type="curve" smooth="yes"/>
      <point x="584" y="649"/>
      <point x="569" y="629"/>
      <point x="560" y="596" type="curve" smooth="yes"/>
      <point x="433" y="118" type="line" smooth="yes"/>
      <point x="429" y="103"/>
      <point x="443" y="78"/>
      <point x="450" y="60" type="curve" smooth="yes"/>
      <point x="471" y="9" type="line" smooth="yes"/>
      <point x="473" y="3"/>
      <point x="472" y="0"/>
      <point x="467" y="0" type="curve" smooth="yes"/>
      <point x="441" y="0" type="line" smooth="yes"/>
      <point x="435" y="0"/>
      <point x="435" y="3"/>
      <point x="435" y="11" type="curve" smooth="yes"/>
      <point x="435" y="21"/>
      <point x="434" y="25"/>
      <point x="428" y="41" type="curve" smooth="yes"/>
      <point x="368" y="197"/>
      <point x="296" y="376"/>
      <point x="209" y="586" type="curve"/>
      <point x="216" y="592" type="line"/>
    </contour>
  </outline>
</glyph>
<glyph name="O" format="2">
  <advance width="624"/>
  <unicode hex="004F"/>
  <anchor x="475" y="773" name="center"/>
  <outline>
    <contour>
      <point x="431" y="710" type="curve" smooth="yes"/>
      <point x="277" y="710"/>
      <point x="120" y="562"/>
      <point x="72" y="365" type="curve" smooth="yes"/>
      <point x="13" y="119"/>
      <point x="120" y="-10"/>
      <point x="256" y="-10" type="curve" smooth="yes"/>
      <point x="415" y="-10"/>
      <point x="562" y="119"/>
      <point x="615" y="345" type="curve" smooth="yes"/>
      <point x="665" y="560"/>
      <point x="574" y="710"/>
    </contour>
    <contour>
      <point x="258" y="-6" type="curve" smooth="yes"/>
      <point x="126" y="-6"/>
      <point x="53" y="125"/>
      <point x="100" y="359" type="curve" smooth="yes"/>
      <point x="140" y="554"/>
      <point x="279" y="706"/>
      <point x="429" y="706" type="curve" smooth="yes"/>
      <point x="554" y="706"/>
      <point x="648" y="586"/>
      <point x="587" y="351" type="curve" smooth="yes"/>
      <point x="525" y="114"/>
      <point x="389" y="-6"/>
    </contour>
  </outline>
</glyph>
<glyph name="P" format="2">
  <advance width="1067"/>
  <unicode hex="0050"/>
  <outline>
    <contour>
      <point x="1124" y="966" type="curve" smooth="yes"/>
      <point x="1151" y="1242"/>
      <point x="960" y="1400"/>
      <point x="679" y="1400" type="curve" smooth="yes"/>
      <point x="336" y="1400" type="line" smooth="yes"/>
      <point x="325" y="1400"/>
      <point x="320" y="1400"/>
      <point x="320" y="1394" type="curve" smooth="yes"/>
      <point x="320" y="1391"/>
      <point x="322" y="1388"/>
      <point x="338" y="1386" type="curve" smooth="yes"/>
      <point x="449" y="1372" type="line" smooth="yes"/>
      <point x="477" y="1368"/>
      <point x="485" y="1351"/>
      <point x="480" y="1320" type="curve" smooth="yes"/>
      <point x="464" y="1223"/>
      <point x="185" y="106"/>
      <point x="174" y="72" type="curve" smooth="yes"/>
      <point x="163" y="38"/>
      <point x="153" y="29"/>
      <point x="117" y="25" type="curve" smooth="yes"/>
      <point x="11" y="14" type="line" smooth="yes"/>
      <point x="3" y="13"/>
      <point x="1" y="10"/>
      <point x="1" y="6" type="curve" smooth="yes"/>
      <point x="1" y="2"/>
      <point x="5" y="0"/>
      <point x="11" y="0" type="curve" smooth="yes"/>
      <point x="383" y="0" type="line" smooth="yes"/>
      <point x="392" y="0"/>
      <point x="395" y="1"/>
      <point x="395" y="6" type="curve" smooth="yes"/>
      <point x="395" y="10"/>
      <point x="392" y="11"/>
      <point x="386" y="12" type="curve" smooth="yes"/>
      <point x="264" y="23" type="line" smooth="yes"/>
      <point x="237" y="25"/>
      <point x="227" y="44"/>
      <point x="233" y="76" type="curve" smooth="yes"/>
      <point x="240" y="116"/>
      <point x="513" y="1239"/>
      <point x="540" y="1335" type="curve" smooth="yes"/>
      <point x="551" y="1375"/>
      <point x="596" y="1393"/>
      <point x="675" y="1393" type="curve" smooth="yes"/>
      <point x="936" y="1393"/>
      <point x="1095" y="1270"/>
      <point x="1064" y="970" type="curve" smooth="yes"/>
      <point x="1033" y="675"/>
      <point x="867" y="531"/>
      <point x="593" y="531" type="curve" smooth="yes"/>
      <point x="495" y="531"/>
      <point x="437" y="548"/>
      <point x="339" y="595" type="curve"/>
      <point x="334" y="592" type="line"/>
      <point x="428" y="538"/>
      <point x="502" y="523"/>
      <point x="590" y="523" type="curve" smooth="yes"/>
      <point x="885" y="523"/>
      <point x="1098" y="695"/>
    </contour>
  </outline>
</glyph>
<glyph name="Q" format="2">
  <advance width="1318"/>
  <unicode hex="0051"/>
  <outline>
    <contour>
      <point x="605" y="324" type="curve" smooth="yes"/>
      <point x="487.3051309968374" y="-97.02229562106947"/>
      <point x="636.0" y="-290.0"/>
      <point x="884" y="-290" type="curve" smooth="yes"/>
      <point x="905" y="-290"/>
      <point x="914" y="-284"/>
      <point x="923" y="-273" type="curve" smooth="yes"/>
      <point x="976" y="-210" type="line" smooth="yes"/>
      <point x="978" y="-207"/>
      <point x="978" y="-204"/>
      <point x="976" y="-202" type="curve" smooth="yes"/>
      <point x="968" y="-194"/>
      <point x="940" y="-231"/>
      <point x="873" y="-231" type="curve" smooth="yes"/>
      <point x="650.0" y="-231.0"/>
      <point x="508.356860685516" y="-93.91037730116676"/>
      <point x="614" y="322" type="curve" smooth="yes"/>
      <point x="616" y="329"/>
      <point x="614" y="330"/>
      <point x="611" y="331" type="curve" smooth="yes"/>
      <point x="607" y="332"/>
      <point x="606" y="329"/>
    </contour>
    <contour>
      <point x="892" y="1420" type="curve" smooth="yes"/>
      <point x="584" y="1420"/>
      <point x="270" y="1124"/>
      <point x="174" y="730" type="curve" smooth="yes"/>
      <point x="56" y="238"/>
      <point x="270" y="-20"/>
      <point x="542" y="-20" type="curve" smooth="yes"/>
      <point x="860" y="-20"/>
      <point x="1154" y="238"/>
      <point x="1260" y="690" type="curve" smooth="yes"/>
      <point x="1360" y="1120"/>
      <point x="1178" y="1420"/>
    </contour>
    <contour>
      <point x="546" y="-12" type="curve" smooth="yes"/>
      <point x="282" y="-12"/>
      <point x="136" y="250"/>
      <point x="230" y="718" type="curve" smooth="yes"/>
      <point x="310" y="1108"/>
      <point x="588" y="1412"/>
      <point x="888" y="1412" type="curve" smooth="yes"/>
      <point x="1138" y="1412"/>
      <point x="1326" y="1172"/>
      <point x="1204" y="702" type="curve" smooth="yes"/>
      <point x="1080" y="228"/>
      <point x="808" y="-12"/>
    </contour>
  </outline>
</glyph>
<glyph name="R" format="2">
  <advance width="1077"/>
  <unicode hex="0052"/>
  <outline>
    <contour>
      <point x="333" y="632" type="line"/>
      <point x="384" y="596"/>
      <point x="465" y="572"/>
      <point x="551" y="572" type="curve" smooth="yes"/>
      <point x="865" y="572"/>
      <point x="1056" y="752"/>
      <point x="1091" y="965" type="curve" smooth="yes"/>
      <point x="1138" y="1245"/>
      <point x="963" y="1400"/>
      <point x="679" y="1400" type="curve" smooth="yes"/>
      <point x="327" y="1400" type="line" smooth="yes"/>
      <point x="323" y="1400"/>
      <point x="319" y="1398"/>
      <point x="319" y="1394" type="curve" smooth="yes"/>
      <point x="319" y="1390"/>
      <point x="321" y="1388"/>
      <point x="333" y="1386" type="curve" smooth="yes"/>
      <point x="457" y="1370" type="line" smooth="yes"/>
      <point x="471" y="1368"/>
      <point x="485" y="1358"/>
      <point x="481" y="1336" type="curve" smooth="yes"/>
      <point x="399" y="964"/>
      <point x="269" y="436"/>
      <point x="173" y="72" type="curve" smooth="yes"/>
      <point x="165" y="42"/>
      <point x="153" y="28"/>
      <point x="127" y="26" type="curve" smooth="yes"/>
      <point x="13" y="14" type="line" smooth="yes"/>
      <point x="7" y="14"/>
      <point x="1" y="12"/>
      <point x="1" y="6" type="curve" smooth="yes"/>
      <point x="1" y="2"/>
      <point x="5" y="0"/>
      <point x="11" y="0" type="curve" smooth="yes"/>
      <point x="389" y="0" type="line" smooth="yes"/>
      <point x="393" y="0"/>
      <point x="395" y="2"/>
      <point x="395" y="6" type="curve" smooth="yes"/>
      <point x="395" y="10"/>
      <point x="391" y="12"/>
      <point x="387" y="12" type="curve" smooth="yes"/>
      <point x="255" y="24" type="line" smooth="yes"/>
      <point x="235" y="26"/>
      <point x="227" y="50"/>
      <point x="233" y="78" type="curve" smooth="yes"/>
      <point x="311" y="438"/>
      <point x="445" y="966"/>
      <point x="537" y="1328" type="curve" smooth="yes"/>
      <point x="549" y="1378"/>
      <point x="599" y="1392"/>
      <point x="679" y="1392" type="curve" smooth="yes"/>
      <point x="955" y="1392"/>
      <point x="1087" y="1249"/>
      <point x="1041" y="975" type="curve" smooth="yes"/>
      <point x="1003" y="753"/>
      <point x="851" y="580"/>
      <point x="551" y="580" type="curve" smooth="yes"/>
      <point x="465" y="580"/>
      <point x="395" y="605"/>
      <point x="339" y="636" type="curve"/>
    </contour>
    <contour>
      <point x="609" y="576" type="line"/>
      <point x="723" y="232" type="line" smooth="yes"/>
      <point x="789" y="32"/>
      <point x="827" y="-20"/>
      <point x="891" y="-20" type="curve" smooth="yes"/>
      <point x="943" y="-20"/>
      <point x="989" y="20"/>
      <point x="989" y="44" type="curve" smooth="yes"/>
      <point x="989" y="46"/>
      <point x="989" y="48"/>
      <point x="987" y="48" type="curve" smooth="yes"/>
      <point x="985" y="48"/>
      <point x="983" y="46"/>
      <point x="981" y="42" type="curve" smooth="yes"/>
      <point x="967" y="18"/>
      <point x="953" y="6"/>
      <point x="929" y="6" type="curve" smooth="yes"/>
      <point x="881" y="6"/>
      <point x="847" y="40"/>
      <point x="783" y="220" type="curve" smooth="yes"/>
      <point x="655" y="584" type="line"/>
    </contour>
  </outline>
</glyph>
<glyph name="S" format="2">
  <advance width="438"/>
  <unicode hex="0053"/>
  <outline>
    <contour>
      <point x="183" y="-10" type="curve" smooth="yes"/>
      <point x="283" y="-10"/>
      <point x="372" y="58"/>
      <point x="372" y="179" type="curve" smooth="yes"/>
      <point x="372" y="246"/>
      <point x="344" y="292"/>
      <point x="278" y="348" type="curve" smooth="yes"/>
      <point x="192" y="421"/>
      <point x="151" y="477"/>
      <point x="151" y="536" type="curve" smooth="yes"/>
      <point x="151" y="628"/>
      <point x="224" y="706"/>
      <point x="336" y="706" type="curve" smooth="yes"/>
      <point x="403" y="706"/>
      <point x="449" y="671"/>
      <point x="467" y="595" type="curve" smooth="yes"/>
      <point x="476" y="556" type="line" smooth="yes"/>
      <point x="478" y="546"/>
      <point x="485" y="543"/>
      <point x="490" y="543" type="curve" smooth="yes"/>
      <point x="498" y="543"/>
      <point x="507" y="549"/>
      <point x="506" y="574" type="curve" smooth="yes"/>
      <point x="504" y="646"/>
      <point x="443" y="710"/>
      <point x="336" y="710" type="curve" smooth="yes"/>
      <point x="209" y="710"/>
      <point x="128" y="606"/>
      <point x="128" y="501" type="curve" smooth="yes"/>
      <point x="128" y="443"/>
      <point x="165" y="388"/>
      <point x="251" y="316" type="curve" smooth="yes"/>
      <point x="315" y="263"/>
      <point x="352" y="218"/>
      <point x="352" y="153" type="curve" smooth="yes"/>
      <point x="352" y="69"/>
      <point x="284" y="-6"/>
      <point x="184" y="-6" type="curve" smooth="yes"/>
      <point x="101" y="-6"/>
      <point x="47" y="46"/>
      <point x="32" y="123" type="curve" smooth="yes"/>
      <point x="21" y="178" type="line" smooth="yes"/>
      <point x="21" y="180"/>
      <point x="20" y="181"/>
      <point x="19" y="181" type="curve" smooth="yes"/>
      <point x="18" y="181"/>
      <point x="18" y="180"/>
      <point x="18" y="178" type="curve" smooth="yes"/>
      <point x="3" y="3" type="line" smooth="yes"/>
      <point x="3" y="0"/>
      <point x="4" y="-2"/>
      <point x="6" y="-2" type="curve" smooth="yes"/>
      <point x="13" y="-2"/>
      <point x="34" y="34"/>
      <point x="45" y="34" type="curve" smooth="yes"/>
      <point x="66" y="34"/>
      <point x="104" y="-10"/>
    </contour>
  </outline>
</glyph>
<glyph name="T" format="2">
  <advance width="883"/>
  <unicode hex="0054"/>
  <outline>
    <contour>
      <point x="429" y="1428" type="curve" smooth="yes"/>
      <point x="297" y="1428"/>
      <point x="229" y="1385"/>
      <point x="206" y="1306" type="curve" smooth="yes"/>
      <point x="184" y="1229"/>
      <point x="211" y="1173"/>
      <point x="248" y="1169" type="curve" smooth="yes"/>
      <point x="273" y="1167"/>
      <point x="288" y="1184"/>
      <point x="290" y="1204" type="curve" smooth="yes"/>
      <point x="293" y="1240"/>
      <point x="235" y="1260"/>
      <point x="254" y="1334" type="curve" smooth="yes"/>
      <point x="266" y="1380"/>
      <point x="319" y="1420"/>
      <point x="427" y="1420" type="curve" smooth="yes"/>
      <point x="530" y="1420"/>
      <point x="891" y="1308"/>
      <point x="1009" y="1308" type="curve" smooth="yes"/>
      <point x="1085" y="1308"/>
      <point x="1153" y="1350"/>
      <point x="1153" y="1412" type="curve" smooth="yes"/>
      <point x="1153" y="1443"/>
      <point x="1140" y="1456"/>
      <point x="1125" y="1456" type="curve" smooth="yes"/>
      <point x="1106" y="1456"/>
      <point x="1096" y="1443"/>
      <point x="1087" y="1408" type="curve" smooth="yes"/>
      <point x="1072" y="1346"/>
      <point x="1046" y="1321"/>
      <point x="973" y="1321" type="curve" smooth="yes"/>
      <point x="899" y="1321"/>
      <point x="535" y="1428"/>
    </contour>
    <contour>
      <point x="394" y="78" type="curve" smooth="yes"/>
      <point x="477.9387942128321" y="416.75299093035795"/>
      <point x="618.082006241024" y="954.2992508444386"/>
      <point x="732" y="1370" type="curve"/>
      <point x="674" y="1380" type="line"/>
      <point x="574.0721032476149" y="970.2956233152212"/>
      <point x="435.92766736445174" y="438.7397443407235"/>
      <point x="334" y="72" type="curve" smooth="yes"/>
      <point x="326" y="42"/>
      <point x="314" y="28"/>
      <point x="288" y="26" type="curve" smooth="yes"/>
      <point x="174" y="14" type="line" smooth="yes"/>
      <point x="168" y="14"/>
      <point x="162" y="12"/>
      <point x="162" y="6" type="curve" smooth="yes"/>
      <point x="162" y="2"/>
      <point x="166" y="0"/>
      <point x="172" y="0" type="curve" smooth="yes"/>
      <point x="548" y="0" type="line" smooth="yes"/>
      <point x="554" y="0"/>
      <point x="556" y="2"/>
      <point x="556" y="6" type="curve" smooth="yes"/>
      <point x="556" y="10"/>
      <point x="552" y="12"/>
      <point x="548" y="12" type="curve" smooth="yes"/>
      <point x="422" y="24" type="line" smooth="yes"/>
      <point x="396" y="26"/>
      <point x="386" y="42"/>
    </contour>
  </outline>
</glyph>
<glyph name="U" format="1">
  <advance width="545"/>
  <unicode hex="0055"/>
  <outline>
    <contour>
      <point x="507" y="186" type="line" smooth="yes"/>
      <point x="474" y="65"/>
      <point x="401" y="-1"/>
      <point x="299" y="-1" type="curve" smooth="yes"/>
      <point x="218" y="-1"/>
      <point x="165" y="46"/>
      <point x="165" y="138" type="curve" smooth="yes"/>
      <point x="165" y="178"/>
      <point x="172" y="227"/>
      <point x="195" y="308" type="curve" smooth="yes"/>
      <point x="301" y="689" type="line" smooth="yes"/>
      <point x="303" y="695"/>
      <point x="317" y="697"/>
      <point x="378" y="706" type="curve" smooth="yes"/>
      <point x="393" y="707"/>
      <point x="395" y="705"/>
      <point x="395" y="704" type="curve" smooth="yes"/>
      <point x="395" y="701"/>
      <point x="394" y="699"/>
      <point x="390" y="699" type="curve" smooth="yes"/>
      <point x="208" y="699" type="line" smooth="yes"/>
      <point x="199" y="699"/>
      <point x="196" y="701"/>
      <point x="196" y="703" type="curve" smooth="yes"/>
      <point x="196" y="705"/>
      <point x="198" y="705"/>
      <point x="208" y="706" type="curve" smooth="yes"/>
      <point x="256" y="700"/>
      <point x="268" y="696"/>
      <point x="268" y="682" type="curve" smooth="yes"/>
      <point x="268" y="680"/>
      <point x="270" y="682"/>
      <point x="271" y="681" type="curve" smooth="yes"/>
      <point x="170" y="308" type="line" smooth="yes"/>
      <point x="156" y="256"/>
      <point x="132" y="171"/>
      <point x="132" y="129" type="curve" smooth="yes"/>
      <point x="132" y="48"/>
      <point x="177" y="-10"/>
      <point x="269" y="-10" type="curve" smooth="yes"/>
      <point x="402" y="-10"/>
      <point x="479" y="65"/>
      <point x="513" y="187" type="curve" smooth="yes"/>
      <point x="651" y="676" type="line" smooth="yes"/>
      <point x="649" y="672"/>
      <point x="661" y="686"/>
      <point x="732" y="711" type="curve" smooth="yes"/>
      <point x="745" y="714"/>
      <point x="737" y="715"/>
      <point x="737" y="702" type="curve" smooth="yes"/>
      <point x="737" y="700"/>
      <point x="737" y="699"/>
      <point x="738" y="699" type="curve" smooth="yes"/>
      <point x="575" y="699" type="line" smooth="yes"/>
      <point x="573" y="699"/>
      <point x="571" y="701"/>
      <point x="571" y="703" type="curve" smooth="yes"/>
      <point x="571" y="703"/>
      <point x="573" y="704"/>
      <point x="574" y="705" type="curve" smooth="yes"/>
      <point x="639" y="679"/>
      <point x="644" y="680"/>
      <point x="644" y="669" type="curve" smooth="yes"/>
      <point x="644" y="678"/>
      <point x="648" y="681"/>
      <point x="649" y="688" type="curve" smooth="yes"/>
    </contour>
    <contour>
      <point x="485" y="738" type="move" name="center"/>
    </contour>
  </outline>
</glyph>
<glyph name="V" format="2">
  <advance width="443"/>
  <unicode hex="0056"/>
  <outline>
    <contour>
      <point x="423" y="697" type="curve" smooth="yes"/>
      <point x="423" y="695"/>
      <point x="425" y="694"/>
      <point x="430" y="693" type="curve" smooth="yes"/>
      <point x="468" y="688" type="line" smooth="yes"/>
      <point x="499" y="684"/>
      <point x="513" y="669"/>
      <point x="496" y="640" type="curve" smooth="yes"/>
      <point x="162" y="60" type="line"/>
      <point x="167" y="61" type="line"/>
      <point x="167" y="254"/>
      <point x="172" y="485"/>
      <point x="174" y="645" type="curve" smooth="yes"/>
      <point x="174" y="662"/>
      <point x="177" y="680"/>
      <point x="194" y="683" type="curve" smooth="yes"/>
      <point x="259" y="694" type="line" smooth="yes"/>
      <point x="264" y="695"/>
      <point x="265" y="696"/>
      <point x="265" y="698" type="curve" smooth="yes"/>
      <point x="265" y="699"/>
      <point x="264" y="700"/>
      <point x="262" y="700" type="curve" smooth="yes"/>
      <point x="82" y="700" type="line" smooth="yes"/>
      <point x="80" y="700"/>
      <point x="78" y="699"/>
      <point x="78" y="697" type="curve" smooth="yes"/>
      <point x="78" y="695"/>
      <point x="79" y="694"/>
      <point x="85" y="693" type="curve" smooth="yes"/>
      <point x="129" y="683" type="line" smooth="yes"/>
      <point x="144" y="680"/>
      <point x="147" y="670"/>
      <point x="147" y="648" type="curve" smooth="yes"/>
      <point x="147" y="495"/>
      <point x="145" y="134"/>
      <point x="139" y="73" type="curve" smooth="yes"/>
      <point x="138" y="61"/>
      <point x="137" y="58"/>
      <point x="134" y="48" type="curve" smooth="yes"/>
      <point x="125" y="15" type="line" smooth="yes"/>
      <point x="123" y="7"/>
      <point x="123" y="0"/>
      <point x="131" y="0" type="curve" smooth="yes"/>
      <point x="146" y="0" type="line" smooth="yes"/>
      <point x="152" y="0"/>
      <point x="155" y="3"/>
      <point x="157" y="10" type="curve" smooth="yes"/>
      <point x="172" y="65" type="line" smooth="yes"/>
      <point x="175" y="76"/>
      <point x="182" y="88"/>
      <point x="189" y="99" type="curve" smooth="yes"/>
      <point x="500" y="638" type="line" smooth="yes"/>
      <point x="519" y="670"/>
      <point x="537" y="682"/>
      <point x="558" y="688" type="curve" smooth="yes"/>
      <point x="578" y="694" type="line" smooth="yes"/>
      <point x="583" y="695"/>
      <point x="584" y="696"/>
      <point x="584" y="698" type="curve" smooth="yes"/>
      <point x="584" y="699"/>
      <point x="583" y="700"/>
      <point x="581" y="700" type="curve" smooth="yes"/>
      <point x="427" y="700" type="line" smooth="yes"/>
      <point x="425" y="700"/>
      <point x="423" y="699"/>
    </contour>
  </outline>
</glyph>
<glyph name="W" format="1">
  <advance width="844"/>
  <unicode hex="0057"/>
  <outline>
    <contour>
      <point x="591" y="576" type="line"/>
      <point x="279" y="47" type="line"/>
      <point x="290" y="64" type="line"/>
      <point x="293" y="247"/>
      <point x="302" y="514"/>
      <point x="302" y="633" type="curve" smooth="yes"/>
      <point x="303" y="678"/>
      <point x="322" y="692"/>
      <point x="383" y="703" type="curve" smooth="yes"/>
      <point x="394" y="705"/>
      <point x="399" y="702"/>
      <point x="399" y="701" type="curve" smooth="yes"/>
      <point x="399" y="700"/>
      <point x="399" y="700"/>
      <point x="399" y="700" type="curve" smooth="yes"/>
      <point x="219" y="700" type="line" smooth="yes"/>
      <point x="213" y="700"/>
      <point x="210" y="700"/>
      <point x="210" y="698" type="curve" smooth="yes"/>
      <point x="210" y="696"/>
      <point x="212" y="693"/>
      <point x="225" y="690" type="curve" smooth="yes"/>
      <point x="245" y="689"/>
      <point x="257" y="669"/>
      <point x="258" y="642" type="curve" smooth="yes"/>
      <point x="261" y="460"/>
      <point x="260" y="204"/>
      <point x="252" y="92" type="curve" smooth="yes"/>
      <point x="250" y="73"/>
      <point x="234" y="33"/>
      <point x="234" y="16" type="curve" smooth="yes"/>
      <point x="234" y="7"/>
      <point x="238" y="0"/>
      <point x="251" y="0" type="curve" smooth="yes"/>
      <point x="258" y="0" type="line" smooth="yes"/>
      <point x="270" y="0"/>
      <point x="276" y="8"/>
      <point x="280" y="21" type="curve" smooth="yes"/>
      <point x="292" y="66"/>
      <point x="300" y="86"/>
      <point x="313" y="107" type="curve" smooth="yes"/>
      <point x="586" y="569" type="line"/>
    </contour>
    <contour>
      <point x="880" y="703" type="curve" smooth="yes"/>
      <point x="880" y="702"/>
      <point x="882" y="699"/>
      <point x="897" y="700" type="curve" smooth="yes"/>
      <point x="946" y="684"/>
      <point x="958" y="675"/>
      <point x="958" y="656" type="curve" smooth="yes"/>
      <point x="958" y="645"/>
      <point x="950" y="633"/>
      <point x="940" y="614" type="curve" smooth="yes"/>
      <point x="594" y="26" type="line"/>
      <point x="623" y="64" type="line"/>
      <point x="616" y="208"/>
      <point x="629" y="501"/>
      <point x="632" y="622" type="curve" smooth="yes"/>
      <point x="633" y="679"/>
      <point x="651" y="698"/>
      <point x="711" y="708" type="curve" smooth="yes"/>
      <point x="723" y="708"/>
      <point x="729" y="704"/>
      <point x="729" y="702" type="curve" smooth="yes"/>
      <point x="729" y="700"/>
      <point x="729" y="700"/>
      <point x="729" y="700" type="curve" smooth="yes"/>
      <point x="543" y="700" type="line" smooth="yes"/>
      <point x="540" y="700"/>
      <point x="536" y="701"/>
      <point x="537" y="702" type="curve" smooth="yes"/>
      <point x="537" y="701"/>
      <point x="543" y="701"/>
      <point x="549" y="700" type="curve" smooth="yes"/>
      <point x="570" y="694"/>
      <point x="581" y="678"/>
      <point x="583" y="642" type="curve" smooth="yes"/>
      <point x="590" y="483"/>
      <point x="585" y="288"/>
      <point x="582" y="104" type="curve" smooth="yes"/>
      <point x="582" y="73"/>
      <point x="562" y="34"/>
      <point x="562" y="17" type="curve" smooth="yes"/>
      <point x="562" y="7"/>
      <point x="569" y="0"/>
      <point x="579" y="0" type="curve" smooth="yes"/>
      <point x="582" y="0" type="line" smooth="yes"/>
      <point x="593" y="0"/>
      <point x="600" y="6"/>
      <point x="604" y="19" type="curve" smooth="yes"/>
      <point x="617" y="65"/>
      <point x="636" y="89"/>
      <point x="646" y="106" type="curve" smooth="yes"/>
      <point x="958" y="631" type="line" smooth="yes"/>
      <point x="996" y="695"/>
      <point x="1009" y="716"/>
      <point x="1024" y="719" type="curve" smooth="yes"/>
      <point x="1025" y="719"/>
      <point x="1029" y="717"/>
      <point x="1029" y="715" type="curve" smooth="yes"/>
      <point x="1029" y="704"/>
      <point x="1035" y="700"/>
      <point x="1043" y="700" type="curve" smooth="yes"/>
      <point x="890" y="700" type="line" smooth="yes"/>
      <point x="884" y="700"/>
      <point x="880" y="701"/>
    </contour>
    <contour>
      <point x="655" y="739" type="move" name="center"/>
    </contour>
  </outline>
</glyph>
<glyph name="X" format="2">
  <advance width="587"/>
  <unicode hex="0058"/>
  <outline>
    <contour>
      <point x="394" y="354" type="line"/>
      <point x="260" y="177" type="line" smooth="yes"/>
      <point x="157" y="44"/>
      <point x="102" y="2"/>
      <point x="32" y="-13" type="curve" smooth="yes"/>
      <point x="36" y="-13"/>
      <point x="36" y="-10"/>
      <point x="36" y="-8" type="curve" smooth="yes"/>
      <point x="36" y="-3"/>
      <point x="36" y="0"/>
      <point x="34" y="0" type="curve" smooth="yes"/>
      <point x="248" y="0" type="line" smooth="yes"/>
      <point x="252" y="0"/>
      <point x="254" y="0"/>
      <point x="254" y="-1" type="curve" smooth="yes"/>
      <point x="254" y="-1"/>
      <point x="248" y="0"/>
      <point x="243" y="0" type="curve" smooth="yes"/>
      <point x="211" y="3"/>
      <point x="193" y="10"/>
      <point x="193" y="31" type="curve" smooth="yes"/>
      <point x="193" y="60"/>
      <point x="210" y="101"/>
      <point x="263" y="172" type="curve" smooth="yes"/>
      <point x="391" y="346" type="line"/>
    </contour>
    <contour>
      <point x="304" y="655" type="curve" smooth="yes"/>
      <point x="297" y="677"/>
      <point x="309" y="694"/>
      <point x="324" y="698" type="curve" smooth="yes"/>
      <point x="351" y="705" type="line" smooth="yes"/>
      <point x="354" y="706"/>
      <point x="357" y="705"/>
      <point x="357" y="704" type="curve" smooth="yes"/>
      <point x="357" y="702"/>
      <point x="356" y="700"/>
      <point x="353" y="700" type="curve" smooth="yes"/>
      <point x="226" y="700" type="line" smooth="yes"/>
      <point x="217" y="700"/>
      <point x="210" y="702"/>
      <point x="210" y="704" type="curve" smooth="yes"/>
      <point x="210" y="703"/>
      <point x="213" y="703"/>
      <point x="219" y="702" type="curve" smooth="yes"/>
      <point x="237" y="698"/>
      <point x="249" y="689"/>
      <point x="261" y="658" type="curve" smooth="yes"/>
      <point x="353" y="420"/>
      <point x="442" y="175"/>
      <point x="485" y="49" type="curve" smooth="yes"/>
      <point x="489" y="36"/>
      <point x="490" y="30"/>
      <point x="490" y="25" type="curve" smooth="yes"/>
      <point x="490" y="10"/>
      <point x="472" y="-1"/>
      <point x="439" y="-6" type="curve" smooth="yes"/>
      <point x="436" y="-6"/>
      <point x="435" y="-7"/>
      <point x="435" y="-7" type="curve" smooth="yes"/>
      <point x="435" y="-3"/>
      <point x="436" y="0"/>
      <point x="438" y="0" type="curve" smooth="yes"/>
      <point x="572" y="0" type="line" smooth="yes"/>
      <point x="575" y="0"/>
      <point x="577" y="-1"/>
      <point x="577" y="-2" type="curve" smooth="yes"/>
      <point x="577" y="-1"/>
      <point x="576" y="-2"/>
      <point x="573" y="-1" type="curve" smooth="yes"/>
      <point x="552" y="6"/>
      <point x="537" y="21"/>
      <point x="527" y="44" type="curve" smooth="yes"/>
      <point x="437" y="259"/>
      <point x="345" y="528"/>
    </contour>
    <contour>
      <point x="387" y="377" type="line"/>
      <point x="515" y="550" type="line" smooth="yes"/>
      <point x="618" y="685"/>
      <point x="630" y="696"/>
      <point x="668" y="696" type="curve" smooth="yes"/>
      <point x="686" y="696"/>
      <point x="698" y="665"/>
      <point x="721" y="665" type="curve" smooth="yes"/>
      <point x="737" y="665"/>
      <point x="753" y="676"/>
      <point x="753" y="693" type="curve" smooth="yes"/>
      <point x="753" y="702"/>
      <point x="747" y="710"/>
      <point x="723" y="710" type="curve" smooth="yes"/>
      <point x="665" y="710"/>
      <point x="614" y="677"/>
      <point x="520" y="559" type="curve" smooth="yes"/>
      <point x="388" y="378" type="line"/>
    </contour>
  </outline>
</glyph>
<glyph name="Y" format="2">
  <advance width="944"/>
  <unicode hex="0059"/>
  <anchor x="802" y="1496.0" name="center"/>
  <outline>
    <contour>
      <point x="513" y="446" type="line"/>
      <point x="517" y="444" type="line"/>
      <point x="506" y="531"/>
      <point x="395" y="1274"/>
      <point x="383" y="1341" type="curve" smooth="yes"/>
      <point x="376" y="1378"/>
      <point x="358" y="1400"/>
      <point x="321" y="1400" type="curve" smooth="yes"/>
      <point x="213" y="1400" type="line" smooth="yes"/>
      <point x="208" y="1400"/>
      <point x="205" y="1399"/>
      <point x="205" y="1394" type="curve" smooth="yes"/>
      <point x="205" y="1389"/>
      <point x="209" y="1387"/>
      <point x="214" y="1387" type="curve" smooth="yes"/>
      <point x="289" y="1383"/>
      <point x="320" y="1361"/>
      <point x="328" y="1317" type="curve" smooth="yes"/>
      <point x="338" y="1260"/>
      <point x="449" y="522"/>
      <point x="456" y="466" type="curve" smooth="yes"/>
      <point x="459" y="443"/>
      <point x="464" y="429"/>
      <point x="459" y="407" type="curve" smooth="yes"/>
      <point x="383" y="80" type="line" smooth="yes"/>
      <point x="376" y="49"/>
      <point x="350" y="27"/>
      <point x="299" y="23" type="curve" smooth="yes"/>
      <point x="206" y="16" type="line" smooth="yes"/>
      <point x="198" y="15"/>
      <point x="192" y="13"/>
      <point x="192" y="8" type="curve" smooth="yes"/>
      <point x="192" y="4"/>
      <point x="195" y="0"/>
      <point x="202" y="0" type="curve" smooth="yes"/>
      <point x="565" y="0" type="line" smooth="yes"/>
      <point x="575" y="0"/>
      <point x="585" y="2"/>
      <point x="585" y="9" type="curve" smooth="yes"/>
      <point x="585" y="12"/>
      <point x="580" y="14"/>
      <point x="568" y="15" type="curve" smooth="yes"/>
      <point x="481" y="22" type="line" smooth="yes"/>
      <point x="436" y="26"/>
      <point x="428" y="43"/>
      <point x="435" y="75" type="curve" smooth="yes"/>
      <point x="509" y="404" type="line" smooth="yes"/>
      <point x="513" y="422"/>
      <point x="515" y="433"/>
      <point x="522" y="446" type="curve" smooth="yes"/>
      <point x="993" y="1257" type="line" smooth="yes"/>
      <point x="1023.1966324998725" y="1308.9946262365108"/>
      <point x="1064" y="1324"/>
      <point x="1117" y="1334" type="curve" smooth="yes"/>
      <point x="1159.2137061525232" y="1341.7535378647492"/>
      <point x="1183.0" y="1356.1860465116279"/>
      <point x="1183" y="1387" type="curve" smooth="yes"/>
      <point x="1183.0" y="1403.8837209302326"/>
      <point x="1167.8" y="1420.0"/>
      <point x="1135" y="1420" type="curve" smooth="yes"/>
      <point x="1086.0" y="1420.0"/>
      <point x="1049" y="1377"/>
      <point x="987" y="1269" type="curve" smooth="yes"/>
    </contour>
  </outline>
</glyph>
<glyph name="Z" format="2">
  <advance width="996"/>
  <unicode hex="005A"/>
  <outline>
    <contour>
      <point x="790.0" y="0.0" type="line" smooth="yes"/>
      <point x="814" y="0"/>
      <point x="836.0" y="-20.0"/>
      <point x="852.0" y="-20.0" type="curve" smooth="yes"/>
      <point x="920.4722222222222" y="-20.0"/>
      <point x="997" y="106"/>
      <point x="997.0" y="243.0" type="curve" smooth="yes"/>
      <point x="997.0" y="258"/>
      <point x="978" y="280"/>
      <point x="969.0" y="280.0" type="curve" smooth="yes"/>
      <point x="956.0" y="280.0"/>
      <point x="952.0" y="273.0"/>
      <point x="952.0" y="233.0" type="curve" smooth="yes"/>
      <point x="952" y="86"/>
      <point x="842.4366293246902" y="40.665143240560866"/>
      <point x="742.0" y="40.0" type="curve" smooth="yes"/>
      <point x="138.0" y="36.0" type="line"/>
      <point x="178.0" y="20.0" type="line"/>
      <point x="515.4339701899764" y="438.3391911127194"/>
      <point x="950" y="866"/>
      <point x="1309.0" y="1379.0" type="curve" smooth="yes"/>
      <point x="1316" y="1389"/>
      <point x="1326.0" y="1385.0"/>
      <point x="1326.0" y="1394.0" type="curve" smooth="yes"/>
      <point x="1326" y="1398"/>
      <point x="1319" y="1399"/>
      <point x="1306.0" y="1399.0" type="curve" smooth="yes"/>
      <point x="658.0" y="1396.0" type="line" smooth="yes"/>
      <point x="620" y="1396"/>
      <point x="604.0" y="1430.0"/>
      <point x="580.0" y="1430.0" type="curve" smooth="yes"/>
      <point x="588.0" y="1430.0"/>
      <point x="592" y="1443"/>
      <point x="586.0" y="1434.0" type="curve" smooth="yes"/>
      <point x="397.0" y="1179.0" type="line" smooth="yes"/>
      <point x="382" y="1159"/>
      <point x="377" y="1152"/>
      <point x="381.0" y="1145.0" type="curve" smooth="yes"/>
      <point x="384" y="1140"/>
      <point x="401" y="1153"/>
      <point x="408.0" y="1162.0" type="curve" smooth="yes"/>
      <point x="547.6081060274104" y="1336.9519303381471"/>
      <point x="595" y="1383"/>
      <point x="675.0" y="1379.0" type="curve" smooth="yes"/>
      <point x="1217.0" y="1355.0" type="line"/>
      <point x="1200.0" y="1374.0" type="line"/>
      <point x="880.5231436740073" y="978.8089754117777"/>
      <point x="608" y="443"/>
      <point x="78.0" y="58.0" type="curve" smooth="yes"/>
      <point x="67" y="50"/>
      <point x="47" y="50"/>
      <point x="44.0" y="32.0" type="curve" smooth="yes"/>
      <point x="43" y="26"/>
      <point x="67" y="0"/>
      <point x="85.0" y="0.0" type="curve" smooth="yes"/>
    </contour>
  </outline>
</glyph>
<glyph name="bracketleft" format="2">
  <advance width="647"/>
  <unicode hex="005B"/>
  <outline>
    <contour>
      <point x="602" y="1432" type="line" smooth="yes"/>
      <point x="603" y="1436"/>
      <point x="605" y="1438"/>
      <point x="609" y="1438" type="curve" smooth="yes"/>
      <point x="839" y="1438" type="line" smooth="yes"/>
      <point x="842" y="1438"/>
      <point x="846" y="1439"/>
      <point x="847" y="1443" type="curve" smooth="yes"/>
      <point x="848" y="1447"/>
      <point x="845" y="1448"/>
      <point x="842" y="1448" type="curve" smooth="yes"/>
      <point x="558" y="1448" type="line" smooth="yes"/>
      <point x="552" y="1448"/>
      <point x="547" y="1444"/>
      <point x="545" y="1437" type="curve" smooth="yes"/>
      <point x="103" y="-213" type="line" smooth="yes"/>
      <point x="101" y="-220"/>
      <point x="104" y="-224"/>
      <point x="110" y="-224" type="curve" smooth="yes"/>
      <point x="394" y="-224" type="line" smooth="yes"/>
      <point x="397" y="-224"/>
      <point x="400" y="-223"/>
      <point x="401" y="-219" type="curve" smooth="yes"/>
      <point x="402" y="-215"/>
      <point x="400" y="-214"/>
      <point x="397" y="-214" type="curve" smooth="yes"/>
      <point x="167" y="-214" type="line" smooth="yes"/>
      <point x="163" y="-214"/>
      <point x="161" y="-212"/>
      <point x="162" y="-208" type="curve" smooth="yes"/>
    </contour>
  </outline>
</glyph>
<glyph name="a" format="2">
  <advance width="374"/>
  <unicode hex="0061"/>
  <anchor x="342" y="520" name="center"/>
  <outline>
    <contour>
      <point x="267" y="44" type="curve" smooth="yes"/>
      <point x="267" y="83"/>
      <point x="300" y="187"/>
      <point x="361" y="405" type="curve" smooth="yes"/>
      <point x="363" y="411"/>
      <point x="370" y="410"/>
      <point x="370" y="417" type="curve" smooth="yes"/>
      <point x="370" y="425"/>
      <point x="363" y="435"/>
      <point x="328" y="435" type="curve" smooth="yes"/>
      <point x="178" y="435"/>
      <point x="8" y="244"/>
      <point x="8" y="59" type="curve" smooth="yes"/>
      <point x="8" y="12"/>
      <point x="33" y="-10"/>
      <point x="70" y="-10" type="curve" smooth="yes"/>
      <point x="140.0" y="-10.0"/>
      <point x="232.82377160453174" y="96.42998899080067"/>
      <point x="296" y="247" type="curve"/>
      <point x="294" y="252" type="line"/>
      <point x="261.0114498047854" y="142.3928816094482"/>
      <point x="238.0" y="87.25581395348837"/>
      <point x="238" y="22" type="curve" smooth="yes"/>
      <point x="238" y="0"/>
      <point x="251" y="-10"/>
      <point x="267" y="-10" type="curve" smooth="yes"/>
      <point x="301" y="-10"/>
      <point x="328" y="8"/>
      <point x="351" y="55" type="curve" smooth="yes"/>
      <point x="352" y="57"/>
      <point x="352" y="59"/>
      <point x="350" y="59" type="curve" smooth="yes"/>
      <point x="349" y="59"/>
      <point x="347" y="57"/>
      <point x="344" y="52" type="curve" smooth="yes"/>
      <point x="328" y="28"/>
      <point x="309" y="15"/>
      <point x="293" y="15" type="curve" smooth="yes"/>
      <point x="278" y="15"/>
      <point x="267" y="25"/>
    </contour>
    <contour>
      <point x="35" y="79" type="curve" smooth="yes"/>
      <point x="35" y="267"/>
      <point x="188.0" y="426"/>
      <point x="313" y="426" type="curve" smooth="yes"/>
      <point x="330" y="426"/>
      <point x="336.0" y="421.8"/>
      <point x="336.0" y="408" type="curve" smooth="yes"/>
      <point x="336.0" y="273.94805194805195"/>
      <point x="178.36693548387098" y="11.0"/>
      <point x="87" y="11" type="curve" smooth="yes"/>
      <point x="54" y="11"/>
      <point x="35" y="20"/>
    </contour>
  </outline>
</glyph>
<glyph name="b" format="2">
  <advance width="375"/>
  <unicode hex="0062"/>
  <outline>
    <contour>
      <point x="220" y="488" type="line" smooth="yes"/>
      <point x="256" y="623"/>
      <point x="297" y="679"/>
      <point x="379" y="679" type="curve" smooth="yes"/>
      <point x="408" y="679"/>
      <point x="447" y="668"/>
      <point x="469" y="668" type="curve" smooth="yes"/>
      <point x="495" y="668"/>
      <point x="501" y="679"/>
      <point x="501" y="690" type="curve" smooth="yes"/>
      <point x="501" y="696"/>
      <point x="487" y="706"/>
      <point x="471" y="706" type="curve" smooth="yes"/>
      <point x="311" y="706"/>
      <point x="214" y="591"/>
      <point x="171" y="427" type="curve" smooth="yes"/>
      <point x="63" y="0" type="line" smooth="yes"/>
      <point x="62" y="-12"/>
      <point x="60" y="-17"/>
      <point x="60" y="-22" type="curve" smooth="yes"/>
      <point x="60" y="-16"/>
      <point x="57" y="-11"/>
      <point x="52" y="-11" type="curve" smooth="yes"/>
      <point x="50" y="-11"/>
      <point x="45" y="-9"/>
      <point x="48" y="-10" type="curve" smooth="yes"/>
      <point x="82" y="19" type="line"/>
      <point x="96" y="87" type="line"/>
      <point x="77" y="34"/>
      <point x="103" y="-10"/>
      <point x="157" y="-10" type="curve" smooth="yes"/>
      <point x="276" y="-10"/>
      <point x="438" y="148"/>
      <point x="438" y="367" type="curve" smooth="yes"/>
      <point x="438" y="402"/>
      <point x="438" y="435"/>
      <point x="382" y="435" type="curve" smooth="yes"/>
      <point x="294" y="435"/>
      <point x="188" y="301"/>
      <point x="138" y="146" type="curve"/>
      <point x="121" y="105" type="line"/>
    </contour>
    <contour>
      <point x="367" y="421" type="curve" smooth="yes"/>
      <point x="408" y="421"/>
      <point x="420" y="392"/>
      <point x="420" y="332" type="curve" smooth="yes"/>
      <point x="420" y="138"/>
      <point x="268" y="-6"/>
      <point x="181" y="-6" type="curve" smooth="yes"/>
      <point x="148" y="-6"/>
      <point x="120" y="11"/>
      <point x="120" y="65" type="curve" smooth="yes"/>
      <point x="120" y="189"/>
      <point x="273" y="421"/>
    </contour>
  </outline>
</glyph>
<glyph name="c" format="2">
  <advance width="514"/>
  <unicode hex="0063"/>
  <anchor x="454.0" y="990.0" name="center"/>
  <outline>
    <contour>
      <point x="430.0" y="870.0" type="curve" smooth="yes"/>
      <point x="492.0" y="870.0"/>
      <point x="526.0" y="838.0"/>
      <point x="526.0" y="802.0" type="curve" smooth="yes"/>
      <point x="526.0" y="766.0"/>
      <point x="506.0" y="724.0"/>
      <point x="506.0" y="692.0" type="curve" smooth="yes"/>
      <point x="506.0" y="666.0"/>
      <point x="522.0" y="652.0"/>
      <point x="542.0" y="652.0" type="curve" smooth="yes"/>
      <point x="566.0" y="652.0"/>
      <point x="582.0" y="682.0"/>
      <point x="582.0" y="734.0" type="curve" smooth="yes"/>
      <point x="582.0" y="798.0"/>
      <point x="536.0" y="870.0"/>
      <point x="444.0" y="870.0" type="curve" smooth="yes"/>
      <point x="220.0" y="870.0"/>
      <point x="16.0" y="500.0"/>
      <point x="16.0" y="204.0" type="curve" smooth="yes"/>
      <point x="16.0" y="54.0"/>
      <point x="68.0" y="-20.0"/>
      <point x="172.0" y="-20.0" type="curve" smooth="yes"/>
      <point x="312.0" y="-20.0"/>
      <point x="470.0" y="134.0"/>
      <point x="470.0" y="220.0" type="curve" smooth="yes"/>
      <point x="470.0" y="212.0"/>
      <point x="466.0" y="210.0"/>
      <point x="472.0" y="210.0" type="curve" smooth="yes"/>
      <point x="474.0" y="210.0"/>
      <point x="472.0" y="204.0"/>
      <point x="472.0" y="198.0" type="curve" smooth="yes"/>
      <point x="450.0" y="90.0"/>
      <point x="360.0" y="28.0"/>
      <point x="250.0" y="28.0" type="curve" smooth="yes"/>
      <point x="132.0" y="28.0"/>
      <point x="52.0" y="96.0"/>
      <point x="52.0" y="262.0" type="curve" smooth="yes"/>
      <point x="52.0" y="582.0"/>
      <point x="240.0" y="870.0"/>
    </contour>
  </outline>
</glyph>
<glyph name="d" format="2">
  <advance width="796"/>
  <unicode hex="0064"/>
  <outline>
    <contour>
      <point x="716" y="754" type="line"/>
      <point x="730" y="814"/>
      <point x="701" y="866"/>
      <point x="593" y="866" type="curve" smooth="yes"/>
      <point x="373" y="866"/>
      <point x="83" y="569"/>
      <point x="35" y="289" type="curve" smooth="yes"/>
      <point x="-4" y="61"/>
      <point x="67" y="-15"/>
      <point x="142" y="-15" type="curve" smooth="yes"/>
      <point x="267" y="-15"/>
      <point x="474" y="166"/>
      <point x="635" y="529" type="curve"/>
      <point x="626" y="533" type="line"/>
      <point x="515" y="206"/>
      <point x="507" y="120"/>
      <point x="507" y="63" type="curve" smooth="yes"/>
      <point x="507" y="9"/>
      <point x="528" y="-15"/>
      <point x="571" y="-15" type="curve" smooth="yes"/>
      <point x="634" y="-15"/>
      <point x="692" y="28"/>
      <point x="733" y="115" type="curve" smooth="yes"/>
      <point x="735" y="119"/>
      <point x="735" y="122"/>
      <point x="732" y="123" type="curve" smooth="yes"/>
      <point x="730" y="124"/>
      <point x="727" y="122"/>
      <point x="724" y="117" type="curve" smooth="yes"/>
      <point x="682" y="52"/>
      <point x="652" y="23"/>
      <point x="615" y="23" type="curve" smooth="yes"/>
      <point x="557.6" y="23.0"/>
      <point x="550" y="97"/>
      <point x="594" y="246" type="curve" smooth="yes"/>
      <point x="874" y="1186" type="line" smooth="yes"/>
      <point x="881" y="1209"/>
      <point x="885" y="1229"/>
      <point x="886" y="1272" type="curve" smooth="yes"/>
      <point x="889" y="1358"/>
      <point x="949" y="1417"/>
      <point x="999" y="1417" type="curve" smooth="yes"/>
      <point x="1047" y="1417"/>
      <point x="1081" y="1380"/>
      <point x="1110" y="1380" type="curve" smooth="yes"/>
      <point x="1127" y="1380"/>
      <point x="1139" y="1390"/>
      <point x="1139" y="1402" type="curve" smooth="yes"/>
      <point x="1139" y="1423"/>
      <point x="1117" y="1438"/>
      <point x="1077" y="1438" type="curve" smooth="yes"/>
      <point x="949" y="1438"/>
      <point x="885" y="1386"/>
      <point x="853" y="1276" type="curve" smooth="yes"/>
      <point x="677" y="678" type="line" smooth="yes"/>
      <point x="565" y="298"/>
      <point x="293" y="12"/>
      <point x="185" y="12" type="curve" smooth="yes"/>
      <point x="103" y="12"/>
      <point x="53" y="90"/>
      <point x="89" y="294" type="curve" smooth="yes"/>
      <point x="138" y="579"/>
      <point x="381" y="856"/>
      <point x="602" y="856" type="curve" smooth="yes"/>
      <point x="685" y="856"/>
      <point x="713" y="804"/>
      <point x="702" y="756" type="curve"/>
    </contour>
  </outline>
</glyph>
<glyph name="e" format="2">
  <advance width="289"/>
  <unicode hex="0065"/>
  <anchor x="250" y="528" name="center"/>
  <outline>
    <contour>
      <point x="30" y="211" type="curve"/>
      <point x="30" y="207" type="line"/>
      <point x="30.0" y="207.0"/>
      <point x="287.8301282027982" y="319.91506410139914"/>
      <point x="298" y="325" type="curve" smooth="yes"/>
      <point x="300" y="326"/>
      <point x="302" y="328"/>
      <point x="301" y="330" type="curve" smooth="yes"/>
      <point x="301" y="331"/>
      <point x="298" y="333"/>
      <point x="294" y="331" type="curve" smooth="yes"/>
      <point x="285.9951937514439" y="326.42582500082506"/>
      <point x="282.0" y="329.5"/>
      <point x="282" y="337" type="curve" smooth="yes"/>
      <point x="282.0" y="388.64935064935065"/>
      <point x="259.0" y="434.0"/>
      <point x="218" y="434" type="curve" smooth="yes"/>
      <point x="124" y="434"/>
      <point x="8" y="279"/>
      <point x="8" y="94" type="curve" smooth="yes"/>
      <point x="8" y="30"/>
      <point x="39" y="-10"/>
      <point x="93" y="-10" type="curve" smooth="yes"/>
      <point x="162.33918128654972" y="-10.0"/>
      <point x="226.24613917797953" y="26.86320304382639"/>
      <point x="260" y="130" type="curve" smooth="yes"/>
      <point x="261" y="134"/>
      <point x="260" y="136"/>
      <point x="259" y="136" type="curve" smooth="yes"/>
      <point x="257" y="136"/>
      <point x="256" y="134"/>
      <point x="255" y="131" type="curve" smooth="yes"/>
      <point x="214.84977960176136" y="37.62739442270083"/>
      <point x="164.6013986013986" y="5.0"/>
      <point x="116" y="5" type="curve" smooth="yes"/>
      <point x="62" y="5"/>
      <point x="29" y="47"/>
      <point x="29" y="126" type="curve" smooth="yes"/>
      <point x="29" y="282"/>
      <point x="124" y="424"/>
      <point x="205" y="424" type="curve" smooth="yes"/>
      <point x="238.0" y="424.0"/>
      <point x="261.0" y="384"/>
      <point x="261" y="334" type="curve" smooth="yes"/>
      <point x="261.0" y="318.0"/>
      <point x="260.2017546877131" y="313.30263203156966"/>
      <point x="258" y="310" type="curve"/>
      <point x="262" y="313" type="line"/>
      <point x="233.15478142702568" y="299.0747220682193"/>
      <point x="30.0" y="211.0"/>
    </contour>
  </outline>
</glyph>
<glyph name="f" format="1">
  <advance width="175"/>
  <unicode hex="0066"/>
  <outline>
    <contour>
      <point x="210" y="452" type="line"/>
      <point x="289" y="452" type="line" smooth="yes"/>
      <point x="285" y="452"/>
      <point x="282" y="451"/>
      <point x="282" y="447" type="curve" smooth="yes"/>
      <point x="282" y="443"/>
      <point x="286" y="441"/>
      <point x="292" y="441" type="curve" smooth="yes"/>
      <point x="205" y="441" type="line"/>
    </contour>
    <contour>
      <point x="116" y="442" type="curve" smooth="yes"/>
      <point x="116" y="442"/>
      <point x="119" y="445"/>
      <point x="129" y="443" type="curve" smooth="yes"/>
      <point x="174" y="434"/>
      <point x="183" y="411"/>
      <point x="175" y="383" type="curve" smooth="yes"/>
      <point x="31" y="-112" type="line" smooth="yes"/>
      <point x="21" y="-142"/>
      <point x="21" y="-160"/>
      <point x="21" y="-179" type="curve" smooth="yes"/>
      <point x="20" y="-184"/>
      <point x="26" y="-185"/>
      <point x="34" y="-185" type="curve" smooth="yes"/>
      <point x="43" y="-185"/>
      <point x="49" y="-177"/>
      <point x="49" y="-163" type="curve" smooth="yes"/>
      <point x="49" y="-150"/>
      <point x="56" y="-139"/>
      <point x="56" y="-119" type="curve" smooth="yes"/>
      <point x="56" y="-106"/>
      <point x="58" y="-89"/>
      <point x="65" y="-65" type="curve" smooth="yes"/>
      <point x="203" y="432" type="line" smooth="yes"/>
      <point x="202" y="437"/>
      <point x="251" y="491"/>
      <point x="251" y="588" type="curve" smooth="yes"/>
      <point x="251" y="654"/>
      <point x="281" y="687"/>
      <point x="320" y="687" type="curve" smooth="yes"/>
      <point x="360" y="687"/>
      <point x="391" y="672"/>
      <point x="410" y="672" type="curve" smooth="yes"/>
      <point x="422" y="672"/>
      <point x="427" y="678"/>
      <point x="427" y="685" type="curve" smooth="yes"/>
      <point x="427" y="698"/>
      <point x="416" y="708"/>
      <point x="382" y="708" type="curve" smooth="yes"/>
      <point x="299" y="708"/>
      <point x="246" y="649"/>
      <point x="218" y="554" type="curve" smooth="yes"/>
      <point x="194" y="441" type="line"/>
      <point x="113" y="441" type="line" smooth="yes"/>
      <point x="115" y="441"/>
      <point x="116" y="442"/>
    </contour>
  </outline>
</glyph>
<glyph name="g" format="2">
  <advance width="760"/>
  <unicode hex="0067"/>
  <outline>
    <contour>
      <point x="556.0" y="-16.0" type="curve" smooth="yes"/>
      <point x="612.0" y="200.0"/>
      <point x="700.0" y="636.0"/>
      <point x="722.0" y="808.0" type="curve" smooth="yes"/>
      <point x="724.0" y="824.0"/>
      <point x="740.0" y="818.0"/>
      <point x="740.0" y="834.0" type="curve" smooth="yes"/>
      <point x="740.0" y="856.0"/>
      <point x="712.0" y="870.0"/>
      <point x="656.0" y="870.0" type="curve" smooth="yes"/>
      <point x="358.0" y="870.0"/>
      <point x="14.0" y="484.0"/>
      <point x="14.0" y="118.0" type="curve" smooth="yes"/>
      <point x="14.0" y="26.0"/>
      <point x="64.0" y="-20.0"/>
      <point x="140.0" y="-20.0" type="curve" smooth="yes"/>
      <point x="294.0" y="-20.0"/>
      <point x="514.0" y="194.0"/>
      <point x="676.0" y="704.0" type="curve"/>
      <point x="666.0" y="710.0" type="line"/>
      <point x="656.0" y="630.0"/>
      <point x="604.0" y="370.0"/>
      <point x="476.0" y="-130.0" type="curve" smooth="yes"/>
      <point x="416.0" y="-364.0"/>
      <point x="244.0" y="-452.0"/>
      <point x="116.0" y="-452.0" type="curve" smooth="yes"/>
      <point x="38.0" y="-452.0"/>
      <point x="-26.0" y="-424.0"/>
      <point x="-86.0" y="-424.0" type="curve" smooth="yes"/>
      <point x="-122.0" y="-424.0"/>
      <point x="-138.0" y="-436.0"/>
      <point x="-138.0" y="-454.0" type="curve" smooth="yes"/>
      <point x="-138.0" y="-474.0"/>
      <point x="-116.0" y="-490.0"/>
      <point x="-58.0" y="-490.0" type="curve" smooth="yes"/>
      <point x="224.0" y="-490.0"/>
      <point x="458.0" y="-390.0"/>
    </contour>
    <contour>
      <point x="68.0" y="138.0" type="curve" smooth="yes"/>
      <point x="68.0" y="546.0"/>
      <point x="390.0" y="854.0"/>
      <point x="632.0" y="854.0" type="curve" smooth="yes"/>
      <point x="658.0" y="854.0"/>
      <point x="670.0" y="840.0"/>
      <point x="670.0" y="818.0" type="curve" smooth="yes"/>
      <point x="670.0" y="570.0"/>
      <point x="388.0" y="20.0"/>
      <point x="168.0" y="20.0" type="curve" smooth="yes"/>
      <point x="110.0" y="20.0"/>
      <point x="68.0" y="52.0"/>
    </contour>
  </outline>
</glyph>
<glyph name="h" format="2">
  <advance width="828"/>
  <unicode hex="0068"/>
  <outline>
    <contour>
      <point x="150" y="252" type="curve" smooth="yes"/>
      <point x="116.35335901252775" y="131.2679352802466"/>
      <point x="112.0" y="106.0"/>
      <point x="112" y="70" type="curve" smooth="yes"/>
      <point x="112" y="54"/>
      <point x="122" y="44"/>
      <point x="122" y="32" type="curve" smooth="yes"/>
      <point x="122" y="6"/>
      <point x="92" y="-14"/>
      <point x="62" y="-14" type="curve" smooth="yes"/>
      <point x="34" y="-14"/>
      <point x="33" y="-3"/>
      <point x="54" y="70" type="curve" smooth="yes"/>
      <point x="302" y="952" type="line" smooth="yes"/>
      <point x="398" y="1292"/>
      <point x="542" y="1438"/>
      <point x="931" y="1438" type="curve" smooth="yes"/>
      <point x="978" y="1438"/>
      <point x="995" y="1425"/>
      <point x="995" y="1406" type="curve" smooth="yes"/>
      <point x="995" y="1388"/>
      <point x="973" y="1378"/>
      <point x="935" y="1378" type="curve" smooth="yes"/>
      <point x="890" y="1378"/>
      <point x="835" y="1404"/>
      <point x="765" y="1404" type="curve" smooth="yes"/>
      <point x="620" y="1404.0"/>
      <point x="455" y="1328"/>
      <point x="389" y="1091" type="curve" smooth="yes"/>
      <point x="201" y="421" type="line"/>
      <point x="200" y="423" type="line"/>
      <point x="336.3619623670274" y="713.7718315179261"/>
      <point x="517.5932914046122" y="865.0"/>
      <point x="684" y="865" type="curve" smooth="yes"/>
      <point x="769.6153846153846" y="865.0"/>
      <point x="774" y="773"/>
      <point x="731" y="641" type="curve" smooth="yes"/>
      <point x="587" y="198" type="line" smooth="yes"/>
      <point x="549" y="82"/>
      <point x="563.2" y="31.0"/>
      <point x="607" y="31" type="curve" smooth="yes"/>
      <point x="649" y="31"/>
      <point x="687" y="55"/>
      <point x="725" y="116" type="curve" smooth="yes"/>
      <point x="729" y="122"/>
      <point x="731" y="124"/>
      <point x="733" y="124" type="curve" smooth="yes"/>
      <point x="737" y="124"/>
      <point x="738" y="120"/>
      <point x="737" y="118" type="curve" smooth="yes"/>
      <point x="689" y="27"/>
      <point x="636" y="-14"/>
      <point x="565" y="-14" type="curve" smooth="yes"/>
      <point x="498.04761904761904" y="-14.0"/>
      <point x="493.625" y="58.875"/>
      <point x="526" y="156" type="curve" smooth="yes"/>
      <point x="685" y="651" type="line" smooth="yes"/>
      <point x="715" y="746"/>
      <point x="712.5813953488372" y="835.0"/>
      <point x="641" y="835" type="curve" smooth="yes"/>
      <point x="490.85950413223145" y="835.0"/>
      <point x="247.10346312147527" y="597.367987390814"/>
    </contour>
  </outline>
</glyph>
<glyph name="i" format="2">
  <advance width="412"/>
  <unicode hex="0069"/>
  <outline>
    <contour>
      <point x="130" y="127"/>
      <point x="111.89473684210526" y="25.0"/>
      <point x="179" y="25" type="curve" smooth="yes"/>
      <point x="222" y="25"/>
      <point x="263" y="56"/>
      <point x="294" y="115" type="curve" smooth="yes"/>
      <point x="296" y="119"/>
      <point x="300" y="121"/>
      <point x="304" y="121" type="curve" smooth="yes"/>
      <point x="306" y="121"/>
      <point x="308" y="117"/>
      <point x="306" y="115" type="curve" smooth="yes"/>
      <point x="264" y="21"/>
      <point x="200" y="-15"/>
      <point x="149" y="-15" type="curve" smooth="yes"/>
      <point x="64" y="-15"/>
      <point x="56.23809523809523" y="39.99999999999997"/>
      <point x="132" y="255" type="curve" smooth="yes"/>
      <point x="264" y="627" type="line" smooth="yes"/>
      <point x="300.2325581395349" y="731.8837209302326"/>
      <point x="312.974358974359" y="831.0"/>
      <point x="252" y="831" type="curve" smooth="yes"/>
      <point x="218" y="831"/>
      <point x="182" y="809"/>
      <point x="126" y="739" type="curve" smooth="yes"/>
      <point x="123" y="735"/>
      <point x="120" y="733"/>
      <point x="118" y="735" type="curve" smooth="yes"/>
      <point x="116" y="737"/>
      <point x="115" y="739"/>
      <point x="118" y="743" type="curve" smooth="yes"/>
      <point x="182" y="827"/>
      <point x="238" y="865"/>
      <point x="286" y="865" type="curve" smooth="yes"/>
      <point x="358" y="865"/>
      <point x="375.375" y="817.09375"/>
      <point x="308" y="627" type="curve" smooth="yes"/>
      <point x="172" y="245" type="line" smooth="yes"/>
    </contour>
    <contour>
      <point x="370" y="1062" type="curve" smooth="yes"/>
      <point x="400" y="1062"/>
      <point x="444" y="1156"/>
      <point x="444" y="1208" type="curve" smooth="yes"/>
      <point x="444" y="1222"/>
      <point x="440" y="1236"/>
      <point x="424" y="1236" type="curve" smooth="yes"/>
      <point x="392" y="1236"/>
      <point x="348" y="1130"/>
      <point x="348" y="1090" type="curve" smooth="yes"/>
      <point x="348" y="1074"/>
      <point x="352" y="1062"/>
    </contour>
  </outline>
</glyph>
<glyph name="j" format="2">
  <advance width="426"/>
  <unicode hex="006A"/>
  <outline>
    <contour>
      <point x="452.0" y="682.0" type="line" smooth="yes"/>
      <point x="460.0" y="732.0"/>
      <point x="496.0" y="792.0"/>
      <point x="494.0" y="824.0" type="curve" smooth="yes"/>
      <point x="492.0" y="850.0"/>
      <point x="474.0" y="870.0"/>
      <point x="440.0" y="870.0" type="curve" smooth="yes"/>
      <point x="372.0" y="870.0"/>
      <point x="234.0" y="738.0"/>
      <point x="236.0" y="686.0" type="curve" smooth="yes"/>
      <point x="236.0" y="692.0"/>
      <point x="236.0" y="692.0"/>
      <point x="234.0" y="692.0" type="curve" smooth="yes"/>
      <point x="240.0" y="692.0"/>
      <point x="240.0" y="704.0"/>
      <point x="248.0" y="720.0" type="curve" smooth="yes"/>
      <point x="284.0" y="796.0"/>
      <point x="334.0" y="844.0"/>
      <point x="390.0" y="844.0" type="curve" smooth="yes"/>
      <point x="420.0" y="844.0"/>
      <point x="432.0" y="834.0"/>
      <point x="432.0" y="810.0" type="curve" smooth="yes"/>
      <point x="434.0" y="782.0"/>
      <point x="422.0" y="748.0"/>
      <point x="410.0" y="696.0" type="curve" smooth="yes"/>
      <point x="228.0" y="-26.0" type="line" smooth="yes"/>
      <point x="210.0" y="-100.0"/>
      <point x="156.0" y="-176.0"/>
      <point x="156.0" y="-360.0" type="curve" smooth="yes"/>
      <point x="156.0" y="-412.0"/>
      <point x="148.0" y="-440.0"/>
      <point x="140.0" y="-440.0" type="curve" smooth="yes"/>
      <point x="108.0" y="-440.0"/>
      <point x="78.0" y="-378.0"/>
      <point x="40.0" y="-378.0" type="curve" smooth="yes"/>
      <point x="10.0" y="-378.0"/>
      <point x="-10.0" y="-412.0"/>
      <point x="-10.0" y="-442.0" type="curve" smooth="yes"/>
      <point x="-10.0" y="-460.0"/>
      <point x="4.0" y="-474.0"/>
      <point x="30.0" y="-474.0" type="curve" smooth="yes"/>
      <point x="112.0" y="-474.0"/>
      <point x="202.0" y="-406.0"/>
      <point x="246.0" y="-206.0" type="curve" smooth="yes"/>
    </contour>
    <contour>
      <point x="370.0" y="1062.0" type="curve" smooth="yes"/>
      <point x="400.0" y="1062.0"/>
      <point x="444.0" y="1156.0"/>
      <point x="444.0" y="1208.0" type="curve" smooth="yes"/>
      <point x="444.0" y="1222.0"/>
      <point x="440.0" y="1236.0"/>
      <point x="424.0" y="1236.0" type="curve" smooth="yes"/>
      <point x="392.0" y="1236.0"/>
      <point x="348.0" y="1130.0"/>
      <point x="348.0" y="1090.0" type="curve" smooth="yes"/>
      <point x="348.0" y="1074.0"/>
      <point x="352.0" y="1062.0"/>
    </contour>
  </outline>
</glyph>
<glyph name="k" format="1">
  <advance width="402"/>
  <unicode hex="006B"/>
  <outline>
    <contour>
      <point x="164" y="223" type="line"/>
      <point x="225" y="345"/>
      <point x="315" y="435"/>
      <point x="416" y="435" type="curve" smooth="yes"/>
      <point x="448" y="435"/>
      <point x="465" y="417"/>
      <point x="465" y="384" type="curve" smooth="yes"/>
      <point x="465" y="318"/>
      <point x="402" y="264"/>
      <point x="135" y="168" type="curve"/>
      <point x="133" y="166" type="line"/>
      <point x="383" y="260"/>
      <point x="441" y="312"/>
      <point x="441" y="372" type="curve" smooth="yes"/>
      <point x="441" y="405"/>
      <point x="418" y="420"/>
      <point x="382" y="420" type="curve" smooth="yes"/>
      <point x="301" y="420"/>
      <point x="181" y="303"/>
      <point x="145" y="181" type="curve" smooth="yes"/>
      <point x="131" y="133"/>
      <point x="117" y="102"/>
      <point x="117" y="79" type="curve" smooth="yes"/>
      <point x="117" y="54"/>
      <point x="125" y="43"/>
      <point x="125" y="27" type="curve" smooth="yes"/>
      <point x="125" y="4"/>
      <point x="106" y="-10"/>
      <point x="83" y="-10" type="curve" smooth="yes"/>
      <point x="79" y="-10"/>
      <point x="75" y="-3"/>
      <point x="75" y="10" type="curve" smooth="yes"/>
      <point x="75" y="26"/>
      <point x="81" y="43"/>
      <point x="88" y="68" type="curve" smooth="yes"/>
      <point x="233" y="512" type="line" smooth="yes"/>
      <point x="269" y="624"/>
      <point x="361" y="709"/>
      <point x="505" y="709" type="curve" smooth="yes"/>
      <point x="560" y="709"/>
      <point x="579" y="699"/>
      <point x="579" y="690" type="curve" smooth="yes"/>
      <point x="579" y="674"/>
      <point x="569" y="666"/>
      <point x="548" y="666" type="curve" smooth="yes"/>
      <point x="514" y="666"/>
      <point x="463" y="689"/>
      <point x="409" y="689" type="curve" smooth="yes"/>
      <point x="336" y="689"/>
      <point x="278" y="607"/>
      <point x="255" y="532" type="curve" smooth="yes"/>
      <point x="203" y="365"/>
      <point x="184" y="307"/>
      <point x="175" y="265" type="curve"/>
    </contour>
    <contour>
      <point x="236" y="219" type="curve"/>
      <point x="262" y="236" type="line"/>
      <point x="316" y="36"/>
      <point x="343" y="11"/>
      <point x="378" y="11" type="curve" smooth="yes"/>
      <point x="407" y="11"/>
      <point x="406" y="55"/>
      <point x="409" y="55" type="curve" smooth="yes"/>
      <point x="403" y="55"/>
      <point x="399" y="56"/>
      <point x="399" y="58" type="curve" smooth="yes"/>
      <point x="399" y="16"/>
      <point x="367" y="-15"/>
      <point x="341" y="-15" type="curve" smooth="yes"/>
      <point x="297" y="-15"/>
      <point x="274" y="24"/>
    </contour>
  </outline>
</glyph>
<glyph name="l" format="2">
  <advance width="403"/>
  <unicode hex="006C"/>
  <outline>
    <contour>
      <point x="633" y="1438" type="curve" smooth="yes"/>
      <point x="513" y="1438.0"/>
      <point x="444" y="1377"/>
      <point x="414" y="1280" type="curve" smooth="yes"/>
      <point x="85" y="201" type="line" smooth="yes"/>
      <point x="34" y="34"/>
      <point x="67.3841463414634" y="-20.0"/>
      <point x="139" y="-20" type="curve" smooth="yes"/>
      <point x="207" y="-20"/>
      <point x="264" y="14"/>
      <point x="301" y="111" type="curve" smooth="yes"/>
      <point x="304" y="119"/>
      <point x="304" y="121"/>
      <point x="298" y="122" type="curve" smooth="yes"/>
      <point x="296" y="123"/>
      <point x="294" y="121"/>
      <point x="290" y="113" type="curve" smooth="yes"/>
      <point x="255" y="38"/>
      <point x="215" y="18"/>
      <point x="175" y="18" type="curve" smooth="yes"/>
      <point x="101.9" y="18.0"/>
      <point x="102" y="101"/>
      <point x="130" y="194" type="curve" smooth="yes"/>
      <point x="409" y="1108" type="line" smooth="yes"/>
      <point x="421" y="1147"/>
      <point x="425.0" y="1193.0"/>
      <point x="425.0" y="1246" type="curve" smooth="yes"/>
      <point x="425" y="1318"/>
      <point x="488" y="1404.0"/>
      <point x="543" y="1404.0" type="curve" smooth="yes"/>
      <point x="589" y="1404"/>
      <point x="617" y="1380"/>
      <point x="650" y="1380" type="curve" smooth="yes"/>
      <point x="676.0" y="1380.0"/>
      <point x="692.0" y="1389.0"/>
      <point x="692" y="1407" type="curve" smooth="yes"/>
      <point x="692.0" y="1424"/>
      <point x="678.0" y="1438.0"/>
    </contour>
  </outline>
</glyph>
<glyph name="m" format="2">
  <advance width="1240"/>
  <unicode hex="006D"/>
  <outline>
    <contour>
      <point x="474" y="60" type="line" smooth="yes"/>
      <point x="469" y="46"/>
      <point x="458" y="22"/>
      <point x="458" y="2" type="curve" smooth="yes"/>
      <point x="458" y="-12"/>
      <point x="468" y="-20"/>
      <point x="482" y="-20" type="curve" smooth="yes"/>
      <point x="510" y="-20"/>
      <point x="540" y="2"/>
      <point x="540" y="24" type="curve" smooth="yes"/>
      <point x="540" y="38"/>
      <point x="530" y="46"/>
      <point x="530" y="60" type="curve" smooth="yes"/>
      <point x="530" y="82"/>
      <point x="544" y="136"/>
      <point x="588" y="278" type="curve" smooth="yes"/>
      <point x="702" y="640"/>
      <point x="931" y="840"/>
      <point x="1050" y="840" type="curve" smooth="yes"/>
      <point x="1092" y="840"/>
      <point x="1114" y="808"/>
      <point x="1114" y="762" type="curve" smooth="yes"/>
      <point x="1114" y="734"/>
      <point x="1108" y="692"/>
      <point x="1096" y="654" type="curve" smooth="yes"/>
      <point x="940" y="160" type="line" smooth="yes"/>
      <point x="922" y="104"/>
      <point x="918" y="80"/>
      <point x="918" y="46" type="curve" smooth="yes"/>
      <point x="918" y="6"/>
      <point x="942" y="-20"/>
      <point x="980" y="-20" type="curve" smooth="yes"/>
      <point x="1050" y="-20"/>
      <point x="1100" y="20"/>
      <point x="1146" y="110" type="curve" smooth="yes"/>
      <point x="1148" y="114"/>
      <point x="1146" y="118"/>
      <point x="1144" y="118" type="curve" smooth="yes"/>
      <point x="1142" y="118"/>
      <point x="1140" y="118"/>
      <point x="1138" y="114" type="curve" smooth="yes"/>
      <point x="1084" y="38"/>
      <point x="1057" y="22"/>
      <point x="1022" y="22" type="curve" smooth="yes"/>
      <point x="993" y="22"/>
      <point x="975" y="44"/>
      <point x="975" y="85" type="curve" smooth="yes"/>
      <point x="975" y="113"/>
      <point x="984" y="149"/>
      <point x="996" y="186" type="curve" smooth="yes"/>
      <point x="1134" y="614" type="line" smooth="yes"/>
      <point x="1156" y="682"/>
      <point x="1168" y="730"/>
      <point x="1168" y="794" type="curve" smooth="yes"/>
      <point x="1168" y="838"/>
      <point x="1143" y="870"/>
      <point x="1090" y="870" type="curve" smooth="yes"/>
      <point x="954" y="870"/>
      <point x="765" y="707"/>
      <point x="644" y="444" type="curve"/>
      <point x="650" y="442" type="line"/>
      <point x="700" y="612"/>
      <point x="748" y="714"/>
      <point x="748" y="790" type="curve" smooth="yes"/>
      <point x="748" y="840"/>
      <point x="723" y="870"/>
      <point x="666" y="870" type="curve" smooth="yes"/>
      <point x="527" y="870"/>
      <point x="346" y="732"/>
      <point x="226" y="442" type="curve"/>
      <point x="230" y="438" type="line"/>
      <point x="252" y="546"/>
      <point x="342" y="700"/>
      <point x="342" y="804" type="curve" smooth="yes"/>
      <point x="342" y="850"/>
      <point x="320" y="870"/>
      <point x="288" y="870" type="curve" smooth="yes"/>
      <point x="222" y="870"/>
      <point x="164" y="826"/>
      <point x="108" y="746" type="curve" smooth="yes"/>
      <point x="104" y="742"/>
      <point x="106" y="738"/>
      <point x="108" y="738" type="curve" smooth="yes"/>
      <point x="110" y="738"/>
      <point x="112" y="738"/>
      <point x="116" y="742" type="curve" smooth="yes"/>
      <point x="168" y="809"/>
      <point x="205" y="833"/>
      <point x="241" y="833" type="curve" smooth="yes"/>
      <point x="272" y="833"/>
      <point x="287" y="814"/>
      <point x="287" y="771" type="curve" smooth="yes"/>
      <point x="287" y="738"/>
      <point x="276" y="699"/>
      <point x="264" y="664" type="curve" smooth="yes"/>
      <point x="60" y="76" type="line" smooth="yes"/>
      <point x="50" y="48"/>
      <point x="40" y="20"/>
      <point x="38" y="0" type="curve" smooth="yes"/>
      <point x="38" y="-14"/>
      <point x="48" y="-20"/>
      <point x="62" y="-20" type="curve" smooth="yes"/>
      <point x="92" y="-20"/>
      <point x="120" y="0"/>
      <point x="120" y="24" type="curve" smooth="yes"/>
      <point x="120" y="40"/>
      <point x="110" y="50"/>
      <point x="110" y="62" type="curve" smooth="yes"/>
      <point x="110" y="86"/>
      <point x="120" y="126"/>
      <point x="148" y="214" type="curve" smooth="yes"/>
      <point x="290" y="646"/>
      <point x="473" y="845"/>
      <point x="632" y="845" type="curve" smooth="yes"/>
      <point x="679" y="845"/>
      <point x="698" y="809"/>
      <point x="698" y="766" type="curve" smooth="yes"/>
      <point x="698" y="731"/>
      <point x="691" y="699"/>
      <point x="680" y="668" type="curve" smooth="yes"/>
    </contour>
  </outline>
</glyph>
<glyph name="n" format="1">
  <advance width="423"/>
  <unicode hex="006E"/>
  <outline>
    <contour>
      <point x="111" y="339" type="curve" smooth="yes"/>
      <point x="111" y="339"/>
      <point x="115" y="344"/>
      <point x="115" y="347" type="curve" smooth="yes"/>
      <point x="133" y="393"/>
      <point x="162" y="415"/>
      <point x="187" y="415" type="curve" smooth="yes"/>
      <point x="202" y="415"/>
      <point x="208" y="406"/>
      <point x="209" y="397" type="curve" smooth="yes"/>
      <point x="210" y="371"/>
      <point x="205" y="345"/>
      <point x="193" y="314" type="curve" smooth="yes"/>
      <point x="91" y="51" type="line" smooth="yes"/>
      <point x="86" y="34"/>
      <point x="84" y="18"/>
      <point x="86" y="6" type="curve" smooth="yes"/>
      <point x="88" y="-4"/>
      <point x="89" y="-10"/>
      <point x="92" y="-10" type="curve" smooth="yes"/>
      <point x="100" y="-10"/>
      <point x="117" y="-5"/>
      <point x="115" y="10" type="curve" smooth="yes"/>
      <point x="114" y="18"/>
      <point x="117" y="18"/>
      <point x="114" y="25" type="curve" smooth="yes"/>
      <point x="113" y="49"/>
      <point x="123" y="87"/>
      <point x="154" y="162" type="curve" smooth="yes"/>
      <point x="222" y="328"/>
      <point x="317" y="420"/>
      <point x="371" y="420" type="curve" smooth="yes"/>
      <point x="400" y="420"/>
      <point x="407" y="403"/>
      <point x="408" y="381" type="curve" smooth="yes"/>
      <point x="408" y="364"/>
      <point x="405" y="338"/>
      <point x="397" y="315" type="curve" smooth="yes"/>
      <point x="327" y="100" type="line" smooth="yes"/>
      <point x="318" y="70"/>
      <point x="307" y="47"/>
      <point x="308" y="26" type="curve" smooth="yes"/>
      <point x="310" y="10"/>
      <point x="314" y="-10"/>
      <point x="327" y="-10" type="curve" smooth="yes"/>
      <point x="374" y="-10"/>
      <point x="425" y="34"/>
      <point x="424" y="73" type="curve" smooth="yes"/>
      <point x="423" y="69"/>
      <point x="425" y="65"/>
      <point x="425" y="65" type="curve" smooth="yes"/>
      <point x="424" y="65"/>
      <point x="424" y="63"/>
      <point x="420" y="52" type="curve" smooth="yes"/>
      <point x="412" y="17"/>
      <point x="387" y="2"/>
      <point x="366" y="2" type="curve" smooth="yes"/>
      <point x="348" y="2"/>
      <point x="334" y="14"/>
      <point x="334" y="36" type="curve" smooth="yes"/>
      <point x="332" y="54"/>
      <point x="339" y="75"/>
      <point x="348" y="99" type="curve" smooth="yes"/>
      <point x="404" y="271" type="line" smooth="yes"/>
      <point x="421" y="320"/>
      <point x="436" y="348"/>
      <point x="436" y="392" type="curve" smooth="yes"/>
      <point x="436" y="421"/>
      <point x="428" y="435"/>
      <point x="406" y="435" type="curve" smooth="yes"/>
      <point x="330" y="435"/>
      <point x="249" y="366"/>
      <point x="172" y="212" type="curve"/>
      <point x="201" y="269" type="line"/>
      <point x="209" y="329"/>
      <point x="236" y="369"/>
      <point x="236" y="408" type="curve" smooth="yes"/>
      <point x="236" y="422"/>
      <point x="225" y="435"/>
      <point x="207" y="435" type="curve" smooth="yes"/>
      <point x="170" y="435"/>
      <point x="113" y="373"/>
      <point x="116" y="334" type="curve" smooth="yes"/>
      <point x="116" y="337"/>
      <point x="111" y="339"/>
    </contour>
  </outline>
</glyph>
<glyph name="o" format="2">
  <advance width="759"/>
  <unicode hex="006F"/>
  <outline>
    <contour>
      <point x="506" y="861" type="curve" smooth="yes"/>
      <point x="317" y="876"/>
      <point x="95" y="687"/>
      <point x="45" y="395" type="curve" smooth="yes"/>
      <point x="-3" y="116"/>
      <point x="124" y="-15"/>
      <point x="281" y="-15" type="curve" smooth="yes"/>
      <point x="469" y="-15"/>
      <point x="669" y="182"/>
      <point x="712" y="433" type="curve" smooth="yes"/>
      <point x="757" y="695"/>
      <point x="671" y="848"/>
    </contour>
    <contour>
      <point x="283" y="-7" type="curve" smooth="yes"/>
      <point x="145.01657458563537" y="-7.0"/>
      <point x="46.9671574957845" y="91.80938468141596"/>
      <point x="98" y="388" type="curve" smooth="yes"/>
      <point x="146.0137622659606" y="667.0799931708959"/>
      <point x="337.3639371033617" y="867.1379812081502"/>
      <point x="505" y="853" type="curve" smooth="yes"/>
      <point x="632" y="842"/>
      <point x="706" y="721"/>
      <point x="656" y="440" type="curve" smooth="yes"/>
      <point x="613" y="195"/>
      <point x="444" y="-7"/>
    </contour>
  </outline>
</glyph>
<glyph name="p" format="2">
  <advance width="743"/>
  <unicode hex="0070"/>
  <outline>
    <contour>
      <point x="384" y="1001" type="line" smooth="yes"/>
      <point x="385" y="1005"/>
      <point x="386" y="1009"/>
      <point x="386" y="1015" type="curve" smooth="yes"/>
      <point x="386.0" y="1020.0"/>
      <point x="384.0" y="1022.0"/>
      <point x="381" y="1022" type="curve" smooth="yes"/>
      <point x="366" y="1022"/>
      <point x="336" y="989"/>
      <point x="330" y="969" type="curve" smooth="yes"/>
      <point x="-87" y="-424" type="line" smooth="yes"/>
      <point x="-97" y="-457"/>
      <point x="-127" y="-471"/>
      <point x="-194" y="-480" type="curve" smooth="yes"/>
      <point x="-200" y="-481"/>
      <point x="-202" y="-483"/>
      <point x="-202" y="-486" type="curve" smooth="yes"/>
      <point x="-202" y="-489"/>
      <point x="-199" y="-490"/>
      <point x="-194" y="-490" type="curve" smooth="yes"/>
      <point x="84" y="-483" type="line" smooth="yes"/>
      <point x="89" y="-483"/>
      <point x="91" y="-481"/>
      <point x="91" y="-478" type="curve" smooth="yes"/>
      <point x="91" y="-475"/>
      <point x="89" y="-473"/>
      <point x="85" y="-473" type="curve" smooth="yes"/>
      <point x="2" y="-463" type="line" smooth="yes"/>
      <point x="-32" y="-459"/>
      <point x="-43" y="-447"/>
      <point x="-35" y="-420" type="curve" smooth="yes"/>
    </contour>
    <contour>
      <point x="64" y="610" type="curve" smooth="yes"/>
      <point x="186" y="794"/>
      <point x="338" y="877"/>
      <point x="484" y="861" type="curve" smooth="yes"/>
      <point x="613" y="847"/>
      <point x="686" y="712"/>
      <point x="654" y="469" type="curve" smooth="yes"/>
      <point x="615.0" y="171.0"/>
      <point x="435.0" y="-15"/>
      <point x="241" y="-5" type="curve" smooth="yes"/>
      <point x="173" y="-1"/>
      <point x="112" y="25"/>
      <point x="84" y="83" type="curve"/>
      <point x="74" y="77" type="line"/>
      <point x="105" y="14"/>
      <point x="163" y="-15"/>
      <point x="240" y="-19" type="curve" smooth="yes"/>
      <point x="464" y="-29"/>
      <point x="679" y="184"/>
      <point x="715" y="477" type="curve" smooth="yes"/>
      <point x="743" y="705"/>
      <point x="662.0" y="855.0"/>
      <point x="489" y="873" type="curve" smooth="yes"/>
      <point x="330" y="890"/>
      <point x="172.0" y="798.0"/>
      <point x="49" y="617" type="curve" smooth="yes"/>
      <point x="46.0" y="613.0"/>
      <point x="47.0" y="607.0"/>
      <point x="51" y="604" type="curve" smooth="yes"/>
      <point x="54.579695828170635" y="602.2101520859147"/>
      <point x="60" y="604"/>
    </contour>
  </outline>
</glyph>
<glyph name="r" format="2">
  <advance width="596"/>
  <unicode hex="0072"/>
  <outline>
    <contour>
      <point x="107" y="732" type="curve" smooth="yes"/>
      <point x="111" y="732"/>
      <point x="115" y="734"/>
      <point x="117" y="738" type="curve" smooth="yes"/>
      <point x="175" y="810"/>
      <point x="213" y="830.0"/>
      <point x="247" y="830" type="curve" smooth="yes"/>
      <point x="274" y="830.0"/>
      <point x="289.0" y="809"/>
      <point x="289" y="773" type="curve" smooth="yes"/>
      <point x="289.0" y="745"/>
      <point x="282" y="714"/>
      <point x="265" y="662" type="curve" smooth="yes"/>
      <point x="73" y="70" type="line" smooth="yes"/>
      <point x="63" y="40"/>
      <point x="55.0" y="25"/>
      <point x="55" y="10" type="curve" smooth="yes"/>
      <point x="55.0" y="-4"/>
      <point x="62" y="-15.0"/>
      <point x="79" y="-15" type="curve" smooth="yes"/>
      <point x="119.0909090909091" y="-15.0"/>
      <point x="142.0" y="8.0"/>
      <point x="142" y="31" type="curve" smooth="yes"/>
      <point x="142.0" y="45"/>
      <point x="132.0" y="55"/>
      <point x="132.0" y="78" type="curve" smooth="yes"/>
      <point x="132.0" y="122"/>
      <point x="144" y="160"/>
      <point x="164" y="224" type="curve" smooth="yes"/>
      <point x="297" y="649"/>
      <point x="476.54079254079255" y="849.0"/>
      <point x="583" y="849.0" type="curve" smooth="yes"/>
      <point x="605" y="849"/>
      <point x="612.0" y="832.0"/>
      <point x="612.0" y="805" type="curve" smooth="yes"/>
      <point x="612.0" y="788.3962264150944"/>
      <point x="604.0" y="770.7547169811321"/>
      <point x="604" y="750" type="curve" smooth="yes"/>
      <point x="604" y="739"/>
      <point x="616" y="729"/>
      <point x="631" y="729" type="curve" smooth="yes"/>
      <point x="658.8181818181819" y="729.0"/>
      <point x="682.0" y="759.983606557377"/>
      <point x="682" y="792" type="curve" smooth="yes"/>
      <point x="682.0" y="835.8"/>
      <point x="656" y="865"/>
      <point x="605" y="865.0" type="curve" smooth="yes"/>
      <point x="456.17788461538464" y="865.0"/>
      <point x="289.155193558011" y="605.9801662804929"/>
      <point x="195" y="338" type="curve"/>
      <point x="197" y="336" type="line"/>
      <point x="308" y="657"/>
      <point x="338.0" y="744.0"/>
      <point x="338" y="796" type="curve" smooth="yes"/>
      <point x="338" y="834"/>
      <point x="322.0" y="864.0"/>
      <point x="284" y="864" type="curve" smooth="yes"/>
      <point x="225.01123595505618" y="864.0"/>
      <point x="172.65024449319736" y="833.4972264589712"/>
      <point x="109" y="742" type="curve" smooth="yes"/>
      <point x="105" y="738"/>
      <point x="103" y="732"/>
    </contour>
  </outline>
</glyph>
<glyph name="s" format="2">
  <advance width="274"/>
  <unicode hex="0073"/>
  <outline>
    <contour>
      <point x="106" y="-4" type="curve" smooth="yes"/>
      <point x="73" y="-4"/>
      <point x="50" y="11"/>
      <point x="25" y="55" type="curve" smooth="yes"/>
      <point x="16" y="70"/>
      <point x="11" y="75"/>
      <point x="6" y="75" type="curve" smooth="yes"/>
      <point x="-2" y="75"/>
      <point x="-5" y="68"/>
      <point x="-5" y="60" type="curve" smooth="yes"/>
      <point x="-5" y="22"/>
      <point x="44" y="-10"/>
      <point x="94" y="-10" type="curve" smooth="yes"/>
      <point x="167" y="-10"/>
      <point x="213" y="28"/>
      <point x="213" y="91" type="curve" smooth="yes"/>
      <point x="213" y="127"/>
      <point x="201" y="148"/>
      <point x="143" y="218" type="curve" smooth="yes"/>
      <point x="98" y="272"/>
      <point x="86" y="290"/>
      <point x="86" y="336" type="curve" smooth="yes"/>
      <point x="86" y="388"/>
      <point x="127" y="427"/>
      <point x="191" y="427" type="curve" smooth="yes"/>
      <point x="217" y="427"/>
      <point x="240" y="416"/>
      <point x="255" y="388" type="curve" smooth="yes"/>
      <point x="262" y="375"/>
      <point x="268" y="370"/>
      <point x="274" y="370" type="curve" smooth="yes"/>
      <point x="281" y="370"/>
      <point x="287" y="374"/>
      <point x="287" y="383" type="curve" smooth="yes"/>
      <point x="287" y="410"/>
      <point x="258" y="433"/>
      <point x="200" y="433" type="curve" smooth="yes"/>
      <point x="121" y="433"/>
      <point x="68" y="373"/>
      <point x="68" y="320" type="curve" smooth="yes"/>
      <point x="68" y="280"/>
      <point x="77" y="258"/>
      <point x="120" y="204" type="curve" smooth="yes"/>
      <point x="180" y="128"/>
      <point x="199" y="108"/>
      <point x="199" y="75" type="curve" smooth="yes"/>
      <point x="199" y="30"/>
      <point x="162" y="-4"/>
    </contour>
  </outline>
</glyph>
<glyph name="t" format="2">
  <advance width="436"/>
  <unicode hex="0074"/>
  <outline>
    <contour>
      <point x="264.0" y="824.0" type="line" smooth="yes"/>
      <point x="272.0" y="822.0"/>
      <point x="274.0" y="816.0"/>
      <point x="274.0" y="808.0" type="curve" smooth="yes"/>
      <point x="274.0" y="796.0"/>
      <point x="272.0" y="780.0"/>
      <point x="268.0" y="770.0" type="curve" smooth="yes"/>
      <point x="112.0" y="248.0" type="line" smooth="yes"/>
      <point x="86.0" y="160.0"/>
      <point x="80.0" y="122.0"/>
      <point x="80.0" y="80.0" type="curve" smooth="yes"/>
      <point x="80.0" y="16.0"/>
      <point x="110.0" y="-18.0"/>
      <point x="170.0" y="-18.0" type="curve" smooth="yes"/>
      <point x="240.0" y="-18.0"/>
      <point x="312.0" y="34.0"/>
      <point x="348.0" y="128.0" type="curve" smooth="yes"/>
      <point x="348.0" y="132.0"/>
      <point x="346.0" y="134.0"/>
      <point x="344.0" y="134.0" type="curve" smooth="yes"/>
      <point x="342.0" y="134.0"/>
      <point x="340.0" y="132.0"/>
      <point x="338.0" y="128.0" type="curve" smooth="yes"/>
      <point x="303.44573534401354" y="42.766147181900024"/>
      <point x="263.6393442622951" y="18.0"/>
      <point x="212.0" y="18.0" type="curve" smooth="yes"/>
      <point x="158.66666666666669" y="18.0"/>
      <point x="132.0" y="51.46341463414633"/>
      <point x="132.0" y="116.0" type="curve" smooth="yes"/>
      <point x="132.0" y="148.0"/>
      <point x="136.0" y="184.0"/>
      <point x="156.0" y="248.0" type="curve" smooth="yes"/>
      <point x="370.0" y="948.0" type="line" smooth="yes"/>
      <point x="374.0" y="958.0"/>
      <point x="374.0" y="962.0"/>
      <point x="374.0" y="966.0" type="curve" smooth="yes"/>
      <point x="374.0" y="970.0"/>
      <point x="372.0" y="972.0"/>
      <point x="370.0" y="972.0" type="curve" smooth="yes"/>
      <point x="366.0" y="972.0"/>
      <point x="364.0" y="968.0"/>
      <point x="362.0" y="964.0" type="curve" smooth="yes"/>
      <point x="292.0" y="858.0" type="line" smooth="yes"/>
      <point x="288.0" y="850.0"/>
      <point x="282.0" y="850.0"/>
      <point x="272.0" y="850.0" type="curve" smooth="yes"/>
      <point x="166.0" y="850.0" type="line" smooth="yes"/>
      <point x="162.0" y="850.0"/>
      <point x="158.0" y="848.0"/>
      <point x="158.0" y="844.0" type="curve" smooth="yes"/>
      <point x="158.0" y="842.0"/>
      <point x="160.0" y="838.0"/>
      <point x="164.0" y="838.0" type="curve" smooth="yes"/>
    </contour>
    <contour>
      <point x="316.0" y="832.0" type="line"/>
      <point x="502.0" y="832.0" type="line" smooth="yes"/>
      <point x="516.0" y="832.0"/>
      <point x="526.0" y="836.0"/>
      <point x="526.0" y="842.0" type="curve" smooth="yes"/>
      <point x="526.0" y="848.0"/>
      <point x="524.0" y="850.0"/>
      <point x="518.0" y="850.0" type="curve" smooth="yes"/>
      <point x="316.0" y="850.0" type="line"/>
    </contour>
  </outline>
</glyph>
<glyph name="u" format="2">
  <advance width="832"/>
  <unicode hex="0075"/>
  <anchor x="435" y="1016.0" name="center"/>
  <outline>
    <contour>
      <point x="737.0" y="117.0" type="curve" smooth="yes"/>
      <point x="735.0" y="119.0"/>
      <point x="731.0" y="117.0"/>
      <point x="729.0" y="113.0" type="curve" smooth="yes"/>
      <point x="669.0" y="33.0"/>
      <point x="627.0" y="19.0"/>
      <point x="601.0" y="19.0" type="curve" smooth="yes"/>
      <point x="553.0" y="19.0"/>
      <point x="544.0" y="84.0"/>
      <point x="589.0" y="213.0" type="curve" smooth="yes"/>
      <point x="799.0" y="809.0" type="line" smooth="yes"/>
      <point x="812.0" y="844.0"/>
      <point x="812.0" y="865.0"/>
      <point x="781.0" y="865.0" type="curve" smooth="yes"/>
      <point x="753.0" y="865.0"/>
      <point x="725.0" y="841.0"/>
      <point x="725.0" y="821.0" type="curve" smooth="yes"/>
      <point x="725.0" y="805.0"/>
      <point x="735.0" y="799.0"/>
      <point x="735.0" y="783.0" type="curve" smooth="yes"/>
      <point x="735.0" y="761.0"/>
      <point x="731.0" y="735.0"/>
      <point x="683.0" y="587.0" type="curve" smooth="yes"/>
      <point x="546.0" y="164.0"/>
      <point x="316.0" y="15.0"/>
      <point x="207.0" y="15.0" type="curve" smooth="yes"/>
      <point x="143.0" y="15.0"/>
      <point x="120.0" y="79.0"/>
      <point x="163.0" y="211.0" type="curve" smooth="yes"/>
      <point x="301.0" y="637.0" type="line" smooth="yes"/>
      <point x="358.0" y="816.0"/>
      <point x="340.0" y="865.0"/>
      <point x="279.0" y="865.0" type="curve" smooth="yes"/>
      <point x="221.0" y="865.0"/>
      <point x="162.0" y="834.0"/>
      <point x="109.0" y="735.0" type="curve" smooth="yes"/>
      <point x="107.0" y="731.0"/>
      <point x="109.0" y="727.0"/>
      <point x="111.0" y="727.0" type="curve" smooth="yes"/>
      <point x="113.0" y="727.0"/>
      <point x="115.0" y="729.0"/>
      <point x="117.0" y="733.0" type="curve" smooth="yes"/>
      <point x="160.0" y="800.0"/>
      <point x="196.0" y="819.0"/>
      <point x="236.0" y="819.0" type="curve" smooth="yes"/>
      <point x="279.0" y="819.0"/>
      <point x="298.0" y="780.0"/>
      <point x="255.0" y="647.0" type="curve" smooth="yes"/>
      <point x="117.0" y="225.0" type="line" smooth="yes"/>
      <point x="73.0" y="91.0"/>
      <point x="67.0" y="-15.0"/>
      <point x="163.0" y="-15.0" type="curve" smooth="yes"/>
      <point x="294.0" y="-15.0"/>
      <point x="474.0" y="99.0"/>
      <point x="619.0" y="408.0" type="curve"/>
      <point x="615.0" y="410.0" type="line"/>
      <point x="609.0" y="371.0"/>
      <point x="503.0" y="140.0"/>
      <point x="503.0" y="55.0" type="curve" smooth="yes"/>
      <point x="503.0" y="5.0"/>
      <point x="524.0" y="-15.0"/>
      <point x="558.0" y="-15.0" type="curve" smooth="yes"/>
      <point x="625.0" y="-15.0"/>
      <point x="677.0" y="25.0"/>
      <point x="737.0" y="109.0" type="curve" smooth="yes"/>
      <point x="739.0" y="113.0"/>
      <point x="739.0" y="115.0"/>
    </contour>
  </outline>
</glyph>
<glyph name="v" format="2">
  <advance width="341"/>
  <unicode hex="0076"/>
  <outline>
    <contour>
      <point x="337" y="389" type="curve" smooth="yes"/>
      <point x="337" y="420"/>
      <point x="324" y="435"/>
      <point x="305" y="435" type="curve" smooth="yes"/>
      <point x="298" y="435"/>
      <point x="292" y="426"/>
      <point x="292" y="414" type="curve" smooth="yes"/>
      <point x="292" y="395"/>
      <point x="304" y="383"/>
      <point x="321" y="375" type="curve" smooth="yes"/>
      <point x="336" y="371"/>
      <point x="351" y="361"/>
      <point x="351" y="340" type="curve" smooth="yes"/>
      <point x="351" y="169"/>
      <point x="229" y="16"/>
      <point x="129" y="16" type="curve" smooth="yes"/>
      <point x="83" y="16"/>
      <point x="62" y="46"/>
      <point x="62" y="90" type="curve" smooth="yes"/>
      <point x="62" y="190"/>
      <point x="114" y="268"/>
      <point x="240" y="483" type="curve" smooth="yes"/>
      <point x="223" y="468"/>
      <point x="228" y="455"/>
      <point x="228" y="444" type="curve" smooth="yes"/>
      <point x="228" y="438"/>
      <point x="231" y="435"/>
      <point x="240" y="435" type="curve" smooth="yes"/>
      <point x="237" y="435"/>
      <point x="234" y="418"/>
      <point x="230" y="418" type="curve" smooth="yes"/>
      <point x="205" y="418"/>
      <point x="152" y="425"/>
      <point x="128" y="425" type="curve" smooth="yes"/>
      <point x="72" y="425"/>
      <point x="30" y="378"/>
      <point x="30" y="341" type="curve" smooth="yes"/>
      <point x="30" y="326"/>
      <point x="39" y="317"/>
      <point x="55" y="317" type="curve" smooth="yes"/>
      <point x="61" y="317"/>
      <point x="66" y="323"/>
      <point x="66" y="333" type="curve" smooth="yes"/>
      <point x="66" y="334"/>
      <point x="63" y="340"/>
      <point x="53" y="347" type="curve" smooth="yes"/>
      <point x="44" y="355"/>
      <point x="35" y="368"/>
      <point x="35" y="380" type="curve" smooth="yes"/>
      <point x="35" y="398"/>
      <point x="50" y="416"/>
      <point x="77" y="416" type="curve" smooth="yes"/>
      <point x="115" y="416"/>
      <point x="184" y="393"/>
      <point x="229" y="393" type="curve" smooth="yes"/>
      <point x="214" y="393"/>
      <point x="203" y="378"/>
      <point x="205" y="366" type="curve"/>
      <point x="205" y="389"/>
      <point x="205" y="401"/>
      <point x="197" y="375" type="curve" smooth="yes"/>
      <point x="100" y="224"/>
      <point x="45" y="139"/>
      <point x="45" y="80" type="curve" smooth="yes"/>
      <point x="45" y="26"/>
      <point x="68" y="-10"/>
      <point x="105" y="-10" type="curve" smooth="yes"/>
      <point x="211" y="-10"/>
      <point x="337" y="161"/>
    </contour>
  </outline>
</glyph>
<glyph name="w" format="2">
  <advance width="1134"/>
  <unicode hex="0077"/>
  <outline>
    <contour>
      <point x="794" y="866" type="curve" smooth="yes"/>
      <point x="785" y="869"/>
      <point x="778" y="862"/>
      <point x="735" y="768" type="curve" smooth="yes"/>
      <point x="646" y="573"/>
      <point x="559" y="256"/>
      <point x="559" y="145" type="curve" smooth="yes"/>
      <point x="559" y="28"/>
      <point x="597" y="-15"/>
      <point x="668" y="-15" type="curve" smooth="yes"/>
      <point x="844" y="-15"/>
      <point x="1092" y="296"/>
      <point x="1092" y="734" type="curve" smooth="yes"/>
      <point x="1092" y="830"/>
      <point x="1072" y="864"/>
      <point x="1045" y="864" type="curve" smooth="yes"/>
      <point x="1027" y="864"/>
      <point x="1011" y="846"/>
      <point x="1011" y="826" type="curve" smooth="yes"/>
      <point x="1011" y="798"/>
      <point x="1026" y="775"/>
      <point x="1047" y="752" type="curve" smooth="yes"/>
      <point x="1063" y="734"/>
      <point x="1073" y="692"/>
      <point x="1073" y="667" type="curve" smooth="yes"/>
      <point x="1073" y="321"/>
      <point x="831" y="9"/>
      <point x="704" y="9" type="curve" smooth="yes"/>
      <point x="643.0" y="9"/>
      <point x="603.0" y="45"/>
      <point x="605" y="149" type="curve" smooth="yes"/>
      <point x="607.0" y="249.0"/>
      <point x="643.0" y="402.0"/>
      <point x="726" y="636" type="curve"/>
      <point x="574.0" y="207.0"/>
      <point x="403.0" y="11.0"/>
      <point x="289" y="11" type="curve" smooth="yes"/>
      <point x="248" y="11"/>
      <point x="216.0" y="47.0"/>
      <point x="216" y="141" type="curve" smooth="yes"/>
      <point x="216" y="449"/>
      <point x="496" y="766"/>
      <point x="507" y="843" type="curve" smooth="yes"/>
      <point x="508" y="852"/>
      <point x="508" y="856"/>
      <point x="504" y="858" type="curve" smooth="yes"/>
      <point x="496" y="861"/>
      <point x="488" y="828"/>
      <point x="446" y="828" type="curve" smooth="yes"/>
      <point x="405" y="828"/>
      <point x="306" y="863"/>
      <point x="244" y="863" type="curve" smooth="yes"/>
      <point x="134" y="863"/>
      <point x="61" y="775"/>
      <point x="61" y="684" type="curve" smooth="yes"/>
      <point x="61" y="644"/>
      <point x="82" y="614"/>
      <point x="118" y="614" type="curve" smooth="yes"/>
      <point x="144" y="614"/>
      <point x="161" y="628"/>
      <point x="161" y="647" type="curve" smooth="yes"/>
      <point x="161" y="663"/>
      <point x="151" y="671"/>
      <point x="122" y="681" type="curve" smooth="yes"/>
      <point x="92" y="691"/>
      <point x="78" y="706"/>
      <point x="78" y="730" type="curve" smooth="yes"/>
      <point x="78" y="774"/>
      <point x="126" y="826"/>
      <point x="223" y="826" type="curve" smooth="yes"/>
      <point x="305" y="826"/>
      <point x="397" y="790"/>
      <point x="468" y="790" type="curve"/>
      <point x="470" y="797" type="line"/>
      <point x="445" y="694"/>
      <point x="164" y="395"/>
      <point x="164" y="127" type="curve" smooth="yes"/>
      <point x="164.0" y="23.0"/>
      <point x="196" y="-15"/>
      <point x="259" y="-15" type="curve" smooth="yes"/>
      <point x="423.0" y="-15.0"/>
      <point x="591" y="203"/>
      <point x="771" y="736" type="curve" smooth="yes"/>
      <point x="808" y="847"/>
      <point x="809.0" y="861.0"/>
    </contour>
  </outline>
</glyph>
<glyph name="x" format="2">
  <advance width="712"/>
  <unicode hex="0078"/>
  <outline>
    <contour>
      <point x="451" y="310" type="line"/>
      <point x="395" y="121"/>
      <point x="280" y="-6"/>
      <point x="170" y="-6" type="curve" smooth="yes"/>
      <point x="136" y="-6"/>
      <point x="120" y="24"/>
      <point x="120" y="48" type="curve" smooth="yes"/>
      <point x="122" y="76"/>
      <point x="136" y="120"/>
      <point x="136" y="146" type="curve" smooth="yes"/>
      <point x="138" y="160"/>
      <point x="126" y="168"/>
      <point x="108" y="168" type="curve" smooth="yes"/>
      <point x="88" y="168"/>
      <point x="70" y="130"/>
      <point x="68" y="82" type="curve" smooth="yes"/>
      <point x="64" y="14"/>
      <point x="102" y="-20"/>
      <point x="168" y="-20" type="curve" smooth="yes"/>
      <point x="223.63636363636363" y="-20.0"/>
      <point x="343" y="-27"/>
      <point x="474" y="305" type="curve"/>
    </contour>
    <contour>
      <point x="493" y="524" type="line" smooth="yes"/>
      <point x="503.27045300184795" y="848.5463148583947"/>
      <point x="473.6056338028169" y="870.0"/>
      <point x="442" y="870" type="curve" smooth="yes"/>
      <point x="306" y="870"/>
      <point x="212" y="720"/>
      <point x="208" y="598" type="curve" smooth="yes"/>
      <point x="208" y="608"/>
      <point x="200" y="604"/>
      <point x="192" y="604" type="curve" smooth="yes"/>
      <point x="190" y="604"/>
      <point x="198" y="608"/>
      <point x="190" y="618" type="curve" smooth="yes"/>
      <point x="206" y="756"/>
      <point x="276" y="854"/>
      <point x="364" y="854" type="curve" smooth="yes"/>
      <point x="434" y="854"/>
      <point x="483" y="776"/>
      <point x="469" y="510" type="curve" smooth="yes"/>
      <point x="462" y="375" type="line" smooth="yes"/>
      <point x="446" y="74"/>
      <point x="470" y="-20"/>
      <point x="510" y="-20" type="curve" smooth="yes"/>
      <point x="588" y="-20"/>
      <point x="692" y="90"/>
      <point x="696" y="202" type="curve" smooth="yes"/>
      <point x="696" y="202"/>
      <point x="694" y="204"/>
      <point x="700" y="204" type="curve" smooth="yes"/>
      <point x="702" y="204"/>
      <point x="698" y="196"/>
      <point x="706" y="202" type="curve" smooth="yes"/>
      <point x="670" y="62"/>
      <point x="614" y="-4"/>
      <point x="558" y="-4" type="curve" smooth="yes"/>
      <point x="510.0" y="-4.0"/>
      <point x="478" y="64"/>
      <point x="488" y="366" type="curve" smooth="yes"/>
    </contour>
    <contour>
      <point x="497" y="531" type="line"/>
      <point x="551" y="732"/>
      <point x="644.0" y="886.0"/>
      <point x="742" y="886" type="curve" smooth="yes"/>
      <point x="782" y="886"/>
      <point x="808" y="860"/>
      <point x="808" y="826" type="curve" smooth="yes"/>
      <point x="806" y="784"/>
      <point x="776" y="738"/>
      <point x="776" y="702" type="curve" smooth="yes"/>
      <point x="774" y="674"/>
      <point x="788" y="656"/>
      <point x="812" y="656" type="curve" smooth="yes"/>
      <point x="836" y="656"/>
      <point x="860" y="698"/>
      <point x="862" y="764" type="curve" smooth="yes"/>
      <point x="864" y="808"/>
      <point x="824" y="870"/>
      <point x="736" y="870" type="curve" smooth="yes"/>
      <point x="628" y="870"/>
      <point x="565" y="812"/>
      <point x="481" y="536" type="curve"/>
    </contour>
  </outline>
</glyph>
<glyph name="y" format="1">
  <advance width="365"/>
  <unicode hex="0079"/>
  <outline>
    <contour>
      <point x="316" y="241" type="curve" smooth="yes"/>
      <point x="209" y="-46" type="line"/>
      <point x="231" y="-11" type="line"/>
      <point x="215" y="133"/>
      <point x="202" y="361"/>
      <point x="192" y="466" type="curve" smooth="yes"/>
      <point x="199" y="441"/>
      <point x="203" y="435"/>
      <point x="213" y="435" type="curve" smooth="yes"/>
      <point x="198" y="435"/>
      <point x="112" y="359"/>
      <point x="112" y="339" type="curve" smooth="yes"/>
      <point x="112" y="343"/>
      <point x="110" y="344"/>
      <point x="107" y="344" type="curve" smooth="yes"/>
      <point x="116" y="344"/>
      <point x="142" y="394"/>
      <point x="157" y="394" type="curve" smooth="yes"/>
      <point x="165" y="394"/>
      <point x="171" y="386"/>
      <point x="172" y="367" type="curve" smooth="yes"/>
      <point x="219" y="22"/>
      <point x="200" y="15"/>
      <point x="200" y="-39" type="curve" smooth="yes"/>
      <point x="200" y="-149"/>
      <point x="139" y="-212"/>
      <point x="53" y="-212" type="curve" smooth="yes"/>
      <point x="16" y="-212"/>
      <point x="-20" y="-198"/>
      <point x="-34" y="-198" type="curve" smooth="yes"/>
      <point x="-46" y="-198"/>
      <point x="-52" y="-199"/>
      <point x="-52" y="-205" type="curve" smooth="yes"/>
      <point x="-52" y="-227"/>
      <point x="-30" y="-245"/>
      <point x="11" y="-245" type="curve" smooth="yes"/>
      <point x="94" y="-245"/>
      <point x="158" y="-187"/>
      <point x="199" y="-71" type="curve" smooth="yes"/>
      <point x="350" y="360"/>
      <point x="372" y="371"/>
      <point x="446" y="408" type="curve" smooth="yes"/>
      <point x="469" y="423"/>
      <point x="471" y="425"/>
      <point x="471" y="432" type="curve" smooth="yes"/>
      <point x="471" y="434"/>
      <point x="469" y="437"/>
      <point x="465" y="437" type="curve" smooth="yes"/>
      <point x="405" y="437"/>
      <point x="369" y="371"/>
    </contour>
  </outline>
</glyph>
<glyph name="z" format="2">
  <advance width="684"/>
  <unicode hex="007A"/>
  <outline>
    <contour>
      <point x="79" y="97" type="curve"/>
      <point x="82" y="109" type="line"/>
      <point x="140" y="109"/>
      <point x="277" y="38"/>
      <point x="383" y="38" type="curve" smooth="yes"/>
      <point x="479" y="38"/>
      <point x="530" y="63"/>
      <point x="574" y="178" type="curve" smooth="yes"/>
      <point x="576" y="183"/>
      <point x="580" y="185"/>
      <point x="583" y="184" type="curve" smooth="yes"/>
      <point x="587" y="182"/>
      <point x="589" y="180"/>
      <point x="587" y="173" type="curve" smooth="yes"/>
      <point x="545" y="38"/>
      <point x="468" y="-14"/>
      <point x="367" y="-14" type="curve" smooth="yes"/>
      <point x="267" y="-14"/>
      <point x="149" y="63"/>
      <point x="107" y="63" type="curve" smooth="yes"/>
      <point x="77" y="63"/>
      <point x="45" y="-15"/>
      <point x="15" y="-15" type="curve" smooth="yes"/>
      <point x="-2" y="-15"/>
      <point x="-12" y="-6"/>
      <point x="-12" y="15" type="curve" smooth="yes"/>
      <point x="-12" y="35"/>
      <point x="17" y="57"/>
      <point x="53" y="87" type="curve" smooth="yes"/>
      <point x="62" y="94"/>
      <point x="217" y="264"/>
      <point x="372" y="437" type="curve" smooth="yes"/>
      <point x="511" y="590"/>
      <point x="650" y="745"/>
      <point x="668" y="768" type="curve"/>
      <point x="669" y="760" type="line"/>
      <point x="600" y="760"/>
      <point x="477" y="825"/>
      <point x="364" y="825" type="curve" smooth="yes"/>
      <point x="235" y="825"/>
      <point x="198" y="790"/>
      <point x="198" y="715" type="curve" smooth="yes"/>
      <point x="198" y="691"/>
      <point x="203" y="678"/>
      <point x="215" y="659" type="curve" smooth="yes"/>
      <point x="226" y="642"/>
      <point x="228" y="633"/>
      <point x="228" y="620" type="curve" smooth="yes"/>
      <point x="228" y="602"/>
      <point x="216" y="588"/>
      <point x="197" y="588" type="curve" smooth="yes"/>
      <point x="178" y="588"/>
      <point x="165" y="606"/>
      <point x="165" y="647" type="curve" smooth="yes"/>
      <point x="165" y="770"/>
      <point x="251" y="865"/>
      <point x="381" y="865" type="curve" smooth="yes"/>
      <point x="500" y="865"/>
      <point x="601" y="797"/>
      <point x="638" y="797" type="curve" smooth="yes"/>
      <point x="664" y="797"/>
      <point x="695" y="860"/>
      <point x="723" y="860" type="curve" smooth="yes"/>
      <point x="735" y="860"/>
      <point x="742" y="849"/>
      <point x="742" y="837" type="curve" smooth="yes"/>
      <point x="742" y="825"/>
      <point x="729" y="812"/>
      <point x="707" y="793" type="curve" smooth="yes"/>
      <point x="692" y="780"/>
      <point x="535" y="606"/>
      <point x="378" y="431" type="curve" smooth="yes"/>
      <point x="244" y="282"/>
      <point x="111" y="132"/>
    </contour>
  </outline>
</glyph>
<glyph name="braceleft" format="1">
  <advance width="366"/>
  <unicode hex="007B"/>
  <outline>
    <contour>
      <point x="224" y="289" type="curve" smooth="yes"/>
      <point x="225" y="289"/>
      <point x="223" y="288"/>
      <point x="222" y="288" type="curve" smooth="yes"/>
      <point x="277" y="288"/>
      <point x="326" y="326"/>
      <point x="336" y="382" type="curve" smooth="yes"/>
      <point x="352" y="460"/>
      <point x="306" y="524"/>
      <point x="320" y="602" type="curve" smooth="yes"/>
      <point x="337" y="699"/>
      <point x="409" y="756"/>
      <point x="480" y="756" type="curve" smooth="yes"/>
      <point x="547" y="756" type="line" smooth="yes"/>
      <point x="545" y="756"/>
      <point x="544" y="757"/>
      <point x="544" y="756" type="curve" smooth="yes"/>
      <point x="544" y="754"/>
      <point x="543" y="755"/>
      <point x="547" y="755" type="curve" smooth="yes"/>
      <point x="509" y="755" type="line" smooth="yes"/>
      <point x="409" y="755"/>
      <point x="319" y="692"/>
      <point x="297" y="600" type="curve" smooth="yes"/>
      <point x="270" y="495"/>
      <point x="329" y="426"/>
      <point x="306" y="340" type="curve" smooth="yes"/>
      <point x="300" y="310"/>
      <point x="271" y="296"/>
      <point x="235" y="296" type="curve" smooth="yes"/>
      <point x="215" y="296"/>
      <point x="186" y="312"/>
      <point x="174" y="312" type="curve" smooth="yes"/>
      <point x="159" y="312"/>
      <point x="143" y="300"/>
      <point x="141" y="290" type="curve" smooth="yes"/>
      <point x="139" y="280"/>
      <point x="150" y="270"/>
      <point x="167" y="270" type="curve" smooth="yes"/>
      <point x="176" y="270"/>
      <point x="207" y="284"/>
      <point x="231" y="284" type="curve" smooth="yes"/>
      <point x="271" y="284"/>
      <point x="290" y="267"/>
      <point x="282" y="235" type="curve" smooth="yes"/>
      <point x="261" y="154"/>
      <point x="166" y="85"/>
      <point x="136" y="-30" type="curve" smooth="yes"/>
      <point x="114" y="-120"/>
      <point x="172" y="-185"/>
      <point x="277" y="-185" type="curve" smooth="yes"/>
      <point x="304" y="-185" type="line" smooth="yes"/>
      <point x="301" y="-185"/>
      <point x="302" y="-188"/>
      <point x="301" y="-185" type="curve" smooth="yes"/>
      <point x="302" y="-186"/>
      <point x="302" y="-186"/>
      <point x="303" y="-186" type="curve" smooth="yes"/>
      <point x="237" y="-186" type="line" smooth="yes"/>
      <point x="164" y="-186"/>
      <point x="134" y="-120"/>
      <point x="162" y="-28" type="curve" smooth="yes"/>
      <point x="185" y="47"/>
      <point x="266" y="122"/>
      <point x="290" y="194" type="curve" smooth="yes"/>
      <point x="308" y="248"/>
      <point x="284" y="291"/>
      <point x="225" y="291" type="curve" smooth="yes"/>
      <point x="226" y="291"/>
      <point x="225" y="290"/>
    </contour>
  </outline>
</glyph>
<glyph name="currency" format="1">
  <advance width="478"/>
  <unicode hex="00A4"/>
  <outline>
    <contour>
      <point x="282" y="166" type="curve" smooth="yes"/>
      <point x="196" y="166"/>
      <point x="143" y="240"/>
      <point x="166" y="326" type="curve" smooth="yes"/>
      <point x="191" y="413"/>
      <point x="280" y="484"/>
      <point x="366" y="484" type="curve" smooth="yes"/>
      <point x="454" y="484"/>
      <point x="507" y="413"/>
      <point x="483" y="326" type="curve" smooth="yes"/>
      <point x="459" y="240"/>
      <point x="370" y="166"/>
    </contour>
    <contour>
      <point x="285" y="178" type="curve" smooth="yes"/>
      <point x="365" y="178"/>
      <point x="451" y="244"/>
      <point x="472" y="326" type="curve" smooth="yes"/>
      <point x="496" y="408"/>
      <point x="444" y="473"/>
      <point x="365" y="473" type="curve" smooth="yes"/>
      <point x="282" y="473"/>
      <point x="202" y="408"/>
      <point x="179" y="326" type="curve" smooth="yes"/>
      <point x="157" y="244"/>
      <point x="203" y="178"/>
    </contour>
    <contour>
      <point x="449" y="447" type="line"/>
      <point x="476" y="474"/>
      <point x="490" y="489"/>
      <point x="499" y="497" type="curve" smooth="yes"/>
      <point x="520" y="514"/>
      <point x="533" y="513"/>
      <point x="538" y="504" type="curve" smooth="yes"/>
      <point x="544" y="495"/>
      <point x="542" y="483"/>
      <point x="522" y="467" type="curve" smooth="yes"/>
      <point x="513" y="460"/>
      <point x="495" y="449"/>
      <point x="462" y="429" type="curve"/>
    </contour>
    <contour>
      <point x="240" y="429" type="line"/>
      <point x="219" y="449"/>
      <point x="208" y="459"/>
      <point x="200" y="468" type="curve" smooth="yes"/>
      <point x="189" y="484"/>
      <point x="193" y="495"/>
      <point x="202" y="504" type="curve" smooth="yes"/>
      <point x="212" y="512"/>
      <point x="226" y="514"/>
      <point x="237" y="497" type="curve" smooth="yes"/>
      <point x="244" y="489"/>
      <point x="250" y="475"/>
      <point x="263" y="448" type="curve"/>
    </contour>
    <contour>
      <point x="126" y="173" type="curve" smooth="yes"/>
      <point x="137" y="181"/>
      <point x="156" y="191"/>
      <point x="188" y="212" type="curve"/>
      <point x="201" y="195" type="line"/>
      <point x="173" y="168"/>
      <point x="159" y="153"/>
      <point x="149" y="144" type="curve" smooth="yes"/>
      <point x="131" y="128"/>
      <point x="117" y="129"/>
      <point x="111" y="137" type="curve" smooth="yes"/>
      <point x="105" y="144"/>
      <point x="108" y="158"/>
    </contour>
    <contour>
      <point x="449" y="173" type="curve" smooth="yes"/>
      <point x="461" y="157"/>
      <point x="456" y="144"/>
      <point x="447" y="137" type="curve" smooth="yes"/>
      <point x="437" y="129"/>
      <point x="424" y="127"/>
      <point x="412" y="143" type="curve" smooth="yes"/>
      <point x="407" y="152"/>
      <point x="402" y="167"/>
      <point x="387" y="193" type="curve"/>
      <point x="409" y="210" type="line"/>
      <point x="430" y="190"/>
      <point x="443" y="181"/>
    </contour>
  </outline>
</glyph>
<glyph name="yen" format="1">
  <advance width="540"/>
  <unicode hex="00A5"/>
  <outline>
    <contour>
      <point x="134" y="225" type="curve" smooth="yes"/>
      <point x="111" y="225"/>
      <point x="98" y="212"/>
      <point x="95" y="199" type="curve" smooth="yes"/>
      <point x="91" y="186"/>
      <point x="98" y="173"/>
      <point x="120" y="173" type="curve" smooth="yes"/>
      <point x="143" y="173"/>
      <point x="192" y="190"/>
      <point x="325" y="190" type="curve" smooth="yes"/>
      <point x="456" y="190"/>
      <point x="497" y="173"/>
      <point x="520" y="173" type="curve" smooth="yes"/>
      <point x="542" y="173"/>
      <point x="554" y="186"/>
      <point x="558" y="199" type="curve" smooth="yes"/>
      <point x="561" y="212"/>
      <point x="555" y="225"/>
      <point x="533" y="225" type="curve" smooth="yes"/>
      <point x="510" y="226"/>
      <point x="461" y="208"/>
      <point x="329" y="208" type="curve" smooth="yes"/>
      <point x="197" y="208"/>
      <point x="157" y="225"/>
    </contour>
    <contour>
      <point x="164" y="345" type="curve" smooth="yes"/>
      <point x="142" y="345"/>
      <point x="129" y="332"/>
      <point x="125" y="318" type="curve" smooth="yes"/>
      <point x="121" y="305"/>
      <point x="129" y="292"/>
      <point x="151" y="292" type="curve" smooth="yes"/>
      <point x="171" y="292"/>
      <point x="208" y="304"/>
      <point x="300" y="309" type="curve"/>
      <point x="303" y="329" type="line"/>
      <point x="216" y="333"/>
      <point x="184" y="345"/>
    </contour>
    <contour>
      <point x="404" y="311" type="line"/>
      <point x="489" y="307"/>
      <point x="534" y="293"/>
      <point x="550" y="293" type="curve" smooth="yes"/>
      <point x="572" y="293"/>
      <point x="584" y="306"/>
      <point x="588" y="319" type="curve" smooth="yes"/>
      <point x="592" y="332"/>
      <point x="585" y="345"/>
      <point x="563" y="345" type="curve" smooth="yes"/>
      <point x="546" y="345"/>
      <point x="494" y="329"/>
      <point x="406" y="326" type="curve"/>
    </contour>
    <component base="Y" xScale="0.9064374888156425" yScale="0.9064374888156425" xOffset="48"/>
  </outline>
</glyph>
